<?xml version="1.0" encoding="UTF-8" standalone="no"?>
<!-- Generator: Adobe Illustrator 14.0.0, SVG Export Plug-In . SVG Version: 6.00 Build 43363)  -->

<svg
   xmlns:dc="http://purl.org/dc/elements/1.1/"
   xmlns:cc="http://creativecommons.org/ns#"
   xmlns:rdf="http://www.w3.org/1999/02/22-rdf-syntax-ns#"
   xmlns:svg="http://www.w3.org/2000/svg"
   xmlns="http://www.w3.org/2000/svg"
   xmlns:sodipodi="http://sodipodi.sourceforge.net/DTD/sodipodi-0.dtd"
   xmlns:inkscape="http://www.inkscape.org/namespaces/inkscape"
   version="1.1"
   id="Layer_1"
   x="0px"
   y="0px"
   viewBox="0 0 360.00101 108.128"
   enable-background="new 0 0 828 828"
   xml:space="preserve"
   inkscape:version="0.48.2 r9819"
   sodipodi:docname="cool_cat_caption.svg"><metadata
   id="metadata19"><rdf:RDF><cc:Work
       rdf:about=""><dc:format>image/svg+xml</dc:format><dc:type
         rdf:resource="http://purl.org/dc/dcmitype/StillImage" /><dc:title></dc:title></cc:Work></rdf:RDF></metadata><defs
   id="defs17" /><sodipodi:namedview
   pagecolor="#ffffff"
   bordercolor="#666666"
   borderopacity="1"
   objecttolerance="10"
   gridtolerance="10"
   guidetolerance="10"
   inkscape:pageopacity="0"
   inkscape:pageshadow="2"
   inkscape:window-width="1916"
   inkscape:window-height="1156"
   id="namedview15"
   showgrid="false"
   inkscape:zoom="0.28502415"
   inkscape:cx="-735.05086"
   inkscape:cy="388.73542"
   inkscape:window-x="4"
   inkscape:window-y="0"
   inkscape:window-maximized="1"
   inkscape:current-layer="Layer_1"
   fit-margin-top="0"
   fit-margin-left="0"
   fit-margin-right="0"
   fit-margin-bottom="0" />
<g
   id="g3"
   transform="translate(-26.339,-684.082)">
	<path
   d="m 378.425,764.242 c 1.75,0.002 3.308,-1.131 3.845,-2.797 l 3.877,-11.99 c 0.13,-0.404 0.193,-0.82 0.193,-1.226 -0.003,-1.095 -0.441,-2.089 -1.151,-2.825 -0.706,-0.735 -1.738,-1.232 -2.887,-1.231 h -0.854 l 1.667,-5.124 c 0.136,-0.412 0.2,-0.838 0.2,-1.256 0,-0.852 -0.269,-1.668 -0.75,-2.342 -0.479,-0.676 -1.184,-1.214 -2.024,-1.49 l -11.385,-3.755 c -0.412,-0.136 -0.837,-0.202 -1.251,-0.202 -0.861,0.002 -1.675,0.273 -2.353,0.752 -0.677,0.478 -1.228,1.182 -1.505,2.04 l -3.694,11.377 h -3.726 c -1.149,-0.003 -2.211,0.494 -2.96,1.303 -0.003,-10e-4 -0.005,-0.002 -0.008,-0.003 -0.55,0.495 -1.183,0.852 -2.035,0.002 -0.186,-0.192 -0.386,-0.359 -0.59,-0.498 -0.611,-0.413 -1.239,-0.609 -1.821,-0.725 -0.586,-0.113 -1.146,-0.143 -1.674,-0.145 -0.559,10e-4 -1.083,0.037 -1.542,0.074 -0.457,0.037 -0.854,0.075 -1.104,0.087 -2.432,0.124 -4.862,0.37 -7.28,0.763 -4.879,0.793 -9.731,2.184 -14.242,4.435 -4.406,2.204 -8.72,5.396 -12.113,9.38 -2.998,3.521 -5.28,7.696 -6.129,12.334 -3.662,0 -7.323,0 -10.984,0 -2.777,0 -3.188,-1.377 -0.538,-3.51 l -0.022,-0.014 c 5.622,-4.613 10.976,-9.561 15.94,-14.894 2.944,-3.165 5.936,-6.567 8.463,-10.328 2.504,-3.728 4.553,-7.821 5.588,-12.372 0.003,-0.01 0.005,-0.021 0.008,-0.031 0.007,-0.027 0.016,-0.055 0.021,-0.082 h -0.001 c 0.407,-1.471 0.611,-2.975 0.611,-4.471 0.002,-4.635 -1.932,-9.21 -5.648,-12.318 -3.81,-3.182 -8.624,-4.592 -13.366,-4.592 -1.73,10e-4 -3.456,0.189 -5.135,0.551 l 0,0 -0.087,0.016 c -0.015,0.004 -0.029,0.01 -0.044,0.014 -1.379,0.246 -2.712,0.594 -4.012,1.006 -0.002,-0.003 -0.003,-0.006 -0.005,-0.008 -2.18,0.609 -3.671,0.545 -1.755,-2.57 h -0.001 c 0.765,-1.279 1.476,-2.52 2.116,-3.705 1.214,-2.243 2.198,-4.299 2.902,-6.133 0.699,-1.842 1.142,-3.438 1.185,-4.941 l 10e-4,-0.153 c -0.002,-0.767 -0.118,-1.544 -0.506,-2.299 l -0.002,-0.003 c -0.471,-0.904 -1.171,-1.816 -2.144,-2.603 -1.464,-1.186 -3.474,-2.084 -6.28,-2.7 -2.812,-0.614 -6.455,-0.957 -11.322,-0.958 -7.349,10e-4 -17.492,0.789 -31.681,2.729 -19.719,2.698 -34.504,7.43 -45.139,11.888 -5.316,2.228 -9.597,4.388 -12.927,6.181 -3.322,1.789 -5.731,3.224 -7.145,3.929 -3.171,1.589 -5.673,3.083 -8.568,4.155 -2.897,1.072 -6.25,1.797 -11.303,1.801 -5.053,-0.004 -8.404,-0.729 -11.301,-1.801 -2.894,-1.072 -5.395,-2.565 -8.565,-4.156 -1.414,-0.704 -3.822,-2.139 -7.145,-3.928 -10.002,-5.387 -28.494,-14.025 -58.069,-18.068 -14.189,-1.941 -24.333,-2.729 -31.682,-2.729 -6.487,0.005 -10.802,0.603 -13.87,1.668 -1.532,0.535 -2.757,1.2 -3.729,1.99 -0.973,0.786 -1.671,1.698 -2.142,2.603 l -0.001,0.002 c -0.389,0.753 -0.504,1.531 -0.506,2.293 l 0.001,0.132 v -0.003 c 0.021,1.061 0.253,2.152 0.621,3.355 0.649,2.096 1.746,4.523 3.193,7.248 4.34,8.151 11.875,18.938 19.948,28.879 4.665,5.741 9.771,11.767 15.499,17.219 -2.226,4.705 -3.81,9.74 -4.332,15.065 l -0.007,0.101 -0.009,0.197 -0.002,0.096 c 0,0.844 -0.012,1.705 -0.012,2.584 0.002,2.172 0.067,4.459 0.627,6.809 0.75,3.125 2.122,6.094 4.054,8.68 3.379,4.518 8.488,7.365 14.022,8.058 1.614,0.202 50.566,0.193 56.271,0.193 0.594,0.118 1.171,0.176 1.705,0.176 0.979,-0.002 1.841,-0.124 2.593,-0.196 0.018,-10e-4 0.034,-0.008 0.051,-0.01 0.009,-10e-4 0.019,10e-4 0.028,0 5.151,-0.556 9.854,-2.861 13.617,-6.195 0.882,-0.782 1.691,-1.641 2.465,-2.529 l 0.013,0.023 c 1.733,-1.732 4.31,-2.213 7.078,0.705 0.003,-10e-4 0.007,-0.004 0.01,-0.005 0.388,0.491 0.786,0.977 1.214,1.434 3.158,3.366 7.402,5.737 12.232,6.435 l 0.142,0.016 0.29,0.021 0.203,0.004 0,0 c 0.039,-0.005 0.288,0.049 0.718,0.09 0.808,0.186 1.62,0.272 2.424,0.272 2.379,-0.006 4.71,-0.605 6.567,-1.182 2.863,-0.896 5.495,-2.358 7.802,-4.187 1.363,-1.082 2.622,-2.295 3.769,-3.609 l 0.001,0.006 c 0.032,-0.039 0.063,-0.074 0.094,-0.113 0.141,-0.162 0.282,-0.324 0.418,-0.49 1.422,-1.568 2.685,-1.879 3.996,0.604 0.002,0 0.004,0 0.005,0 0.384,0.984 0.877,1.918 1.461,2.778 2.632,3.875 6.99,6.041 11.577,6.069 v 0.003 l 0.104,0.003 h 0.002 0.002 10e-4 10.779 c 1.75,0.003 3.308,-1.13 3.844,-2.797 l 3.876,-11.991 c 0.13,-0.405 0.193,-0.821 0.193,-1.227 -0.003,-1.095 -0.441,-2.089 -1.151,-2.824 -0.706,-0.735 -1.739,-1.233 -2.887,-1.231 h -6.426 l 1.196,-3.672 c 7.333,-0.832 13.948,-3.291 19.95,-6.744 v 0.006 c 2.184,-1.316 3.909,-1.685 3.688,2.014 -0.075,0.54 -0.141,1.082 -0.194,1.629 l -0.007,0.096 -0.01,0.196 -0.003,0.101 c 0,0.867 -0.013,1.75 -0.013,2.648 0.001,2.16 0.069,4.428 0.636,6.777 0.726,2.992 2.011,5.863 3.85,8.377 3.317,4.534 8.313,7.549 13.909,8.285 1.748,0.229 3.472,0.281 5.15,0.281 1.581,0 40.42,-0.046 43.396,-0.046 1.99,0.64 4.051,0.957 6.107,0.957 1.112,0 2.223,-0.091 3.319,-0.264 0.011,-10e-4 0.021,10e-4 0.032,-10e-4 l 0.028,-0.005 0.021,-0.002 c 0.011,-10e-4 0.02,-0.005 0.03,-0.007 2.554,-0.319 5.036,-1.071 7.353,-2.157 1.954,0.987 4.146,1.58 6.465,1.597 v 10e-4 l 0.086,0.003 c 0.005,0 0.011,0 0.016,0 h 0.005 0.003 37.539 c 1.751,0.003 3.31,-1.132 3.845,-2.797 l 3.874,-11.992 c 0.131,-0.404 0.193,-0.82 0.193,-1.226 -0.003,-1.095 -0.441,-2.089 -1.15,-2.825 -0.706,-0.734 -1.739,-1.232 -2.887,-1.23 h -8.835 l 2.316,-7.059 h 3.494 z m -286.268,6.934 c -2.509,0 -5.03,0.013 -7.564,0.086 -0.32,0.01 -0.637,0.021 -0.938,0.021 -0.469,10e-4 -0.9,-0.031 -1.198,-0.1 -0.305,-0.068 -0.438,-0.157 -0.479,-0.197 -0.076,-0.07 -0.165,-0.183 -0.255,-0.371 -0.136,-0.278 -0.255,-0.722 -0.319,-1.228 -0.066,-0.508 -0.083,-1.07 -0.083,-1.598 v -0.006 l 0.002,-0.252 c 0.032,-1.911 0.376,-3.814 0.942,-5.691 2.775,1.479 5.68,2.736 8.723,3.723 l 2.553,3.318 c 1.207,1.568 0.455,2.296 -0.641,2.296 l 0,0 c -0.247,0 -0.494,-10e-4 -0.743,-10e-4 z m 24.406,0.004 c -4.143,0 -8.285,0 -12.428,0 -1.722,0 -1.939,-1.091 -0.477,-2.268 l -0.016,-0.004 c 0.401,-0.326 0.815,-0.648 1.212,-0.976 0.369,0.011 0.729,0.026 1.115,0.026 3.907,0 7.434,-0.291 10.636,-0.823 -0.073,0.772 -0.118,1.55 -0.118,2.329 0.001,0.571 0.034,1.143 0.076,1.716 z m 55.545,-24.42 c -2.918,1.732 -5.486,4.041 -7.581,6.738 h -4.452 c -2.392,-3.917 -5.994,-7.07 -10.328,-8.762 -0.947,-0.369 -1.913,-0.656 -2.887,-0.873 2.498,-4.704 4.721,-8.674 7.147,-11.371 1.315,-1.469 2.668,-2.566 4.161,-3.307 1.495,-0.737 3.145,-1.143 5.182,-1.146 2.039,0.003 3.689,0.409 5.185,1.146 1.12,0.556 2.158,1.311 3.165,2.274 1.51,1.443 2.937,3.365 4.365,5.675 1.216,1.963 2.438,4.215 3.734,6.652 -2.736,0.548 -5.329,1.571 -7.691,2.974 z m 110.228,4.318 c -1.425,1.213 -2.876,2.395 -4.352,3.541 -0.419,0.33 -1.012,0.761 -1.588,1.377 -0.288,0.311 -0.575,0.678 -0.814,1.143 -0.235,0.461 -0.415,1.043 -0.414,1.68 -0.001,0.427 0.081,0.867 0.234,1.272 0.154,0.407 0.373,0.782 0.637,1.123 l 5.007,6.51 0,0 c 1.786,2.322 2.396,3.454 -0.501,3.454 -2.506,0 -5.026,0.011 -7.558,0.084 -0.32,0.01 -0.637,0.021 -0.938,0.021 -0.468,10e-4 -0.9,-0.031 -1.199,-0.101 -0.306,-0.068 -0.438,-0.156 -0.479,-0.197 -0.075,-0.07 -0.164,-0.182 -0.255,-0.371 -0.137,-0.281 -0.256,-0.728 -0.318,-1.238 -0.065,-0.509 -0.082,-1.07 -0.081,-1.6 l 0.003,-0.251 v 0.01 c 0.041,-2.654 0.673,-5.296 1.69,-7.87 1.018,-2.572 2.421,-5.07 3.967,-7.406 3.016,-4.561 6.689,-8.713 10.732,-12.471 l 0.024,-0.024 0.052,-0.05 0.028,-0.027 c 3.465,-3.466 7.503,-6.408 11.858,-8.777 2.726,-1.332 3.74,-0.441 2.028,1.939 -0.059,0.077 -0.115,0.154 -0.175,0.231 -0.063,0.083 -0.126,0.166 -0.196,0.253 -0.661,0.848 -1.358,1.69 -2.052,2.525 -2.26,2.737 -4.731,5.329 -7.303,7.851 -2.599,2.549 -5.273,5.018 -8.037,7.369 z"
   id="path5"
   inkscape:connector-curvature="0"
   style="fill:#628683" />
	<path
   d="m 378.425,762.223 c 0.879,0 1.652,-0.563 1.922,-1.398 l 3.878,-11.99 c 0.415,-1.286 -0.576,-2.641 -1.923,-2.641 h -3.638 l 2.53,-7.77 c 0.346,-1.062 -0.228,-2.195 -1.287,-2.545 l -11.385,-3.755 c -1.051,-0.347 -2.215,0.245 -2.555,1.294 l -4.147,12.775 h -5.193 c -0.872,0 -1.641,0.553 -1.917,1.381 l -0.765,2.291 0,0 c -0.764,2.293 -3.292,3.535 -3.292,-0.631 v -1.021 c 0,-2.763 -3.91,-2.016 -5.656,-1.927 -2.364,0.12 -4.723,0.359 -7.06,0.739 -4.72,0.766 -9.376,2.107 -13.664,4.248 -8.357,4.174 -16.45,12.2 -17.397,21.926 -7.633,0 -15.265,0 -22.896,0 -3.646,0 -7.291,-0.023 -10.936,0.082 -1.281,0.037 -3.023,0.129 -4.043,-0.813 -1.197,-1.104 -1.306,-3.188 -1.306,-4.701 l 0.003,-0.266 c 0.095,-5.908 2.795,-11.521 5.993,-16.358 3.121,-4.719 6.902,-8.988 11.041,-12.837 l 0.052,-0.05 c 4.568,-4.567 10.056,-8.257 15.955,-10.952 0.452,-0.182 0.942,-0.365 1.449,-0.529 v 10e-4 c 1.686,-0.384 3.061,0.784 2.388,2.703 -1.267,2.79 -3.4,5.312 -5.342,7.663 -2.321,2.813 -4.844,5.455 -7.446,8.008 -2.63,2.579 -5.339,5.078 -8.144,7.466 -1.447,1.231 -2.921,2.433 -4.421,3.599 -1.168,0.908 -2.853,2.122 -1.586,3.766 l 7.266,9.447 c 1.061,1.38 2.688,0.678 3.685,-0.337 6.936,-5.382 13.475,-11.277 19.457,-17.704 5.833,-6.269 11.676,-13.315 13.587,-21.877 1.518,-5.331 -0.07,-11.213 -4.361,-14.801 -4.62,-3.861 -11.038,-4.863 -16.814,-3.609 -0.003,10e-4 -0.006,0.002 -0.009,0.002 -0.029,0.006 -0.059,0.011 -0.087,0.018 v 0.002 c -3.026,0.531 -5.877,1.559 -8.572,2.846 -0.002,-10e-4 -0.004,-0.002 -0.006,-0.004 -3.063,1.314 -5.173,1.592 -3.018,-1.602 l -0.002,-10e-4 c 5.646,-8.55 9.503,-15.972 9.581,-19.606 0.013,-0.597 -0.077,-1.093 -0.276,-1.475 -2.263,-4.318 -10.283,-7.814 -49.363,-2.468 -39.079,5.349 -58.41,18.716 -64.581,21.802 -6.17,3.085 -10.284,6.171 -20.774,6.171 -10.488,0 -14.603,-3.086 -20.77,-6.171 -6.169,-3.086 -25.504,-16.453 -64.584,-21.802 -39.078,-5.347 -47.099,-1.851 -49.36,2.468 -0.198,0.379 -0.287,0.866 -0.276,1.452 0.106,6.152 11.109,23.226 23.31,38.243 4.94,6.081 10.333,12.441 16.391,18.045 -2.487,4.913 -4.237,10.167 -4.781,15.71 l -0.009,0.196 c 0,2.99 -0.142,5.988 0.56,8.922 0.686,2.861 1.945,5.583 3.708,7.941 3.032,4.058 7.644,6.635 12.655,7.262 3.002,0.376 6.048,0.191 9.064,0.18 3.309,-0.014 6.618,-10e-4 9.927,-10e-4 6.638,0 13.275,0 19.913,0 5.754,0 11.509,0 17.263,0 1.31,0.327 2.632,0.119 3.952,-0.011 l -10e-4,-0.01 c 0.021,-0.002 0.041,-0.007 0.062,-0.009 l 0.001,0.011 c 7.864,-0.847 14.704,-6.217 18.276,-13.172 l 0.006,0.008 c 0.96,-2.098 2.625,-2.055 3.46,0 0.004,10e-4 0.009,0 0.013,10e-4 2.314,6.736 8.11,11.988 15.379,13.039 l 0.29,0.021 c 0.329,-0.012 0.679,0.081 1.008,0.104 2.512,0.663 5.733,-0.075 8.154,-0.832 2.6,-0.813 5.018,-2.151 7.149,-3.842 4.068,-3.226 7.228,-7.639 8.724,-12.627 h 3.034 l -0.439,1.352 -0.039,0.136 c -0.207,0.828 -0.533,1.615 -0.547,2.476 -0.016,0.939 -0.083,1.878 -0.021,2.817 0.13,1.959 0.86,3.852 1.96,5.469 2.263,3.328 6.01,5.192 10.015,5.191 h 10.779 c 0.878,0 1.652,-0.563 1.922,-1.398 l 3.875,-11.991 c 0.415,-1.286 -0.576,-2.642 -1.922,-2.642 h -9.208 l 2.46,-7.558 c 9.257,-0.786 17.36,-4.285 24.583,-9.222 l -0.005,0.01 c 2.753,-1.979 4.149,-1.102 3.439,2.275 0.001,0 0.002,10e-4 0.003,0.002 -0.491,1.928 -0.854,3.895 -1.05,5.901 l -0.01,0.196 c 0,3.018 -0.148,5.99 0.567,8.951 0.665,2.748 1.846,5.375 3.517,7.659 3,4.099 7.501,6.811 12.542,7.476 3.135,0.412 6.348,0.218 9.499,0.218 3.28,0 6.559,0 9.838,0 6.673,0 13.348,0 20.021,0 3.07,0 6.14,0 9.21,0 2.853,0.981 5.908,1.187 8.881,0.712 v 10e-4 c 0.016,-0.003 0.032,-0.005 0.048,-0.007 0.015,-0.003 0.028,-0.004 0.043,-0.006 v -10e-4 c 2.686,-0.331 5.314,-1.166 7.705,-2.421 1.938,1.155 4.15,1.845 6.5,1.844 h 23.978 5.547 8.018 c 0.879,0 1.652,-0.563 1.923,-1.399 l 3.874,-11.991 c 0.415,-1.285 -0.576,-2.641 -1.922,-2.641 H 369.83 l 3.641,-11.098 h 4.954 z m -259.588,10.976 c -7.608,0 -15.216,0 -22.825,0 -3.788,0 -7.574,-0.027 -11.361,0.082 -1.282,0.037 -3.023,0.129 -4.043,-0.812 -1.197,-1.104 -1.308,-3.187 -1.307,-4.7 l 0.002,-0.267 c 0.049,-2.957 0.749,-5.841 1.838,-8.59 3.485,2.044 7.17,3.729 11.08,4.938 l 4.29,5.576 c 1.061,1.379 2.688,0.678 3.685,-0.336 1.339,-1.041 2.649,-2.117 3.958,-3.195 0.602,0.023 1.205,0.043 1.816,0.043 4.979,0 9.29,-0.482 13.061,-1.33 -0.601,2.814 -0.71,5.724 -0.194,8.591 z m -3.272,-42.5 c -0.134,0.242 -0.268,0.486 -0.414,0.725 -0.002,0.003 -0.003,0.006 -0.005,0.009 -1.236,2.03 -2.827,3.92 -4.305,5.711 -2.322,2.813 -4.844,5.454 -7.447,8.007 -2.629,2.58 -5.338,5.079 -8.143,7.467 -1.448,1.23 -2.92,2.432 -4.42,3.598 -0.663,0.515 -1.489,1.128 -1.852,1.861 -1.982,-1.028 -3.911,-2.204 -5.776,-3.484 0.656,-1.186 1.361,-2.338 2.096,-3.448 3.121,-4.719 6.902,-8.988 11.041,-12.837 l 0.052,-0.05 c 2.125,-2.124 4.492,-4.04 6.988,-5.821 2.96,-1.967 5.822,-3.697 8.969,-5.131 2.772,-0.837 4.319,1.056 3.216,3.393 z m 23.22,14.828 c -2.059,0.292 -4.075,0.872 -5.953,1.715 -5.571,2.499 -9.986,7.268 -12.375,12.863 -2.177,0.732 -4.548,1.289 -7.075,1.688 -2.096,0.15 -3.264,-1.066 -0.716,-3.408 l -0.013,-0.003 c 2.489,-2.339 4.914,-4.747 7.237,-7.253 5.77,-6.225 11.522,-13.248 13.378,-21.742 h 0 c 1.466,-5.301 -0.134,-11.117 -4.39,-14.676 -4.62,-3.864 -11.04,-4.863 -16.816,-3.611 -0.003,10e-4 -0.006,0.002 -0.01,0.002 -0.028,0.007 -0.057,0.011 -0.085,0.018 l 0,0.002 c -6.076,1.068 -11.469,4.094 -16.258,7.322 -0.562,0.242 -0.993,0.633 -1.5,0.958 l -0.072,0.05 c -7.687,5.594 -14.468,12.422 -20.134,20.051 -1.062,1.43 -2.077,2.899 -3.033,4.408 -6.027,-6.518 -10.165,-13.155 -11.175,-16.946 -2.469,-9.255 -6.069,-17.792 1.542,-25.401 7.611,-7.608 37.842,-2.878 54.297,2.47 16.455,5.347 25.048,13.651 26.736,21.987 1.186,5.848 0.135,13.052 -3.585,19.506 z m 26.747,9.991 h -6.605 c -2.141,-4.006 -5.667,-7.246 -9.912,-8.899 -0.505,-0.196 -1.021,-0.36 -1.541,-0.509 0,-0.002 0,-0.002 0,-0.004 -1.54,-0.512 -3.734,-0.686 -2.411,-3.163 5.242,-9.862 9.391,-16.923 18.287,-16.923 8.672,0 12.828,6.694 17.884,16.161 l 0,0 c 1.039,1.956 0.098,3.271 -1.488,3.685 0,10e-4 0,0.002 0,0.003 -5.722,1.27 -10.765,4.844 -14.214,9.649 z m 64.606,5.628 c -1.792,0.418 -3.747,-0.564 -2.767,-3.576 l 0,0 14.358,-44.096 c 0.418,-1.287 -0.573,-2.646 -1.921,-2.646 h -12.596 c -0.85,0 -1.66,0.583 -1.921,1.396 l -14.088,43.293 h -9.744 c -2.757,-5.178 -7.787,-8.711 -13.433,-9.808 -3.807,-6.501 -4.893,-13.785 -3.695,-19.69 1.688,-8.335 10.283,-16.64 26.737,-21.986 16.453,-5.347 46.688,-10.077 54.295,-2.47 7.612,7.608 4.011,16.146 1.545,25.4 -2.138,8.03 -18.293,28.814 -36.77,34.183 z"
   id="path7"
   inkscape:connector-curvature="0"
   style="fill:#97aa77" />
	<path
   d="m 227.213,712.849 -14.542,44.689 h -12.466 c -2.949,-6.587 -9.545,-10.455 -16.702,-10.153 -7.048,0.297 -13.089,4.342 -16.917,10.153 h -8.89 c -2.021,-4.509 -5.938,-8.08 -10.703,-9.477 -4.635,-1.358 -9.916,-0.753 -14.2,1.438 -9.063,4.635 -14.536,15.832 -11.395,25.72 -11.398,0 -22.797,0 -34.195,0 -2.355,0 -5.438,0.515 -7.5,-0.896 -2.079,-1.422 -2.457,-4.555 -2.418,-6.855 0.099,-5.977 2.737,-11.869 5.926,-16.822 3.262,-5.064 7.347,-9.721 11.753,-13.818 2.233,-2.232 4.698,-4.223 7.267,-6.055 3.028,-2.014 6.009,-3.822 9.325,-5.329 2.382,-0.95 6.023,-1.962 8.235,-0.122 l 0.121,0.122 v 0.121 c 0,1.224 -0.755,2.593 -1.332,3.633 -0.163,0.323 -0.326,0.645 -0.484,0.97 -0.434,0.972 -0.933,2.139 -1.696,2.906 -3.298,4.945 -7.358,9.363 -11.59,13.518 -4.406,4.324 -9.041,8.43 -13.964,12.158 l 7.267,9.445 c 0.291,-0.143 0.502,-0.381 0.727,-0.605 6.916,-5.359 13.375,-11.176 19.335,-17.58 5.504,-5.914 11.357,-12.961 13.122,-21.054 1.417,-4.956 -0.189,-10.165 -4.36,-13.2 -4.167,-3.066 -9.545,-3.769 -14.533,-2.665 -5.728,0.981 -10.986,3.917 -15.745,7.146 -0.507,0.17 -0.895,0.558 -1.333,0.848 -7.36,5.355 -13.828,11.841 -19.308,19.098 -5.528,7.32 -9.822,15.488 -10.727,24.744 0,2.888 -0.178,5.605 0.504,8.452 0.601,2.507 1.68,4.886 3.194,6.974 2.949,4.066 7.296,6.369 12.282,6.78 2.758,0.228 5.575,0.077 8.34,0.077 3.191,0 6.382,0 9.573,0 3.426,0 6.852,0 10.278,0 9.053,0 18.107,0 27.16,0 1.035,0.35 2.417,0.111 3.481,0 0.017,0 0.047,0 0.062,0 l -0.006,-0.008 c 9.026,-0.966 16.67,-8.592 18.625,-17.311 h 4.257 c 0.193,8.561 6.184,15.953 14.756,17.197 0.45,0 0.883,0.121 1.333,0.121 1.138,0.383 2.723,0.111 3.894,-0.035 1.242,-0.156 2.469,-0.432 3.657,-0.826 2.44,-0.813 4.682,-2.133 6.65,-3.781 3.918,-3.283 6.836,-7.66 7.961,-12.676 h 7.356 l -1.301,3.997 c -0.142,0.57 -0.3,1.138 -0.484,1.696 0,1.469 -0.191,2.807 0.164,4.268 0.362,1.489 1.089,2.861 2.073,4.031 1.945,2.313 4.695,3.449 7.694,3.449 h 10.779 l 3.875,-11.992 h -11.99 l 20.347,-62.491 h -12.592 m -84.716,60.554 c -1.809,1.345 -4.336,2.066 -6.524,1.251 -2.079,-0.775 -3.111,-3.165 -3.226,-5.248 0,-0.203 -0.04,-0.443 0.121,-0.605 0,-0.201 0,-0.403 0,-0.605 0.5,-2.995 2.395,-5.781 4.966,-7.387 0.464,4.326 3.681,8.012 7.993,8.84 -0.807,1.453 -1.919,2.706 -3.33,3.754 m 42.509,0 c -1.809,1.345 -4.336,2.067 -6.523,1.251 -2.079,-0.775 -3.112,-3.165 -3.226,-5.248 0,-0.203 -0.04,-0.443 0.121,-0.605 0,-0.201 0,-0.403 0,-0.605 0.501,-2.996 2.394,-5.779 4.965,-7.387 0.465,4.326 3.682,8.013 7.994,8.84 -0.809,1.453 -1.919,2.706 -3.331,3.754 m 182.036,1.937 h 14.411 l -3.875,11.992 h -8.018 -5.547 -23.978 c -2.341,0 -4.536,-0.807 -6.42,-2.181 -2.457,1.474 -5.267,2.447 -8.113,2.785 -2.794,0.46 -5.675,0.265 -8.336,-0.728 -10.78,0 -21.562,0 -32.342,0 -3.127,0 -6.253,0 -9.379,0 -2.641,0 -5.313,0.131 -7.919,-0.365 -4.914,-0.936 -8.854,-3.981 -11.312,-8.303 -1.076,-1.892 -1.815,-3.96 -2.228,-6.095 -0.49,-2.536 -0.303,-4.966 -0.303,-7.521 0.905,-9.256 5.198,-17.424 10.727,-24.744 5.48,-7.256 11.947,-13.744 19.308,-19.098 0.438,-0.291 0.826,-0.678 1.333,-0.848 4.758,-3.229 10.017,-6.164 15.745,-7.146 4.983,-1.104 10.368,-0.402 14.531,2.665 4.174,3.037 5.773,8.24 4.36,13.2 -1.762,8.093 -7.618,15.142 -13.122,21.054 -5.96,6.403 -12.419,12.223 -19.335,17.58 -0.226,0.225 -0.436,0.463 -0.727,0.605 l -7.267,-9.445 c 4.924,-3.729 9.558,-7.835 13.964,-12.158 4.233,-4.152 8.293,-8.574 11.591,-13.518 0.763,-0.77 1.262,-1.934 1.694,-2.906 0.163,-0.322 0.326,-0.645 0.484,-0.97 0.577,-1.038 1.334,-2.409 1.334,-3.633 v -0.121 l -0.121,-0.122 c -2.218,-1.838 -5.851,-0.828 -8.238,0.122 -6.118,2.79 -11.821,6.617 -16.59,11.384 -4.406,4.098 -8.491,8.754 -11.753,13.818 -3.189,4.953 -5.827,10.845 -5.925,16.822 -0.037,2.3 0.336,5.434 2.416,6.855 2.062,1.41 5.146,0.896 7.5,0.896 6.389,0 12.775,0 19.164,0 4.683,0 9.367,0 14.05,0 -0.14,-8.642 6.802,-16.464 13.82,-20.735 7.624,-4.64 17.199,-6.271 26.004,-6.271 v 11.989 c -9.407,0 -19.867,2.024 -25.796,10.052 -0.25,0.503 -0.596,0.951 -0.848,1.453 -0.334,0.496 -0.581,1.043 -0.848,1.576 -0.534,1.577 -0.496,3.07 1.533,3.023 1.602,-0.037 3.226,-0.37 4.608,-1.209 2.919,-1.772 4.632,-5.76 5.728,-8.841 0.288,-1.02 0.63,-2.022 0.968,-3.026 l 11.386,3.755 -2.666,8.354 h 11.788 c 0.1,-0.365 0.202,-0.729 0.321,-1.089 l 4.604,-14.049 h -6.783 l 3.998,-11.989 h 6.661 l 4.601,-14.17 11.386,3.755 -3.393,10.415 h 6.42 l -3.877,11.989 h -6.417 l -4.962,15.142"
   id="path9"
   inkscape:connector-curvature="0"
   style="fill:#e0bc59" />
	<path
   d="m 146.393,766.702 c -2.951,-0.566 -5.244,-3.122 -5.576,-6.214 -0.11,-1.027 -0.741,-1.925 -1.67,-2.377 -0.416,-0.202 -0.864,-0.303 -1.313,-0.303 -0.553,0 -1.104,0.153 -1.589,0.455 -3.328,2.078 -5.696,5.606 -6.336,9.438 -0.027,0.163 -0.041,0.329 -0.041,0.494 v 0.026 c -0.094,0.365 -0.135,0.761 -0.121,1.185 l 0.004,0.164 c 0.154,2.81 1.601,6.563 5.173,7.896 0.949,0.354 1.962,0.532 3.013,0.532 2.196,0 4.451,-0.776 6.347,-2.187 1.749,-1.299 3.15,-2.882 4.164,-4.706 0.468,-0.841 0.503,-1.854 0.096,-2.727 -0.406,-0.87 -1.206,-1.494 -2.151,-1.676 z m 70.641,10.401 c 0.564,0.777 1.467,1.237 2.428,1.237 h 7.868 l -1.937,5.992 h -8.596 c -1.55,0 -3.745,-0.413 -5.398,-2.38 -0.709,-0.844 -1.212,-1.815 -1.454,-2.809 -0.165,-0.678 -0.139,-1.403 -0.107,-2.322 0.009,-0.25 0.017,-0.501 0.022,-0.756 0.13,-0.423 0.253,-0.868 0.375,-1.348 l 1.269,-3.898 c 0.297,-0.914 0.139,-1.914 -0.425,-2.691 -0.564,-0.777 -1.467,-1.237 -2.427,-1.237 h -7.356 c -1.404,0 -2.62,0.974 -2.927,2.344 -0.939,4.189 -3.346,8.004 -6.96,11.032 -1.769,1.481 -3.677,2.569 -5.669,3.234 -0.993,0.329 -2.031,0.563 -3.084,0.696 l -0.404,0.052 c -0.581,0.077 -1.182,0.155 -1.685,0.155 -0.344,0 -0.474,-0.038 -0.477,-0.039 -0.308,-0.104 -0.62,-0.156 -0.945,-0.156 -0.091,-0.004 -0.18,-0.021 -0.271,-0.033 -0.213,-0.029 -0.489,-0.066 -0.806,-0.081 -6.815,-1.072 -11.861,-7.047 -12.025,-14.271 -0.037,-1.631 -1.369,-2.933 -2.999,-2.933 h -4.257 c -1.404,0 -2.62,0.974 -2.927,2.344 -1.738,7.751 -8.624,14.192 -16.018,14.983 l -0.102,0.013 c -0.146,0.016 -0.296,0.033 -0.45,0.052 -0.465,0.054 -0.946,0.11 -1.337,0.11 -0.262,0 -0.367,-0.026 -0.369,-0.026 v 0.001 c -0.309,-0.104 -0.633,-0.158 -0.96,-0.158 h -27.16 -10.278 -9.573 c -0.801,0 -1.606,0.013 -2.413,0.024 -0.779,0.012 -1.56,0.024 -2.34,0.024 -1.322,0 -2.384,-0.037 -3.341,-0.116 -4.226,-0.348 -7.719,-2.268 -10.1,-5.552 -1.276,-1.76 -2.187,-3.749 -2.705,-5.911 -0.478,-1.995 -0.457,-3.962 -0.433,-6.24 0.005,-0.45 0.01,-0.904 0.011,-1.361 0.768,-7.534 4.08,-15.088 10.121,-23.088 5.425,-7.184 11.694,-13.39 18.635,-18.447 0.164,-0.111 0.324,-0.23 0.483,-0.351 l 0.207,-0.155 c 0.213,-0.082 0.417,-0.188 0.606,-0.317 3.833,-2.601 8.954,-5.709 14.567,-6.671 l 0.141,-0.028 c 1.26,-0.278 2.534,-0.42 3.787,-0.42 3.157,0 6.034,0.89 8.333,2.582 3.06,2.227 4.332,6.132 3.241,9.95 l -0.047,0.185 c -1.587,7.278 -6.892,13.745 -12.387,19.649 -5.199,5.586 -11.029,10.954 -17.352,15.978 l -3.582,-4.655 c 3.93,-3.124 7.834,-6.599 11.867,-10.556 5.227,-5.13 8.89,-9.392 11.843,-13.782 0.977,-1.079 1.553,-2.372 2.021,-3.426 l 0.039,-0.087 c 0.117,-0.237 0.236,-0.474 0.354,-0.709 l 0.064,-0.128 c 0.68,-1.228 1.679,-3.059 1.679,-5.035 v -0.121 c 0,-0.792 -0.313,-1.551 -0.871,-2.113 l -0.121,-0.122 -0.211,-0.193 c -1.372,-1.141 -3.104,-1.719 -5.151,-1.719 -1.792,0 -3.849,0.458 -6.113,1.361 l -0.13,0.055 c -3.863,1.756 -7.237,3.895 -9.745,5.563 l -0.081,0.056 c -2.958,2.109 -5.448,4.183 -7.607,6.336 -4.886,4.55 -8.988,9.379 -12.193,14.355 -4.153,6.451 -6.308,12.641 -6.403,18.396 -0.073,4.421 1.215,7.665 3.724,9.382 1.958,1.339 4.211,1.511 5.955,1.511 0.641,0 1.252,-0.025 1.843,-0.051 0.484,-0.021 0.954,-0.041 1.396,-0.041 h 34.195 c 0.957,0 1.856,-0.456 2.421,-1.229 0.565,-0.773 0.728,-1.768 0.438,-2.68 -2.573,-8.101 1.869,-18.032 9.902,-22.141 2.341,-1.197 4.997,-1.831 7.68,-1.83 1.501,0 2.952,0.201 4.31,0.6 3.823,1.12 7.116,4.045 8.809,7.824 0.483,1.079 1.556,1.773 2.738,1.773 h 8.89 c 1.009,0 1.95,-0.507 2.505,-1.35 3.527,-5.356 8.826,-8.565 14.538,-8.807 0.218,-0.009 0.436,-0.014 0.653,-0.014 5.814,0 10.866,3.218 13.184,8.396 0.483,1.08 1.556,1.774 2.738,1.774 h 12.466 c 1.299,0 2.451,-0.836 2.853,-2.071 l 13.868,-42.618 h 6.285 l -19.068,58.563 c -0.297,0.912 -0.14,1.913 0.425,2.691 z m -28.133,-10.401 c -2.951,-0.566 -5.244,-3.121 -5.576,-6.214 -0.11,-1.027 -0.742,-1.926 -1.671,-2.378 -0.416,-0.202 -0.864,-0.302 -1.312,-0.302 -0.554,0 -1.105,0.153 -1.59,0.456 -3.326,2.079 -5.694,5.606 -6.334,9.436 -0.027,0.164 -0.041,0.329 -0.041,0.495 v 0.027 c -0.094,0.365 -0.134,0.76 -0.121,1.184 l 0.004,0.164 c 0.154,2.81 1.602,6.563 5.172,7.895 0.949,0.354 1.963,0.534 3.015,0.534 2.195,0 4.45,-0.777 6.346,-2.187 1.749,-1.298 3.15,-2.881 4.165,-4.706 0.467,-0.841 0.503,-1.855 0.096,-2.728 -0.407,-0.873 -1.207,-1.494 -2.153,-1.676 z m 188.43,11.638 -1.937,5.992 h -5.834 -5.547 -23.978 c -1.604,0 -3.213,-0.555 -4.652,-1.604 -0.525,-0.383 -1.146,-0.576 -1.769,-0.576 -0.532,0 -1.066,0.142 -1.542,0.428 -2.117,1.27 -4.512,2.092 -6.924,2.378 l -0.134,0.02 c -0.792,0.13 -1.589,0.196 -2.369,0.196 -1.562,0 -3.053,-0.261 -4.432,-0.774 -0.335,-0.125 -0.69,-0.189 -1.048,-0.189 h -32.342 -9.379 c -0.464,0 -0.929,0.004 -1.395,0.008 -0.449,0.004 -0.899,0.008 -1.349,0.008 -1.502,0 -3.101,-0.04 -4.615,-0.328 -3.887,-0.74 -7.177,-3.169 -9.265,-6.839 -0.893,-1.57 -1.529,-3.313 -1.89,-5.181 -0.324,-1.677 -0.296,-3.411 -0.266,-5.246 0.008,-0.515 0.017,-1.031 0.018,-1.554 0.768,-7.535 4.08,-15.089 10.121,-23.087 5.432,-7.192 11.702,-13.399 18.636,-18.449 0.162,-0.11 0.319,-0.228 0.476,-0.347 l 0.211,-0.158 c 0.214,-0.082 0.418,-0.188 0.609,-0.317 3.831,-2.601 8.948,-5.708 14.567,-6.671 l 0.142,-0.028 c 1.259,-0.278 2.533,-0.42 3.786,-0.42 3.158,0 6.034,0.889 8.332,2.582 3.057,2.225 4.329,6.131 3.24,9.952 l -0.046,0.185 c -1.584,7.275 -6.889,13.742 -12.387,19.647 -5.207,5.595 -11.038,10.963 -17.352,15.978 l -3.582,-4.655 c 3.926,-3.121 7.83,-6.595 11.865,-10.555 5.147,-5.049 8.917,-9.436 11.845,-13.784 0.981,-1.086 1.558,-2.386 2.028,-3.444 l 0.022,-0.05 c 0.146,-0.289 0.292,-0.578 0.435,-0.869 0.681,-1.227 1.673,-3.047 1.673,-5.021 v -0.121 c 0,-0.792 -0.313,-1.551 -0.87,-2.113 l -0.121,-0.122 -0.216,-0.196 c -1.373,-1.139 -3.105,-1.716 -5.15,-1.716 -1.788,0 -3.845,0.458 -6.112,1.36 l -0.135,0.058 c -6.657,3.035 -12.52,7.057 -17.427,11.953 -4.886,4.549 -8.989,9.379 -12.193,14.354 -4.154,6.451 -6.308,12.641 -6.402,18.397 -0.071,4.424 1.216,7.667 3.722,9.381 1.958,1.339 4.211,1.511 5.956,1.511 0.641,0 1.252,-0.025 1.843,-0.051 0.484,-0.021 0.954,-0.041 1.396,-0.041 h 19.164 14.05 c 0.804,0 1.574,-0.323 2.138,-0.896 0.564,-0.573 0.875,-1.349 0.861,-2.153 -0.125,-7.739 6.591,-14.601 12.38,-18.124 6.817,-4.148 14.981,-5.477 21.444,-5.768 v 5.991 c -11.643,0.541 -20.114,4.303 -25.209,11.201 -0.104,0.141 -0.195,0.29 -0.273,0.447 -0.06,0.12 -0.168,0.292 -0.282,0.475 -0.146,0.233 -0.31,0.494 -0.471,0.795 -0.332,0.518 -0.579,1.02 -0.798,1.468 l -0.141,0.285 c -0.062,0.123 -0.114,0.25 -0.158,0.38 -0.708,2.088 -0.581,3.823 0.375,5.157 0.49,0.683 1.649,1.829 3.907,1.829 l 0.161,-0.002 c 2.336,-0.054 4.387,-0.606 6.096,-1.644 3.729,-2.265 5.698,-6.747 6.997,-10.4 l 0.06,-0.189 0.013,-0.046 5.692,1.878 -1.763,5.523 c -0.291,0.912 -0.129,1.908 0.436,2.682 0.565,0.774 1.465,1.23 2.422,1.23 h 11.788 c 1.353,0 2.538,-0.905 2.894,-2.211 0.086,-0.313 0.173,-0.626 0.278,-0.943 l 4.603,-14.049 c 0.3,-0.914 0.143,-1.916 -0.421,-2.695 -0.564,-0.778 -1.468,-1.239 -2.429,-1.239 h -2.621 l 1.998,-5.989 h 4.499 c 1.3,0 2.452,-0.837 2.854,-2.073 l 3.67,-11.304 5.685,1.875 -2.467,7.573 c -0.297,0.913 -0.14,1.914 0.425,2.691 0.565,0.777 1.467,1.237 2.428,1.237 h 2.297 l -1.937,5.989 h -4.234 c -1.296,0 -2.446,0.833 -2.851,2.064 l -4.966,15.138 c -0.3,0.914 -0.143,1.917 0.421,2.695 0.564,0.779 1.468,1.24 2.43,1.24 h 10.292 z"
   id="path11"
   inkscape:connector-curvature="0"
   style="fill:#e3c168" />
	<path
   d="m 373.939,782.332 h -4.378 -5.547 -23.978 c -1.178,0 -2.379,-0.422 -3.474,-1.221 -0.861,-0.628 -1.88,-0.96 -2.947,-0.96 -0.906,0 -1.796,0.247 -2.571,0.713 -1.877,1.125 -3.997,1.854 -6.131,2.106 l -0.054,0.007 -0.168,0.025 c -0.688,0.112 -1.375,0.17 -2.045,0.17 -1.322,0 -2.578,-0.218 -3.733,-0.648 -0.562,-0.209 -1.149,-0.315 -1.747,-0.315 h -32.342 -9.379 c -0.47,0 -0.939,0.004 -1.424,0.008 -0.439,0.004 -0.879,0.008 -1.319,0.008 -1.403,0 -2.888,-0.035 -4.241,-0.293 -3.302,-0.629 -6.107,-2.711 -7.901,-5.862 -0.785,-1.381 -1.345,-2.919 -1.664,-4.572 -0.285,-1.472 -0.258,-3.104 -0.23,-4.834 0.008,-0.49 0.016,-0.982 0.018,-1.479 0.749,-7.129 3.928,-14.322 9.717,-21.988 5.307,-7.027 11.429,-13.09 18.193,-18.021 0.181,-0.124 0.356,-0.255 0.522,-0.381 l 0.016,-0.012 c 0.252,-0.115 0.496,-0.252 0.727,-0.409 3.663,-2.486 8.539,-5.456 13.781,-6.354 l 0.053,-0.011 0.183,-0.036 c 1.119,-0.248 2.248,-0.373 3.354,-0.373 2.729,0 5.199,0.758 7.155,2.199 2.371,1.726 3.35,4.782 2.494,7.787 l -0.018,0.065 -0.046,0.185 -0.013,0.057 c -1.481,6.805 -6.593,13.014 -11.896,18.711 -4.696,5.045 -9.92,9.917 -15.549,14.501 l -1.144,-1.487 c 3.466,-2.839 6.913,-5.947 10.489,-9.456 5.208,-5.109 9.034,-9.556 12.029,-13.983 1.133,-1.296 1.789,-2.773 2.274,-3.865 l 10e-4,-0.002 c 0.134,-0.266 0.268,-0.531 0.399,-0.798 0.722,-1.302 1.899,-3.45 1.899,-5.947 v -0.121 c 0,-1.327 -0.515,-2.577 -1.45,-3.521 l -0.121,-0.122 -0.074,-0.071 -0.216,-0.196 -0.069,-0.06 c -1.742,-1.444 -3.904,-2.177 -6.427,-2.177 -2.042,0 -4.347,0.506 -6.896,1.521 l -0.135,0.058 -0.046,0.021 c -6.864,3.129 -12.915,7.278 -17.986,12.333 -4.996,4.654 -9.197,9.604 -12.487,14.711 -4.359,6.771 -6.62,13.313 -6.72,19.448 -0.104,6.478 2.44,9.592 4.593,11.064 2.411,1.648 5.052,1.859 7.084,1.859 0.705,0 1.384,-0.029 1.971,-0.055 0.439,-0.019 0.865,-0.037 1.267,-0.037 h 19.164 14.05 c 1.33,0 2.628,-0.544 3.564,-1.493 0.934,-0.949 1.457,-2.257 1.435,-3.588 -0.111,-6.895 6.083,-13.135 11.42,-16.383 5.897,-3.589 12.94,-4.912 18.405,-5.349 v 1.984 c -11.296,0.885 -19.64,4.881 -24.817,11.891 -0.173,0.233 -0.327,0.485 -0.451,0.734 -0.043,0.082 -0.113,0.188 -0.191,0.313 -0.145,0.23 -0.322,0.513 -0.503,0.846 -0.374,0.593 -0.647,1.149 -0.866,1.596 l -0.135,0.275 c -0.102,0.203 -0.191,0.417 -0.264,0.633 -1.154,3.404 -0.287,5.666 0.645,6.966 0.714,0.994 2.382,2.662 5.556,2.662 l 0.183,-0.003 c 2.691,-0.062 5.075,-0.712 7.088,-1.934 3.708,-2.252 5.83,-6.232 7.247,-9.838 l 1.971,0.649 -1.161,3.637 c -0.483,1.515 -0.212,3.186 0.726,4.47 0.938,1.284 2.447,2.051 4.038,2.051 h 11.788 c 2.249,0 4.232,-1.516 4.823,-3.683 0.077,-0.28 0.155,-0.56 0.25,-0.849 l 4.603,-14.049 c 0.498,-1.518 0.235,-3.197 -0.703,-4.492 -0.908,-1.252 -2.354,-2.016 -3.895,-2.063 l 0.665,-1.991 h 3.058 c 2.173,0 4.085,-1.389 4.756,-3.456 l 3.049,-9.393 1.884,0.622 -1.85,5.679 c -0.494,1.518 -0.229,3.194 0.708,4.485 0.85,1.171 2.172,1.914 3.601,2.042 l -0.649,2.01 h -2.779 c -2.166,0 -4.075,1.383 -4.751,3.441 l -4.966,15.138 c -0.498,1.519 -0.236,3.198 0.702,4.491 0.938,1.295 2.451,2.067 4.049,2.067 h 7.541 l -0.641,1.992 z m -158.523,-4.055 c 0.938,1.292 2.45,2.063 4.046,2.063 h 5.12 l -0.644,1.992 h -7.14 c -1.636,0 -2.938,-0.561 -3.868,-1.667 -0.512,-0.608 -0.872,-1.298 -1.041,-1.993 -0.1,-0.411 -0.078,-1.016 -0.052,-1.78 0.006,-0.168 0.012,-0.337 0.017,-0.508 0.104,-0.352 0.205,-0.718 0.304,-1.11 l 1.248,-3.835 c 0.494,-1.518 0.229,-3.194 -0.709,-4.485 -0.938,-1.292 -2.45,-2.063 -4.045,-2.063 h -7.356 c -2.357,0 -4.363,1.606 -4.879,3.906 -0.842,3.757 -3.019,7.192 -6.292,9.937 -1.574,1.318 -3.263,2.284 -5.014,2.869 -0.87,0.288 -1.78,0.494 -2.709,0.611 l -0.413,0.053 c -0.463,0.062 -1.039,0.138 -1.421,0.138 h -0.049 c -0.413,-0.119 -0.836,-0.185 -1.263,-0.194 l -0.017,-0.002 -0.091,-0.014 c -0.192,-0.026 -0.501,-0.068 -0.864,-0.091 -5.8,-0.962 -10.1,-6.129 -10.24,-12.325 -0.061,-2.695 -2.303,-4.888 -4.999,-4.888 h -4.257 c -2.357,0 -4.363,1.606 -4.879,3.906 -1.559,6.953 -7.698,12.729 -14.313,13.437 l -0.068,0.009 c -0.154,0.017 -0.313,0.035 -0.499,0.057 -0.391,0.046 -0.796,0.092 -1.063,0.094 -0.437,-0.122 -0.887,-0.184 -1.341,-0.184 h -27.16 -10.279 -9.573 c -0.75,0 -1.505,0.011 -2.261,0.022 l -0.182,0.002 -0.167,0.003 c -0.714,0.011 -1.429,0.021 -2.143,0.021 -1.264,0 -2.273,-0.035 -3.177,-0.109 -3.627,-0.299 -6.616,-1.935 -8.645,-4.732 -1.122,-1.547 -1.922,-3.297 -2.379,-5.203 -0.42,-1.755 -0.401,-3.52 -0.377,-5.753 0.004,-0.423 0.009,-0.849 0.01,-1.277 0.749,-7.128 3.928,-14.322 9.717,-21.988 5.299,-7.018 11.42,-13.079 18.192,-18.019 0.181,-0.124 0.357,-0.255 0.529,-0.384 l 0.014,-0.011 c 0.253,-0.116 0.496,-0.253 0.722,-0.407 3.667,-2.487 8.547,-5.458 13.783,-6.354 l 0.056,-0.011 0.179,-0.036 c 1.12,-0.248 2.249,-0.373 3.355,-0.373 2.727,0 5.198,0.758 7.156,2.199 2.373,1.727 3.353,4.782 2.495,7.783 l -0.016,0.058 -0.047,0.185 -0.016,0.066 c -1.485,6.808 -6.595,13.017 -11.897,18.713 -4.689,5.038 -9.913,9.909 -15.549,14.5 l -1.144,-1.486 c 3.467,-2.839 6.914,-5.947 10.491,-9.457 5.292,-5.194 9.006,-9.512 12.025,-13.98 1.13,-1.291 1.784,-2.761 2.266,-3.845 l 0.022,-0.05 c 0.107,-0.217 0.216,-0.433 0.329,-0.656 l 0.047,-0.094 c 0.723,-1.307 1.91,-3.472 1.91,-5.97 v -0.121 c 0,-1.327 -0.515,-2.578 -1.451,-3.521 l -0.121,-0.122 -0.07,-0.067 -0.211,-0.193 -0.071,-0.063 c -1.74,-1.447 -3.904,-2.181 -6.43,-2.181 -2.047,0 -4.353,0.506 -6.89,1.518 l -0.13,0.056 -0.051,0.022 c -3.997,1.816 -7.457,4.01 -10.054,5.737 l -0.104,0.072 c -3.038,2.167 -5.601,4.301 -7.834,6.524 -4.997,4.656 -9.198,9.606 -12.487,14.713 -4.358,6.771 -6.62,13.313 -6.721,19.446 -0.107,6.475 2.439,9.591 4.595,11.066 2.411,1.648 5.052,1.859 7.084,1.859 0.705,0 1.384,-0.029 1.973,-0.055 0.439,-0.019 0.865,-0.037 1.266,-0.037 h 34.195 c 1.589,0 3.098,-0.766 4.036,-2.048 0.938,-1.282 1.21,-2.951 0.73,-4.466 -2.291,-7.21 1.705,-16.071 8.906,-19.755 2.061,-1.054 4.399,-1.61 6.77,-1.61 1.313,0 2.574,0.175 3.748,0.519 3.269,0.958 6.089,3.471 7.546,6.723 0.804,1.796 2.595,2.956 4.563,2.956 h 8.89 c 1.687,0 3.248,-0.841 4.176,-2.25 3.169,-4.812 7.89,-7.694 12.948,-7.908 0.191,-0.008 0.382,-0.012 0.572,-0.012 5.014,0 9.367,2.764 11.358,7.213 0.804,1.796 2.596,2.957 4.564,2.957 h 12.466 c 2.172,0 4.083,-1.388 4.754,-3.452 l 13.419,-41.237 h 2.078 l -18.215,55.943 c -0.495,1.517 -0.23,3.193 0.708,4.484 z M 146.77,764.738 c -2.095,-0.402 -3.725,-2.237 -3.964,-4.464 -0.185,-1.723 -1.226,-3.203 -2.784,-3.962 -0.678,-0.329 -1.435,-0.504 -2.188,-0.504 -0.936,0 -1.851,0.262 -2.648,0.759 -3.806,2.377 -6.517,6.416 -7.249,10.804 -0.032,0.194 -0.054,0.392 -0.063,0.599 -0.1,0.478 -0.142,0.979 -0.126,1.49 l 0.004,0.164 0.002,0.056 c 0.188,3.412 1.995,7.989 6.472,9.66 1.172,0.437 2.42,0.658 3.711,0.658 2.624,0 5.302,-0.917 7.54,-2.581 1.979,-1.47 3.567,-3.267 4.719,-5.339 0.777,-1.397 0.837,-3.097 0.161,-4.546 -0.677,-1.448 -2.017,-2.492 -3.587,-2.794 z m 42.508,0 c -2.095,-0.402 -3.725,-2.238 -3.964,-4.464 -0.186,-1.723 -1.226,-3.204 -2.785,-3.963 -0.677,-0.329 -1.433,-0.503 -2.187,-0.503 -0.938,0 -1.854,0.263 -2.65,0.76 -3.804,2.378 -6.513,6.416 -7.247,10.803 -0.033,0.195 -0.054,0.393 -0.063,0.601 -0.1,0.475 -0.142,0.977 -0.126,1.488 l 0.004,0.164 0.002,0.056 c 0.188,3.412 1.995,7.989 6.47,9.659 1.174,0.438 2.423,0.66 3.714,0.66 2.623,0 5.3,-0.917 7.538,-2.581 1.979,-1.468 3.567,-3.265 4.721,-5.34 0.777,-1.397 0.837,-3.097 0.16,-4.546 -0.675,-1.447 -2.016,-2.492 -3.587,-2.794 z"
   id="path13"
   inkscape:connector-curvature="0"
   style="fill:#e4c471" />
</g>
</svg>