<?xml version="1.0" encoding="UTF-8" standalone="no"?>
<!-- Generator: Adobe Illustrator 14.0.0, SVG Export Plug-In . SVG Version: 6.00 Build 43363)  -->

<svg
   xmlns:dc="http://purl.org/dc/elements/1.1/"
   xmlns:cc="http://creativecommons.org/ns#"
   xmlns:rdf="http://www.w3.org/1999/02/22-rdf-syntax-ns#"
   xmlns:svg="http://www.w3.org/2000/svg"
   xmlns="http://www.w3.org/2000/svg"
   xmlns:sodipodi="http://sodipodi.sourceforge.net/DTD/sodipodi-0.dtd"
   xmlns:inkscape="http://www.inkscape.org/namespaces/inkscape"
   version="1.1"
   id="Layer_2"
   x="0px"
   y="0px"
   viewBox="0 0 288.00098 338.84177"
   enable-background="new 0 0 696 762"
   xml:space="preserve"
   inkscape:version="0.48.2 r9819"
   sodipodi:docname="fox.svg"><metadata
   id="metadata90"><rdf:RDF><cc:Work
       rdf:about=""><dc:format>image/svg+xml</dc:format><dc:type
         rdf:resource="http://purl.org/dc/dcmitype/StillImage" /></cc:Work></rdf:RDF></metadata><defs
   id="defs88" /><sodipodi:namedview
   pagecolor="#ffffff"
   bordercolor="#666666"
   borderopacity="1"
   objecttolerance="10"
   gridtolerance="10"
   guidetolerance="10"
   inkscape:pageopacity="0"
   inkscape:pageshadow="2"
   inkscape:window-width="640"
   inkscape:window-height="480"
   id="namedview86"
   showgrid="false"
   fit-margin-top="0"
   fit-margin-left="0"
   fit-margin-right="0"
   fit-margin-bottom="0"
   inkscape:zoom="0.30971129"
   inkscape:cx="314.44599"
   inkscape:cy="-5.8182337"
   inkscape:window-x="0"
   inkscape:window-y="0"
   inkscape:window-maximized="0"
   inkscape:current-layer="Layer_2" />
<g
   id="g3"
   transform="translate(-33.554014,-36.34)">
	<path
   d="m 321.555,266.829 c 0,-5.585 -5.227,-9.104 -9.277,-14.59 -0.008,-0.007 -0.012,-0.016 -0.02,-0.023 -2.791,-3.791 -5.022,-8.525 -4.589,-15.527 1.984,-32.049 -9.954,-55.628 -28.003,-68.998 13.323,-7.982 34.958,-36.1 32.856,-63.776 C 310.672,79.529 291.1,65.006 272.109,65.852 v 0.004 c 3.928,20.588 -3.668,51.228 -29.318,51.228 5.247,4.349 10.473,7.962 14.7,10.832 17.385,11.808 12.445,27.763 9.702,32.553 l -0.004,0.004 c -2.385,-1.047 -4.833,-1.944 -7.329,-2.688 -1.188,-0.358 -2.389,-0.685 -3.601,-0.972 -7.959,-1.778 -16.405,-1.245 -23.812,2.33 0,0 0,-0.001 0,-0.001 -1.444,0.654 -2.672,-1.066 -2.183,-2.234 l -0.004,0 c 2.485,-5.966 4.52,-11.75 5.954,-17.141 0.004,-0.02 0.012,-0.04 0.016,-0.059 0.318,-1.295 -0.382,-3.121 -2.086,-3.758 -0.004,-0.004 -0.008,-0.004 -0.012,-0.004 -0.095,-0.027 -0.189,-0.059 -0.288,-0.09 -0.016,-0.008 -0.036,-0.016 -0.055,-0.02 -5.86,-1.933 -13.515,-8.108 -25.598,-22.355 -3.074,-3.621 -7.293,-6.923 -12.366,-9.753 7.407,-22.096 -0.59,-53.999 -18.522,-67.381 -22.296,12.004 -32.171,47.19 -32.175,57.297 -8.615,0.598 -17.369,2.311 -25.819,5.353 -8.415,3.149 -16.196,7.506 -23.154,12.626 -6.584,-7.71 -36.875,-28.078 -61.615,-22.777 -4.983,21.777 9.548,51.213 29.463,63.272 -2.031,5.435 -3.109,10.678 -3.109,15.42 0,18.679 -1.842,28.342 -5.062,33.608 -0.063,0.106 -0.13,0.212 -0.193,0.314 -0.012,0.008 -0.016,0.02 -0.02,0.028 -0.877,1.606 -0.197,3.467 0.909,4.223 4.766,3.318 10.312,6.541 16.349,9.591 11.701,5.916 25.252,11.182 38.595,15.208 0,0 -2.763,33.203 -6.175,59.989 -2.125,16.692 -4.503,30.893 -6.62,33.01 -5.51,5.51 -20.49,12.087 -20.27,21.336 0.299,12.425 11.217,18.301 21.057,15.94 9.84,-2.361 24.386,-9.446 22.426,-24.008 -1.035,-7.683 2.09,-24.449 5.278,-39.681 1.456,-6.986 2.932,-13.649 4.019,-18.959 12.905,5.235 27.393,7.258 41.519,6.589 1.066,6.025 2.055,12.61 2.779,19.12 1.991,17.884 2,35.249 -3.711,39.228 -10.721,7.478 -15.602,19.164 -7.218,27.55 8.387,8.387 25.827,4.33 30.549,-5.116 4.723,-9.446 8.639,-15.625 5.164,-27.826 -1.61,-5.648 -2.09,-20.183 -2.145,-34.159 0,-0.012 0,-0.027 0,-0.04 -0.032,-8.639 0.098,-17.058 0.228,-23.04 7.274,-2.149 14.047,-5.05 19.974,-8.608 3.81,-2.286 7.584,-4.545 11.292,-6.793 2.574,2.755 4.16,5.64 4.16,9.324 0,9.839 0.279,22.186 -9.473,27.13 -9.84,4.982 -11.272,18.262 -3.806,23.615 6.167,4.416 12.594,5.801 21.442,4.797 10.756,-1.22 15.818,-9.127 13.85,-19.753 -1.968,-10.626 6.014,-37.678 6.014,-47.124 0,-5.152 -4.451,-8.541 -8.316,-13.346 2.854,-2.011 5.584,-4.042 8.185,-6.095 l 0.005,0.004 c 0.688,-0.546 1.416,-0.442 1.987,0.422 0,0 10e-4,0 10e-4,0 2.132,3.305 4.607,6.227 7.344,8.963 5.447,5.447 10.926,9.226 15.109,12.804 4.424,3.774 7.407,7.324 7.407,12.378 0,9.839 0.283,22.186 -9.474,27.129 -9.839,4.987 -11.268,18.266 -3.806,23.615 6.167,4.42 12.594,5.801 21.442,4.798 10.756,-1.22 15.818,-9.127 13.85,-19.754 -1.968,-10.627 6.016,-37.675 6.016,-47.12 z"
   id="path5"
   inkscape:connector-curvature="0"
   style="fill:#5f5f5f" />
	<path
   d="m 307.669,236.688 c 1.984,-32.049 -9.954,-55.628 -28.003,-68.998 13.323,-7.982 34.958,-36.1 32.856,-63.776 C 310.672,79.528 291.1,65.005 272.109,65.851 v 0.004 c 3.928,20.588 -3.668,51.228 -29.318,51.228 5.247,4.349 10.473,7.962 14.7,10.832 17.385,11.808 12.445,27.763 9.702,32.553 l -0.004,0.004 c -2.385,-1.047 -4.833,-1.944 -7.329,-2.688 -1.188,-0.358 -2.389,-0.685 -3.601,-0.972 -7.959,-1.778 -16.405,-1.245 -23.812,2.33 0,0 0,-0.001 0,-0.001 -1.444,0.654 -2.672,-1.066 -2.183,-2.234 l -0.004,0 c 2.485,-5.966 4.52,-11.75 5.954,-17.141 0.004,-0.02 0.012,-0.04 0.016,-0.059 0.318,-1.295 -0.382,-3.121 -2.086,-3.758 -0.004,-0.004 -0.008,-0.004 -0.012,-0.004 -0.095,-0.027 -0.189,-0.059 -0.288,-0.09 -0.016,-0.008 -0.036,-0.016 -0.055,-0.02 -5.86,-1.933 -13.515,-8.108 -25.598,-22.355 -3.074,-3.621 -7.293,-6.923 -12.366,-9.753 7.407,-22.096 -0.59,-53.999 -18.522,-67.381 -22.296,12.004 -32.171,47.19 -32.175,57.297 -8.615,0.598 -17.369,2.311 -25.819,5.353 -8.415,3.149 -16.196,7.506 -23.154,12.626 -6.584,-7.71 -36.875,-28.078 -61.615,-22.777 -4.983,21.777 9.548,51.213 29.463,63.272 -2.031,5.435 -3.109,10.678 -3.109,15.42 0,18.679 -1.842,28.342 -5.062,33.608 -0.063,0.106 -0.13,0.212 -0.193,0.314 -0.012,0.008 -0.016,0.02 -0.02,0.028 -0.877,1.606 -0.197,3.467 0.909,4.223 4.766,3.318 10.312,6.541 16.349,9.591 11.701,5.916 25.252,11.182 38.595,15.208 0,0 -2.763,33.203 -6.175,59.989 0,-0.204 0.413,-0.476 0.744,-0.275 5.864,3.531 13.181,5.982 20.553,6.084 0.37,0 0.693,0.217 0.571,0.788 h 0.004 c 1.456,-6.986 2.932,-13.649 4.019,-18.959 12.905,5.235 27.393,7.258 41.519,6.589 1.066,6.025 2.055,12.61 2.779,19.12 0,-0.622 0.433,-0.94 0.933,-0.78 6.494,2.129 13.897,2.216 20.545,-0.401 0.008,-0.004 0.012,-0.004 0.02,-0.008 0.559,-0.216 1.086,0.012 1.142,0.827 -0.032,-8.639 0.098,-17.058 0.228,-23.04 7.274,-2.149 14.047,-5.05 19.974,-8.608 3.81,-2.286 7.584,-4.545 11.292,-6.793 8.446,-5.125 16.538,-10.186 23.871,-15.357 2.854,-2.011 5.584,-4.042 8.185,-6.095 l 0.005,0.004 c 0.688,-0.546 1.416,-0.442 1.987,0.422 0,0 10e-4,0 10e-4,0 2.132,3.305 4.607,6.227 7.344,8.963 5.447,5.447 10.926,9.226 15.109,12.804 v -0.004 c -0.685,-0.579 -0.433,-1.023 0.244,-1.134 0.003,0 0.003,0 0.007,0 9.226,-1.338 19.349,-5.416 24.576,-12.65 0.318,-0.452 0.771,-0.476 1.311,0.221 -2.792,-3.792 -5.024,-8.526 -4.591,-15.528 z M 67.074,145.161 c -15,-10.666 -23.202,-31.813 -24.15,-41.058 12.047,-2 35.146,12.661 40.357,18.73 -6.86,7.061 -12.37,14.76 -16.207,22.328 z m 121.911,-44.758 c -7.821,-3.287 -16.999,-5.589 -26.792,-6.534 0,-7.935 8.116,-34.174 18.613,-40.472 5.275,7.672 12.741,29.149 8.179,47.006 z"
   id="path7"
   inkscape:connector-curvature="0"
   style="fill:#cd6634" />
	<path
   d="m 102.255,325.73 c 6.087,0.979 11.182,2.761 15.478,5.583 m 77.834,11.1 c -5.257,-1.322 -11.209,-1.756 -17.171,-1.286 m 71.491,-36.829 c -4.522,-2.11 -10.143,-3.031 -16.406,-3.053 m 77.413,5.665 c -4.872,-2.524 -11.143,-3.551 -18.182,-3.481"
   id="path9"
   inkscape:connector-curvature="0"
   style="fill:none;stroke:#484a4a;stroke-width:0.5;stroke-linecap:round;stroke-linejoin:round" />
	<path
   d="m 259.657,236.314 c -2.752,-6.759 -4.334,-15.054 -4.334,-25.877 m 46.442,-84.516 c 5.904,-19.574 -3.148,-38.675 -18.892,-46.547"
   id="path11"
   inkscape:connector-curvature="0"
   style="fill:none;stroke:#ae572a;stroke-width:0.5;stroke-linecap:round;stroke-linejoin:round" />
	<path
   d="m 217.669,165.985 c -10.603,7.659 -21.844,20.071 -35.1,14.388 -17.806,-7.635 -23.17,-6.958 -34.116,-3.141 -10.815,4.172 -15.342,7.128 -23.977,24.473 -6.427,12.914 -23.799,11.002 -36.838,12.029 0.008,3.4 9.34,11.894 21.088,15.928 0.917,0.288 1.834,0.571 2.748,0.846 24.264,7.325 47.843,6.349 58.368,1.968 11.28,-3.602 27.983,-18.365 42.097,-40.74 6.325,-10.67 7.935,-23.146 5.743,-25.732 l -0.013,-0.019 z"
   id="path13"
   inkscape:connector-curvature="0"
   style="fill:#ffffff" />
	<path
   d="m 272.109,65.855 v -0.004 c -2.563,0.114 -5.113,0.508 -7.604,1.192 -19.454,5.349 -32.49,-3.393 -39.826,-10.237 -0.008,-0.008 -0.012,-0.012 -0.02,-0.016 -0.949,-0.838 -2.244,-0.138 -2.657,0.783 -0.004,0.008 -0.008,0.016 -0.012,0.024 -11.103,26.429 4.928,46.328 20.801,59.485 25.65,0.001 33.246,-30.639 29.318,-51.227 z"
   id="path15"
   inkscape:connector-curvature="0"
   style="fill:#ffffff" />
	<path
   d="m 272.92,72.07 c -3.48,0.11 -6.93,0.75 -10.25,1.93 -15.18,5.36 -30.64,3.28 -41.84,-13.38 -8.71,24.93 6.7,43.82 21.96,56.46 23.17,0 31.61,-25 30.13,-45.01 z"
   id="path17"
   inkscape:connector-curvature="0"
   style="fill:#f1f2f2" />
	<g
   id="g19">
		<g
   id="XMLID_2_">
			<path
   d="m 194.21,214.76 c -8.92,9.4 -17.61,15.56 -24.37,17.72 -10.52,4.38 -34.1,5.35 -58.37,-1.97 -0.91,-0.28 -1.83,-0.56 -2.74,-0.85 14.24,3.74 54.46,7.58 85.48,-14.9 z"
   id="path22"
   inkscape:connector-curvature="0"
   style="fill:#e6e7e8" />
			<path
   d="m 168.01,183.85 c 0.13,0.38 0.17,0.74 0.17,1.1 0,0.63 -0.13,1.23 -0.32,1.85 -0.19,0.62 -0.45,1.26 -0.76,1.92 -0.62,1.32 -1.45,2.74 -2.35,4.15 -1.81,2.81 -3.91,5.59 -5.23,7.27 l -0.01,0.01 -0.05,0.06 -0.01,0.02 c -0.52,0.62 -1.18,1.03 -1.84,1.29 -0.67,0.27 -1.35,0.39 -2.02,0.39 -0.32,0 -0.64,-0.03 -0.95,-0.09 h -0.01 c -1.5,-0.32 -3.61,-0.78 -5.83,-1.37 -2.21,-0.59 -4.52,-1.29 -6.45,-2.1 -1.29,-0.54 -2.41,-1.11 -3.3,-1.84 -0.5,-0.42 -0.95,-0.9 -1.23,-1.57 -0.33,-0.82 -0.5,-1.73 -0.5,-2.69 0,-2.16 0.87,-4.58 2.81,-6.8 0.97,-1.11 2.19,-2.18 3.72,-3.16 1.52,-0.97 3.34,-1.86 5.48,-2.62 0,0 0.01,0 0.02,0 0,-0.01 0.01,-0.01 0.01,-0.01 3.18,-1.21 5.98,-1.72 8.41,-1.72 5.54,-0.01 9.18,2.73 10.24,5.91 z"
   id="path24"
   inkscape:connector-curvature="0"
   style="fill:#e6e7e8" />
			<path
   d="m 168.01,183.85 c -1.06,-3.18 -4.7,-5.92 -10.24,-5.91 -2.43,0 -5.23,0.51 -8.41,1.72 0,0 -0.01,0 -0.01,0.01 -0.01,0 -0.02,0 -0.02,0 -2.14,0.76 -3.96,1.65 -5.48,2.62 -1.53,0.98 -2.75,2.05 -3.72,3.16 -1.94,2.22 -2.81,4.64 -2.81,6.8 0,0.96 0.17,1.87 0.5,2.69 0.28,0.67 0.73,1.15 1.23,1.57 0.89,0.73 2.01,1.3 3.3,1.84 1.93,0.81 4.24,1.51 6.45,2.1 2.22,0.59 4.33,1.05 5.83,1.37 h 0.01 c 0.31,0.06 0.63,0.09 0.95,0.09 0.67,0 1.35,-0.12 2.02,-0.39 0.66,-0.26 1.32,-0.67 1.84,-1.29 l 0.01,-0.02 0.05,-0.06 0.01,-0.01 c 1.32,-1.68 3.42,-4.46 5.23,-7.27 0.9,-1.41 1.73,-2.83 2.35,-4.15 0.31,-0.66 0.57,-1.3 0.76,-1.92 0.19,-0.62 0.32,-1.22 0.32,-1.85 0,-0.36 -0.04,-0.72 -0.17,-1.1 z m -17.72,-7.24 c 3.77,-1.14 17.71,-0.86 25.46,3.89 7.75,4.75 22.1,9.45 36,-4.45 3.73,3.72 1.21,13.87 1.21,13.87 h 0.01 c -0.33,0.61 -0.67,1.22 -1.03,1.82 -5.66,8.96 -11.73,16.71 -17.71,23.01 l -0.02,0.01 c -31.02,22.48 -71.24,18.64 -85.48,14.9 -11.75,-4.03 -21.08,-12.53 -21.09,-15.93 13.61,6.52 32.11,3.27 36.86,-4.98 4.45,-7.73 8.73,-21.81 12.87,-25.73 0,-0.01 0.01,-0.01 0.01,-0.01 0.27,-0.22 0.55,-0.44 0.83,-0.64 2.88,-2.12 6.1,-3.54 10.24,-5.14 0.63,-0.22 1.24,-0.43 1.84,-0.63 v 0.01 z"
   id="path26"
   inkscape:connector-curvature="0"
   style="fill:#f1f2f2" />
		</g>
	</g>
	<g
   id="XMLID_4_">
		<path
   d="m 240.29,156.53 c -0.86,2.52 -1.75,4.98 -2.65,7.36 -3.81,0.43 -7.42,1.15 -10.8,2.04 1.34,-3.1 2.43,-5.89 3.33,-8.29 0.08,0.82 0.77,1.64 1.64,1.64 0.21,0 0.42,-0.04 0.64,-0.14 2.51,-1.21 5.15,-2.07 7.84,-2.61 z"
   id="path29"
   inkscape:connector-curvature="0"
   style="fill:#d66e3b" />
		<path
   d="m 315.93,319.33 c -0.4,7.84 -5.39,13.36 -14.24,14.37 -8.85,1.01 -15.27,-0.38 -21.44,-4.8 -3.09,-2.21 -4.65,-5.78 -4.72,-9.56 8.41,8.4 27.86,12.53 40.4,-0.01 z"
   id="path31"
   inkscape:connector-curvature="0"
   style="fill:#5b5c5c" />
		<path
   d="m 253.49,249.68 c 1.74,2.16 3.6,4.05 5.12,5.93 -5.3,4.92 -15.45,13.5 -24.98,16.82 -0.46,-2.79 -1.91,-5.13 -4.01,-7.39 8.44,-5.12 16.54,-10.18 23.87,-15.36 z"
   id="path33"
   inkscape:connector-curvature="0"
   style="fill:#5b5c5c" />
		<path
   d="m 256.2,314.33 c 0.08,8.48 -4.97,14.53 -14.26,15.58 -8.85,1 -15.27,-0.38 -21.44,-4.8 -3.06,-2.19 -4.63,-5.71 -4.73,-9.44 7.95,7.95 30.3,13.33 40.43,-1.34 z"
   id="path35"
   inkscape:connector-curvature="0"
   style="fill:#5b5c5c" />
		<path
   d="m 201.3,342.41 c 0.94,6.44 -0.46,11.16 -2.78,16.19 -2.36,3.24 -5.69,5.52 -9.46,6.92 4.38,-2.25 10.89,-12.74 12.24,-23.11 z"
   id="path37"
   inkscape:connector-curvature="0"
   style="fill:#5b5c5c" />
		<path
   d="m 164.56,370.62 c -3.01,-3.01 -4.31,-6.44 -4.25,-9.95 h 0.01 c 6.37,6.37 19.01,8.51 28.74,4.85 3.77,-1.4 7.1,-3.68 9.46,-6.92 -1,2.19 -2.18,4.44 -3.42,6.91 -4.72,9.44 -22.16,13.5 -30.54,5.11 z"
   id="path39"
   inkscape:connector-curvature="0"
   style="fill:#5b5c5c" />
		<path
   d="m 78.7,342.42 c 5.98,11.25 17.14,13.55 23.55,11.57 6.42,-1.99 16.53,-8.77 19.64,-17.21 1.96,14.56 -12.59,21.64 -22.42,24 -9.84,2.37 -20.76,-3.51 -21.06,-15.94 -0.02,-0.83 0.08,-1.63 0.29,-2.42 z"
   id="path41"
   inkscape:connector-curvature="0"
   style="fill:#5b5c5c" />
		<path
   d="m 83.28,122.83 c -2.87,2.95 -5.5,6.02 -7.87,9.14 -0.51,-0.58 -18.59,-21.32 -31.61,-23.17 -0.45,-1.77 -0.74,-3.36 -0.88,-4.7 12.05,-2 35.15,12.66 40.36,18.73 z"
   id="path43"
   inkscape:connector-curvature="0"
   style="fill:#5b5c5c" />
		<path
   d="m 180.81,53.4 c 1.19,1.73 2.49,4.16 3.73,7.09 -7.35,5.26 -11.43,25.83 -11.43,35.03 -3.52,-0.73 -7.17,-1.29 -10.92,-1.65 0,-7.93 8.12,-34.17 18.62,-40.47 z"
   id="path45"
   inkscape:connector-curvature="0"
   style="fill:#5b5c5c" />
		<g
   id="g47">
			<path
   d="m 114.38,175.58 c -1.84,0 -3.58,0.45 -5.11,1.24 L 89,184.03 c 5.98,5.99 17.87,17.52 28.67,13.86 l -0.13,-0.46 c 4.62,-1.36 7.99,-5.64 7.99,-10.7 0,-6.16 -5,-11.15 -11.15,-11.15 z"
   id="path49"
   inkscape:connector-curvature="0"
   style="fill:#c86433" />
			<path
   d="m 195.83,147.78 c 0,0 -7.92,2.26 -13.93,3.56 -0.35,-0.03 -0.72,-0.05 -1.08,-0.05 -6.71,0 -12.15,5.44 -12.15,12.14 0,6.71 5.44,12.15 12.15,12.15 4.07,0 7.68,-2 9.87,-5.08 0.01,-0.01 0.02,-0.02 0.03,-0.03 7.72,-7.78 5.11,-22.69 5.11,-22.69 z"
   id="path51"
   inkscape:connector-curvature="0"
   style="fill:#c86433" />
		</g>
		<path
   d="m 145.13,93.64 c 7.12,0 8.87,0 8.87,0 0,0 3.38,-0.35 8.19,0.23 3.75,0.36 7.4,0.92 10.92,1.65 v 0.01 c 5.69,1.19 11.04,2.84 15.88,4.87 0,0 0,0 6.84,3.33 5.07,2.83 9.29,6.13 12.36,9.75 0.81,0.96 1.61,1.88 2.37,2.77 C 173.64,97 140,103 130.75,126 110,114.25 90.56,125.56 64,152.12 c 0,0 0.93,-3.03 3.07,-6.96 2.23,-4.4 5.03,-8.85 8.34,-13.19 2.37,-3.12 5,-6.19 7.87,-9.14 6.35,-6.35 8.47,-8.58 8.47,-8.58 4.41,-2.63 4.41,-2.63 4.41,-2.63 6.95,-5.12 14.74,-9.48 23.15,-12.63 8.45,-3.04 17.2,-4.75 25.82,-5.35 z"
   id="path53"
   inkscape:connector-curvature="0"
   style="fill:#ce6a39" />
		<path
   d="m 240.29,156.53 c 5.24,-1.06 10.71,-0.9 15.97,0.28 1.21,0.29 2.41,0.62 3.6,0.97 2.5,0.75 4.94,1.64 7.33,2.69 3.88,1.77 9.16,4.59 12.48,7.22 5.17,3.83 9.83,8.49 13.81,13.95 -20.58,-16.41 -39.94,-19.56 -55.84,-17.75 0.9,-2.38 1.79,-4.84 2.65,-7.36 z"
   id="path55"
   inkscape:connector-curvature="0"
   style="fill:#d66e3b" />
		<path
   d="m 272.11,65.85 c 17.51,-0.78 35.5,11.5 39.66,32.53 h -0.01 c -9.58,-18.2 -24.52,-26.78 -38.84,-26.31 -0.16,-2.14 -0.43,-4.23 -0.81,-6.22 z"
   id="path57"
   inkscape:connector-curvature="0"
   style="fill:#d66e3b" />
		<path
   d="m 267.19,160.47 c 1.17,-2.04 2.75,-6.13 2.8,-11.05 5.7,4.13 12.86,6.79 22.84,6.44 -4.56,5.35 -9.22,9.47 -13.16,11.83 -3.32,-2.63 -8.6,-5.45 -12.48,-7.22 z"
   id="path59"
   inkscape:connector-curvature="0"
   style="fill:#c46232" />
		<path
   d="m 226.84,165.93 c 3.38,-0.89 6.99,-1.61 10.8,-2.04 -23.53,62.26 -57.72,77.98 -64.53,79.78 -7.56,2 -20.44,4.66 -62.53,-2.98 0.56,-6.25 0.89,-10.18 0.89,-10.18 24.27,7.32 47.85,6.35 58.37,1.97 9.56,-3.05 23.02,-14.13 35.5,-31.07 10.69,-13.12 17.31,-25.79 21.5,-35.48 z"
   id="path61"
   inkscape:connector-curvature="0"
   style="fill:#ca6433" />
		<path
   d="m 197.48,73.15 h -0.01 c -2.8,-12.97 -14.73,-26.41 -19.92,-28.4 0,0 -20.55,19.75 -23.55,48.89 0,0 -1.75,0 -8.87,0 0,-10.11 9.88,-45.29 32.17,-57.3 10.49,7.83 17.58,21.99 20.18,36.81 z"
   id="path63"
   inkscape:connector-curvature="0"
   style="fill:#d66e3b" />
		<path
   d="m 96.16,111.62 c 0,0 0,0 -4.41,2.63 C 80,102.5 61.25,92.5 39,92.5 c 0,0 -5.16,5.24 -5.17,10.52 -0.51,-4.91 -0.31,-9.71 0.71,-14.18 24.74,-5.3 55.03,15.07 61.62,22.78 z"
   id="path65"
   inkscape:connector-curvature="0"
   style="fill:#d66e3b" />
	</g>
	<path
   d="m 166.59,184.329 c 0.921,2.755 -5.471,11.335 -8.25,14.881 -0.016,0.02 -0.032,0.04 -0.047,0.059 -0.795,0.96 -2.302,1.291 -3.361,1.078 -4.518,-0.937 -14.653,-3.314 -15.719,-5.971 -1.377,-3.432 0.59,-9.753 10.65,-13.303 9.969,-3.802 15.558,-0.251 16.727,3.256 z m -55.877,-1.213 c -2.617,2.22 -2.939,6.144 -0.72,8.761 2.22,2.617 6.144,2.936 8.761,0.716 2.617,-2.22 2.94,-6.14 0.72,-8.757 -2.224,-2.617 -6.143,-2.94 -8.761,-0.72 z m 64.11,-19.596 c 0,3.432 2.783,6.215 6.214,6.215 3.433,0 6.215,-2.783 6.215,-6.215 0,-3.432 -2.782,-6.215 -6.215,-6.215 -3.431,0 -6.214,2.783 -6.214,6.215 z"
   id="path67"
   inkscape:connector-curvature="0"
   style="fill:#5f5f5f" />
	<g
   id="g69">
		<g
   id="XMLID_1_">
			<path
   d="m 120.14,190.9 c -0.35,0.63 -0.81,1.2 -1.39,1.69 -2.61,2.22 -6.54,1.9 -8.76,-0.71 -0.75,-0.89 -1.21,-1.91 -1.38,-2.98 2.5,2.49 7.43,4.5 11.53,2 z"
   id="path72"
   inkscape:connector-curvature="0"
   style="fill:#5a5b5b" />
			<path
   d="m 143.06,197.02 c 4.33,1.48 14.6,1.91 18.17,-1.66 -1.08,1.51 -2.12,2.87 -2.89,3.85 -0.02,0.02 -0.03,0.04 -0.05,0.06 -0.79,0.96 -2.3,1.29 -3.36,1.08 -2.93,-0.61 -8.22,-1.83 -11.87,-3.33 z"
   id="path74"
   inkscape:connector-curvature="0"
   style="fill:#5a5b5b" />
			<path
   d="m 186.71,166.04 c -0.96,2.17 -3.14,3.69 -5.67,3.69 -3.05,0 -5.6,-2.2 -6.11,-5.11 2.22,2.23 7.37,4.72 11.78,1.42 z"
   id="path76"
   inkscape:connector-curvature="0"
   style="fill:#5a5b5b" />
			<path
   d="m 110.71,183.12 c 2.62,-2.22 6.54,-1.9 8.76,0.72 0.65,0.77 1.09,1.66 1.3,2.58 -1.72,-3.55 -9.5,-3.45 -11.5,-1.51 0.35,-0.67 0.83,-1.27 1.44,-1.79 z"
   id="path78"
   inkscape:connector-curvature="0"
   style="fill:#636464" />
			<path
   d="m 166.59,184.33 c 0.41,1.22 -0.62,3.58 -2.13,6.14 1.21,-5.03 -4.58,-7.59 -10.84,-6.97 -6.24,0.62 -13.87,5.14 -14.79,8.55 0.09,-3.49 2.96,-8.13 11.03,-10.98 9.97,-3.8 15.56,-0.25 16.73,3.26 z"
   id="path80"
   inkscape:connector-curvature="0"
   style="fill:#636464" />
			<path
   d="m 181.04,157.31 c 3.25,0 5.91,2.49 6.18,5.67 -1.78,-4.74 -8.48,-5.23 -11.54,-2.6 1.07,-1.84 3.07,-3.07 5.36,-3.07 z"
   id="path82"
   inkscape:connector-curvature="0"
   style="fill:#636464" />
		</g>
	</g>
	<path
   d="m 118.336,185.162 c 0,0.868 -0.703,1.571 -1.571,1.571 -0.868,0 -1.571,-0.703 -1.571,-1.571 0,-0.868 0.703,-1.571 1.571,-1.571 0.868,0 1.571,0.703 1.571,1.571 z m 64.636,-25.868 c -0.867,0 -1.571,0.703 -1.571,1.571 0,0.867 0.704,1.57 1.571,1.57 0.868,0 1.571,-0.703 1.571,-1.57 0,-0.867 -0.703,-1.571 -1.571,-1.571 z"
   id="path84"
   inkscape:connector-curvature="0"
   style="fill:#ffffff" />
</g>
</svg>