<?xml version="1.0" encoding="utf-8"?>
<!-- Generator: Adobe Illustrator 14.0.0, SVG Export Plug-In . SVG Version: 6.00 Build 43363)  -->
<!DOCTYPE svg PUBLIC "-//W3C//DTD SVG 1.1//EN" "http://www.w3.org/Graphics/SVG/1.1/DTD/svg11.dtd">
<svg version="1.1" id="Layer_1" xmlns="http://www.w3.org/2000/svg" xmlns:xlink="http://www.w3.org/1999/xlink" x="0px" y="0px"
	 width="882px" height="357px" viewBox="0 0 882 357" enable-background="new 0 0 882 357" xml:space="preserve">
<g>
	<path fill="#656662" d="M242.117,178.319c-1.201-7.813-12.124-11.508-23.601-12.255c-2.645-0.182-5.31-0.192-7.894-0.061v-0.01
		c-2.938,0-7.49-6.42-6.167-12.093c0-0.01,0-0.02,0.01-0.03c0.051-0.232,0.111-0.464,0.192-0.697
		c1.211-4.522,1.857-9.256,1.857-14.142c0-31.889-27.538-57.751-61.516-57.751c-22.138,0-41.56,10.993-52.391,27.477
		c-2.109,3.917-4.765,8.712-6.874,14.758c-2.625,7.47-4.412,16.848-3.291,28.86c2.009,21.562-1.817,39.117-2.009,39.985
		c0,0.01,0,0.01,0,0.01c-6.208,7.298-9.842,15.495-6.067,21.31c2.503,3.836,6.511,5.896,11.074,5.905
		c-0.343,4.432-1.04,9.146-1.958,14.193c-3.059,16.817,3.039,40.025,3.039,40.025c8.187,0.878,22.945,2.039,33.383,1.857
		c0.071,0.01,0.151,0.01,0.222,0c19.593-0.061,49.433-0.818,60.466-1.857v-0.081c5.875-0.242,13.607-2.231,18.614,0.081
		c8.076,3.715,18.302-0.323,13.355-15.465c-4.946-15.142-0.061-41.216,5.825-47.111c2.241-2.241,3.321-8.833,3.583-16.333
		C235.333,195.469,243.541,187.555,242.117,178.319z"/>
	<g>
		<g id="XMLID_1_">
			<path fill="#61635F" d="M80.42,192.39c4.72,8.01,5.83,16.84,5.02,27.19c-1.76,0-3.44-0.31-4.99-0.91v-0.01
				c2.44-6.99,0.55-17.33-2.42-23.22l-0.01-0.01C78.76,194.41,79.56,193.39,80.42,192.39z"/>
			<path fill="#61635F" d="M238.23,172.02l0.42,17.25c-3.14,3.31-8.19,5.49-14.59,5.64l-0.78-28.36
				C229.26,167.41,234.72,169.17,238.23,172.02z"/>
			<path fill="#5D5F5B" d="M223.28,166.55l0.78,28.36c-0.68,0.02-1.38,0.01-2.09-0.02c0.43-11.89-1.19-26.08-3.45-28.83
				C220.13,166.17,221.72,166.33,223.28,166.55z"/>
			<path fill="#5D5F5B" d="M172.96,270.81c1.15,2.54,4.05,3.05,7.63,2.91v0.08c-3.42,0.32-8.65,0.62-14.81,0.87
				c-8.93-15.52-2.43-62.75,0.19-72.83c-11.92,2.36-27.16,1.63-37.62-0.98C126,213.75,130.5,227.25,133,238
				c2.04,8.75,8.71,26.95,4.64,37.46c-6.21,0.12-12.24,0.18-17.52,0.2c5.71-0.12,10.09-0.65,11.3-1.86
				c3.43-3.43-2.54-20.51-6.58-35.32c-3.91-14.31-3.86-39.02-3.85-45.65c15.36,3.46,37.19,5.48,53.57,0.43
				C169.52,216.82,167.28,260.82,172.96,270.81z"/>
			<path fill="#61635F" d="M165.97,201.84c-2.62,10.08-9.12,57.31-0.19,72.83c-8.37,0.35-18.47,0.63-28.14,0.79
				c4.07-10.51-2.6-28.71-4.64-37.46c-2.5-10.75-7-24.25-4.65-37.14C138.81,203.47,154.05,204.2,165.97,201.84z"/>
			<path fill="#61635F" d="M178.7,180.42c-1.12,1.9-2.19,4.92-3.18,8.76c-0.33,1.27-0.65,2.64-0.96,4.08
				c-16.38,5.05-38.21,3.03-53.57-0.43c0-0.22,0-0.43,0-0.61v-0.01c-0.01-2.34-2.48-5.29-5.81-8.71
				C122.98,190.73,163.8,195.32,178.7,180.42z"/>
			<path fill="#61635F" d="M117.79,125.66c10.29,0,18.63,8.34,18.63,18.62c0,10.29-8.34,21.71-18.63,21.71
				c-10.28,0-18.63-11.42-18.63-21.71C99.16,134,107.51,125.66,117.79,125.66z"/>
			<path fill="#61635F" d="M191.81,136.9c0,7.55-1.34,18.66-7.14,31.93c0.39-2.7,1.4-6.41,2.19-11.17
				c-3.76,6.12-9.84,10.67-16.7,10.67c-11.42,0-20.68-12.63-20.68-24.05c0-11.42,9.26-20.67,20.68-20.67
				c6.79,0,12.82,3.27,16.57,8.33c-0.01-0.01-0.01-0.03-0.01-0.04C183.39,113.6,163,98.67,145,98.67
				c-18.01,0-35.67,10.33-43.61,26.99c-7.95,16.65-2.39,33.67,0,42.67l-0.01,0.01c-0.23-0.34-0.45-0.69-0.66-1.03
				c-6.39-10.36-10.38-19.78-7.84-32.19c3.69-18.05,18.17-42,52.12-42C177.46,93.12,191.81,120.47,191.81,136.9z"/>
		</g>
	</g>
	<path fill="#282829" d="M178.703,180.418c10.912-18.372,13.103-33.857,13.103-43.518c0-16.434-14.344-43.78-46.808-43.78
		c-33.948,0-48.424,23.954-52.118,42.003c-2.544,12.406,1.454,21.824,7.843,32.182c6.4,10.357,20.25,19.351,20.27,24.903v0.01
		c0,5.552-0.192,31.465,3.846,46.264c4.038,14.809,10.014,31.889,6.582,35.321c-1.211,1.211-5.593,1.736-11.296,1.857
		c-0.071,0.01-0.151,0.01-0.222,0c-10.438,0.182-25.196-0.979-33.383-1.857c0,0-6.097-23.208-3.039-40.025
		c0.919-5.047,1.615-9.762,1.958-14.193c0.808-10.357-0.303-19.189-5.017-27.194c0,0,0-0.01,0.01-0.021c0,0,0,0,0-0.01
		c0.192-0.868,4.018-18.423,2.009-39.985c-1.121-12.012,0.666-21.39,3.291-28.86c2.109-6.046,4.765-10.841,6.874-14.758
		c10.832-16.484,30.253-27.477,52.391-27.477c33.978,0,61.516,25.862,61.516,57.751c0,4.886-0.646,9.62-1.857,14.142
		c-0.081,0.232-0.141,0.464-0.192,0.697c-0.01,0.01-0.01,0.02-0.01,0.03c-1.323,5.673,3.23,12.093,6.167,12.093v0.01
		c2.584-0.131,5.249-0.121,7.894,0.061c2.261,2.746,3.886,16.938,3.452,28.83c-0.262,7.5-1.342,14.092-3.583,16.333
		c-5.885,5.895-10.771,31.969-5.825,47.111c4.947,15.142-5.279,19.18-13.355,15.465c-5.007-2.312-12.739-0.323-18.614-0.081
		c-3.583,0.142-6.481-0.374-7.631-2.917c-6.026-10.6-3.14-59.487,2.564-81.625C176.513,185.344,177.583,182.316,178.703,180.418z"/>
	<g>
		<g id="XMLID_3_">
			<path fill="#2E2E2F" d="M145,81.28c21.68,0,40.74,10.53,51.69,26.44c-43.61-37.57-86.01-13.73-102.02-1.89
				C105.8,90.98,124.2,81.28,145,81.28z"/>
			<path fill="#2E2E2F" d="M218.52,166.06c1.03,1.26,1.93,4.9,2.56,9.63c-1.69-8.14-8.86-2.15-16.86-6.86
				c-8.78-5.18,1.29-34.16,1.29-40.22c0.66,3.38,1,6.86,1,10.42c0,4.89-0.64,9.62-1.85,14.14c-0.08,0.24-0.14,0.47-0.2,0.7
				c-0.01,0.01-0.01,0.02-0.01,0.03c-1.32,5.67,3.23,12.09,6.17,12.09V166C213.21,165.87,215.87,165.88,218.52,166.06z"/>
			<path fill="#222223" d="M99.49,188.1c4.51,7.9,9.43,21.57,6.14,38.57c-3.18,16.36,4.48,46.62,5.05,48.87
				c-3.83-0.13-7.78-0.36-11.53-0.62l0.01-0.18c1.51-8.07-2.83-20.82,0-35.45C102,224.67,103.46,197.18,99.49,188.1z"/>
			<path fill="#252526" d="M119.26,270.17c5.16-0.55,9.97-2.31,12.67-5.02c0.74,4.22,0.76,7.38-0.51,8.65
				c-1.21,1.21-5.59,1.74-11.3,1.86c-0.07,0.01-0.15,0.01-0.22,0c-2.83,0.05-5.98,0-9.22-0.12c-0.57-2.25-8.23-32.51-5.05-48.87
				c3.29-17-1.63-30.67-6.14-38.57c3.97,9.08,2.51,36.57-0.33,51.19c-2.83,14.63,1.51,27.38,0,35.45l-0.01,0.18
				c-4.81-0.35-9.27-0.76-12.63-1.12c0,0-1.12-4.27-2.16-10.47c1.09,1.09,4.32,2.48,8.66,3.75c-4.27-22.83,6.23-48.33,2.23-60.83
				s3.16-24.5-1.17-35.75c10.46,10.46,19.87,29,16.64,41.5C107.5,224.49,114.99,265.85,119.26,270.17z"/>
			<path fill="#252526" d="M205.85,265.66c4.09-0.95,7-2.38,7.52-4.33h0.01c2.72,12.67-6.66,15.93-14.17,12.47
				c-5.01-2.31-12.74-0.32-18.62-0.08c-3.58,0.14-6.48-0.37-7.63-2.91c-0.94-1.65-1.66-4.22-2.19-7.48h0.01
				c1.63,1.63,6.11,2.76,11.61,3.33c-3.16-12.09-3.84-41.32,0.11-55.16c5.25,9.49,6.54,49.84,9.57,55.57
				c1.8-0.01,3.59-0.08,5.33-0.21v-0.01c-7.34-19.39-5.65-42.85-2.15-53.35s3.5-30.25,3.25-46.5c12,17.25,7.75,43,5.72,55.5
				C202.19,235,202.5,252.25,205.85,265.66z"/>
		</g>
	</g>
	<g>
		<g>
			<path fill="#C8C398" d="M170.158,128.606c-8.656,0-15.678,7.019-15.678,15.678c0,8.655,7.022,15.677,15.678,15.677
				s15.678-7.022,15.678-15.677C185.836,135.625,178.814,128.606,170.158,128.606z"/>
			<path fill="#C8C398" d="M117.791,130.657c-7.524,0-13.627,6.102-13.627,13.627c0,7.521,6.103,13.625,13.627,13.625
				c7.524,0,13.626-6.104,13.626-13.625C131.417,136.759,125.315,130.657,117.791,130.657z"/>
		</g>
		<g>
			<path d="M167.367,150.696c-2.362,0-4.275-1.915-4.275-4.274c0-2.364,1.913-4.275,4.275-4.275c2.362,0,4.274,1.912,4.274,4.275
				C171.642,148.781,169.729,150.696,167.367,150.696z"/>
			<path d="M115,142.146c2.362,0,4.274,1.912,4.274,4.275c0,2.36-1.913,4.274-4.274,4.274s-4.275-1.915-4.275-4.274
				C110.724,144.058,112.638,142.146,115,142.146z"/>
		</g>
	</g>
	<g>
		<path fill="#917555" d="M225.78,119.37v29.6v6.34v113.45h0.02c0,2.79,2.26,5.04,5.03,5.04c2.79,0,5.04-2.25,5.04-5.04h0.01V150.7
			v-7.77c15.27-5.55,38.81-3.1,52.16,10.24C278.62,118.66,252.37,112.98,225.78,119.37z"/>
		<path fill="#8D7253" d="M235.88,263.33v5.43h-0.01c0,2.79-2.25,5.04-5.04,5.04c-2.77,0-5.03-2.25-5.03-5.04h-0.02v-5.43
			C228.39,265.94,232.99,266.22,235.88,263.33z M225.78,119.37v29.6v6.34c3.94-3.93,10.1-4.61,10.1-4.61v-7.77
			c15.27-5.55,38.81-3.1,52.16,10.24C278.62,118.66,252.37,112.98,225.78,119.37z"/>
		<path fill="#B7C2C2" d="M285.62,145.83c-10.97-27.96-35.26-32.37-59.84-26.46v6.29v13.67v9.64c2.55-2.54,6.03-4.58,10.1-6.04
			c10.49-3.81,24.88-3.85,37.19,0.82c0.01,0.01,0.02,0.01,0.03,0.02c5.6,2.12,10.77,5.23,14.94,9.4
			C287.33,150.56,286.52,148.12,285.62,145.83z"/>
		<path fill="#B2BDBD" d="M273.07,143.75c-12.31-4.67-26.7-4.63-37.19-0.82c-4.07,1.46-7.55,3.5-10.1,6.04v-9.64
			C236.66,133.67,260.75,136.74,273.07,143.75z"/>
		<path fill="#C0CBCB" d="M225.78,119.37c24.58-5.91,48.87-1.5,59.84,26.46c-10.72-19.18-43.3-28.73-59.84-20.17V119.37z"/>
	</g>
	
		<line fill="none" stroke="#454744" stroke-width="3" stroke-linecap="round" stroke-linejoin="round" x1="122.065" y1="165.911" x2="164.715" y2="165.911"/>
</g>
</svg>
