<?xml version="1.0" encoding="UTF-8" standalone="no"?>
<!-- Generator: Adobe Illustrator 14.0.0, SVG Export Plug-In . SVG Version: 6.00 Build 43363)  -->

<svg
   xmlns:dc="http://purl.org/dc/elements/1.1/"
   xmlns:cc="http://creativecommons.org/ns#"
   xmlns:rdf="http://www.w3.org/1999/02/22-rdf-syntax-ns#"
   xmlns:svg="http://www.w3.org/2000/svg"
   xmlns="http://www.w3.org/2000/svg"
   xmlns:sodipodi="http://sodipodi.sourceforge.net/DTD/sodipodi-0.dtd"
   xmlns:inkscape="http://www.inkscape.org/namespaces/inkscape"
   version="1.1"
   id="Layer_2"
   x="0px"
   y="0px"
   viewBox="0 0 173.86906 291.00225"
   enable-background="new 0 0 828 828"
   xml:space="preserve"
   inkscape:version="0.48.2 r9819"
   width="100%"
   height="100%"
   sodipodi:docname="hat_owl.svg"><metadata
   id="metadata115"><rdf:RDF><cc:Work
       rdf:about=""><dc:format>image/svg+xml</dc:format><dc:type
         rdf:resource="http://purl.org/dc/dcmitype/StillImage" /></cc:Work></rdf:RDF></metadata><defs
   id="defs113" /><sodipodi:namedview
   pagecolor="#ffffff"
   bordercolor="#666666"
   borderopacity="1"
   objecttolerance="10"
   gridtolerance="10"
   guidetolerance="10"
   inkscape:pageopacity="0"
   inkscape:pageshadow="2"
   inkscape:window-width="640"
   inkscape:window-height="480"
   id="namedview111"
   showgrid="false"
   fit-margin-top="0"
   fit-margin-left="0"
   fit-margin-right="0"
   fit-margin-bottom="0"
   inkscape:zoom="0.28502415"
   inkscape:cx="284.93453"
   inkscape:cy="145.50225"
   inkscape:window-x="0"
   inkscape:window-y="0"
   inkscape:window-maximized="0"
   inkscape:current-layer="Layer_2" />
<path
   display="none"
   d="m -378.30347,-32.972 c 1.843,0 1.949,12.287 1.545,31.947 -0.453,22.05 -1.545,53.374 -1.545,87.039 0,3.217 0.044,6.581 0.1,10.066 -8.58,8.581 -36.489,17.217 -65.48,20.445 -7.665,0.861 -15.408,1.341 -22.882,1.341 -7.474,0 -15.217,-0.48 -22.881,-1.341 -28.993,-3.229 -56.901,-11.865 -65.481,-20.445 0.056,-3.485 0.1,-6.849 0.1,-10.066 0,-34.68 -1.16,-66.875 -1.584,-89.007 -0.355,-18.509 -0.196,-29.979 1.584,-29.979 3.911,0 10.055,3.352 20.669,20.11 10.614,16.759 31.841,14.524 67.593,14.524 35.752,0 56.979,2.235 67.593,-14.524 10.614,-16.758 16.759,-20.11 20.669,-20.11 z"
   id="path3"
   inkscape:connector-curvature="0"
   style="fill:#dbcb89;display:none" />
<path
   display="none"
   d="m -376.70647,272.997 c 0.338,-18.117 0.162,-29.313 -1.597,-29.313 -3.911,0 -10.055,3.352 -20.669,20.11 -10.614,16.758 -31.841,14.524 -67.593,14.524 -35.752,0 -56.979,2.234 -67.593,-14.524 -10.614,-16.758 -16.758,-20.11 -20.669,-20.11 -1.886,0 -1.953,12.87 -1.516,33.342 0.469,21.966 1.516,52.683 1.516,85.645 0,3.218 -0.044,6.58 -0.1,10.065 -0.226,12.504 -0.739,26.614 -0.738,41.265 0.002,24.462 1.437,50.428 8.033,72.929 10.155,34.725 32.612,61.203 81.067,61.203 48.455,0 70.911,-26.479 81.079,-61.203 6.904,-23.577 8.146,-50.958 8.013,-76.428 -0.07,-13.395 -0.521,-26.26 -0.729,-37.766 -0.056,-3.485 -0.1,-6.848 -0.1,-10.065 -10e-4,-35.03 1.182,-67.525 1.596,-89.674 z"
   id="path5"
   inkscape:connector-curvature="0"
   style="fill:#bc9345;display:none" />
<path
   display="none"
   d="m -177.38947,267.5 c -0.01,-6.277 -0.235,-12.198 -0.546,-17.546 -0.107,-1.757 -0.213,-3.447 -0.33,-5.069 -2.913,-40.865 -9.226,-103.017 -21.365,-103.017 -12.139,0 -12.625,30.59 -20.394,33.504 -7.769,2.913 -36.874,5.72 -46.614,5.826 -27.677,0.282 -52.684,2.671 -55.354,0 -2.671,-2.67 -22.336,-28.162 -28.648,-28.162 -3.6,0 -6.41,15.001 -6.72,37.799 -0.233,17.18 0.953,38.788 4.292,61.741 0.106,0.71 0.204,1.418 0.31,2.127 h 0.01 c 7.593,51.084 24.449,122.157 92.018,122.54 2.95,0.017 5.997,-0.102 9.145,-0.362 63.972,-5.296 74.264,-65.881 74.196,-109.381 z"
   id="path7"
   inkscape:connector-curvature="0"
   style="fill:#dbcb89;display:none" />
<path
   display="none"
   d="m -595.28447,577.094 c -0.092,-13.709 -1.934,-27.902 -3.872,-29.84 -4.227,-2.645 -8.629,-4.898 -13.3,-6.8 -10.52,-34.059 -31.436,-47.028 -49.665,-51.885 3.214,-4.6 5.095,-10.189 5.095,-16.235 0,-15.696 -12.721,-28.418 -28.418,-28.418 -15.697,0 -28.418,12.722 -28.418,28.418 0,6.046 1.88,11.636 5.095,16.235 -18.229,4.846 -39.134,17.826 -49.665,51.885 -4.671,1.901 -9.073,4.155 -13.3,6.8 -1.828,1.828 -3.426,14.925 -3.542,28.251 -0.13,14.924 1.598,30.136 6.942,30.136 h 0.514 c 0,0 -0.4,8.764 -0.514,14.467 -0.94,47.381 5.198,92.055 14.685,105.405 13.951,19.635 41.335,19.118 68.203,19.118 26.868,0 54.253,0.517 68.204,-19.118 9.486,-13.351 15.625,-58.024 14.684,-105.405 -0.113,-5.703 -0.591,-15.91 -0.591,-15.91 0,0 0.905,-0.17 1.24,-0.17 5.059,-10e-4 6.715,-13.225 6.623,-26.934 z"
   id="path9"
   inkscape:connector-curvature="0"
   style="fill:#dbcb89;display:none" />
<path
   display="none"
   d="m -595.28247,250.499 c -0.065,-13.809 -1.921,-28.212 -3.874,-30.165 -4.227,-2.645 -8.629,-4.898 -13.3,-6.8 -10.52,-34.06 -31.436,-47.028 -49.665,-51.886 3.214,-4.599 5.095,-10.188 5.095,-16.234 0,-15.697 -12.721,-28.418 -28.418,-28.418 -15.697,0 -28.418,12.721 -28.418,28.418 0,6.046 1.88,11.636 5.095,16.234 -18.229,4.846 -39.134,17.826 -49.665,51.886 -4.671,1.901 -9.073,4.155 -13.3,6.8 -1.916,1.916 -3.579,16.205 -3.549,30.166 0.031,14.282 1.833,28.221 6.949,28.221 h 0.514 l 0.147,-2.697 c 2.531,-8.712 8.38,-14.57 16.048,-18.487 5.425,-2.79 11.77,-4.608 18.508,-5.787 4.805,-0.837 9.807,-1.354 14.809,-1.653 6.355,-0.393 12.721,-0.454 18.683,-0.424 5.095,0.021 9.9,0.114 14.178,0.114 4.278,0 9.083,-0.093 14.178,-0.114 5.963,-0.03 12.328,0.031 18.683,0.424 5.002,0.3 10.003,0.816 14.809,1.653 6.738,1.179 13.083,2.997 18.508,5.787 7.667,3.917 13.517,9.775 16.048,18.487 l 0.071,1.254 c 0,0 0.905,-0.169 1.24,-0.169 5.02,-10e-4 6.69,-13.017 6.626,-26.61 z"
   id="path11"
   inkscape:connector-curvature="0"
   style="fill:#9cd6c4;display:none" />
<path
   display="none"
   d="m -595.28447,57.23 c -0.092,-13.709 -1.934,-27.902 -3.872,-29.84 -4.227,-2.646 -8.629,-4.898 -13.3,-6.8 -18.177,-7.451 -40.519,-9.734 -72.988,-9.734 -32.469,0 -54.811,2.284 -72.988,9.734 -4.671,1.901 -9.073,4.154 -13.3,6.8 -1.97,1.971 -3.673,17.032 -3.542,31.362 0.127,13.854 1.969,27.024 6.942,27.024 h 0.514 l 0.147,-2.697 c 2.531,-8.711 8.38,-14.57 16.048,-18.487 -0.031,0.506 -0.042,1.013 -0.042,1.529 0,14.839 12.029,26.868 26.868,26.868 14.839,0 26.868,-12.029 26.868,-26.868 0,-3.307 -0.599,-6.469 -1.695,-9.394 5.095,0.021 9.9,0.114 14.178,0.114 4.278,0 9.083,-0.093 14.178,-0.114 -1.095,2.925 -1.695,6.086 -1.695,9.394 0,14.839 12.029,26.868 26.868,26.868 14.839,0 26.868,-12.029 26.868,-26.868 0,-0.517 -0.01,-1.023 -0.041,-1.529 7.667,3.917 13.517,9.775 16.048,18.487 l 0.071,1.254 c 0,0 0.905,-0.169 1.24,-0.169 5.061,0 6.717,-13.225 6.625,-26.934 z"
   id="path13"
   inkscape:connector-curvature="0"
   style="fill:#e5e3c0;display:none" />
<path
   display="none"
   d="m -595.28447,-28.495 c -0.092,-13.709 -1.934,-27.902 -3.872,-29.84 -4.227,-2.646 -8.629,-4.899 -13.3,-6.8 -18.177,-7.451 -40.519,-9.734 -72.988,-9.734 -32.469,0 -54.811,2.284 -72.988,9.734 -4.671,1.901 -9.073,4.154 -13.3,6.8 -1.935,1.935 -3.612,16.493 -3.547,30.586 0.065,14.133 1.882,27.799 6.947,27.799 h 0.514 l 0.147,-2.697 c 2.531,-8.711 8.38,-14.57 16.048,-18.487 5.425,-2.791 11.77,-4.609 18.508,-5.787 -1.715,1.953 -2.759,4.516 -2.759,7.316 0,6.118 4.96,11.078 11.078,11.078 6.117,0 11.078,-4.96 11.078,-11.078 0,-3.7 -1.809,-6.965 -4.588,-8.97 6.355,-0.392 12.721,-0.454 18.683,-0.423 5.095,0.021 9.9,0.113 14.178,0.113 4.278,0 9.083,-0.093 14.178,-0.113 5.963,-0.031 12.328,0.031 18.683,0.423 -2.78,2.005 -4.588,5.271 -4.588,8.97 0,6.118 4.96,11.078 11.078,11.078 6.118,0 11.078,-4.96 11.078,-11.078 0,-2.8 -1.043,-5.363 -2.759,-7.316 6.738,1.178 13.083,2.997 18.508,5.787 7.667,3.917 13.517,9.776 16.048,18.487 l 0.071,1.254 c 0,0 0.905,-0.169 1.24,-0.169 5.06,0 6.716,-13.224 6.624,-26.933 z"
   id="path15"
   inkscape:connector-curvature="0"
   style="fill:#5b5221;display:none" />
<path
   display="none"
   d="m -669.75047,-109.523 c -5.125,7.368 -13.661,12.184 -23.323,12.184 -9.662,0 -18.198,-4.816 -23.323,-12.184 -3.214,-4.599 -5.095,-10.189 -5.095,-16.234 0,-15.697 12.721,-28.418 28.418,-28.418 15.697,0 28.418,12.721 28.418,28.418 0.001,6.045 -1.88,11.635 -5.095,16.234 z m 74.467,-52.726 c -0.078,-13.764 -1.927,-28.072 -3.873,-30.019 -4.227,-2.646 -8.629,-4.898 -13.3,-6.799 -18.177,-7.451 -40.519,-9.735 -72.988,-9.735 -32.469,0 -54.811,2.284 -72.988,9.735 -4.671,1.901 -9.073,4.154 -13.3,6.799 -1.938,1.938 -3.617,16.535 -3.547,30.646 0.07,14.111 1.889,27.74 6.947,27.74 h 0.514 l 0.147,-2.697 c 2.531,-8.711 8.38,-14.57 16.048,-18.487 5.425,-2.791 11.77,-4.609 18.508,-5.787 4.805,-0.837 9.807,-1.354 14.809,-1.654 6.355,-0.393 12.721,-0.455 18.683,-0.423 5.095,0.021 9.9,0.114 14.178,0.114 4.278,0 9.083,-0.093 14.178,-0.114 5.963,-0.031 12.328,0.031 18.683,0.423 5.002,0.3 10.003,0.816 14.809,1.654 6.738,1.178 13.083,2.997 18.508,5.787 7.667,3.917 13.517,9.776 16.048,18.487 l 0.071,1.254 c 0,0 0.905,-0.169 1.24,-0.169 5.038,0.001 6.702,-13.11 6.625,-26.755 z"
   id="path17"
   inkscape:connector-curvature="0"
   style="fill:#7fbb7e;display:none" />
<path
   display="none"
   d="m -742.64247,-250.87 c 0.21,0.635 -0.008,1.331 -0.545,1.731 l -14.809,11.026 c -0.549,0.408 -1.304,0.408 -1.853,0 l -14.808,-11.026 c -0.39,-0.291 -0.612,-0.737 -0.624,-1.204 -0.004,-0.176 0.021,-0.354 0.079,-0.527 0.209,-0.636 0.801,-1.063 1.471,-1.063 h 29.617 c 0.671,0.001 1.262,0.428 1.472,1.063 z m 147.362,-1.062 h -0.007 v 0.007 h 0.007 v -0.007 z"
   id="path19"
   inkscape:connector-curvature="0"
   style="fill:#e95846;display:none" />
<path
   display="none"
   d="m -609.41047,300.596 c 0.108,5.434 0.123,10.831 0.05,16.15 -0.562,41.063 -6.335,77.435 -14.734,89.254 -13.951,19.635 -41.335,19.118 -68.203,19.118 -26.868,0 -54.253,0.517 -68.204,-19.118 -8.364,-11.771 -14.125,-47.887 -14.727,-88.74 -0.081,-5.485 -0.069,-11.056 0.042,-16.664 12.163,8.257 49.303,18.084 82.888,18.084 33.585,0 70.725,-9.827 82.888,-18.084 z m 14.13,76.644 h -0.007 v 0.008 h 0.007 v -0.008 z"
   id="path21"
   inkscape:connector-curvature="0"
   style="fill:#d6a64f;display:none" />
<path
   display="none"
   d="m -525.44447,-171.61 c 0.277,0.584 0.192,1.279 -0.217,1.779 l -13.966,17.072 c -0.318,0.39 -0.794,0.614 -1.297,0.614 -0.503,0 -0.979,-0.225 -1.297,-0.614 l -13.966,-17.072 c -0.238,-0.291 -0.366,-0.648 -0.377,-1.011 -0.008,-0.26 0.045,-0.524 0.161,-0.768 0.277,-0.584 0.868,-0.958 1.514,-0.958 h 13.965 13.966 c 0.646,0 1.237,0.374 1.514,0.958 z m 148.879,8.042 h -0.007 v 0.007 h 0.007 v -0.007 z"
   id="path23"
   inkscape:connector-curvature="0"
   style="fill:#e95846;display:none" />
<path
   display="none"
   d="m -544.58747,-131.548 c 6.614,0 11.977,5.362 11.977,11.977 0,6.614 -5.363,11.977 -11.977,11.977 -6.614,0 -11.978,-5.363 -11.978,-11.977 0,-6.615 5.364,-11.977 11.978,-11.977 z m 21.288,11.976 c 0,6.614 5.364,11.977 11.978,11.977 6.614,0 11.977,-5.363 11.977,-11.977 0,-6.614 -5.362,-11.977 -11.977,-11.977 -6.615,0.001 -11.978,5.363 -11.978,11.977 z m 146.734,-0.003 h -0.007 v 0.007 h 0.007 v -0.007 z"
   id="path25"
   inkscape:connector-curvature="0"
   style="fill:#5b5221;display:none" />
<path
   display="none"
   d="m -527.51747,-100.358 c 16.044,0 29.048,13.004 29.048,29.048 0,16.043 -13.004,29.048 -29.048,29.048 -16.043,0 -29.048,-13.005 -29.048,-29.048 0,-16.044 13.005,-29.048 29.048,-29.048 z m 73.738,0 c 16.044,0 29.048,13.004 29.048,29.048 0,16.043 -13.004,29.048 -29.048,29.048 -16.043,0 -29.048,-13.005 -29.048,-29.048 0,-16.044 13.005,-29.048 29.048,-29.048 z m 77.214,23.93 h -0.007 v 0.007 h 0.007 v -0.007 z"
   id="path27"
   inkscape:connector-curvature="0"
   style="fill:#e1dfbd;display:none" />
<path
   display="none"
   d="m -396.48247,132.366 c -5.048,33.005 -10.018,77.642 -26.483,111.318 -22.03,-16.564 -47.496,-67.341 -41.511,-102.237 29.119,1.72 58.087,-2.074 67.994,-9.081 z m -160.083,0.244 c 5.632,32.911 11.39,77.453 28.46,110.831 21.722,-16.95 46.287,-68.168 39.685,-102.953 -29.086,2.233 -58.116,-1.047 -68.145,-7.878 z m 180,43.872 h -0.007 v 0.007 h 0.007 v -0.007 z"
   id="path29"
   inkscape:connector-curvature="0"
   style="fill:#d6a64f;display:none" />
<path
   display="none"
   d="m -327.52847,-96.719 -13.11,19.647 c -0.254,0.38 -0.674,0.62 -1.131,0.646 -0.456,0.025 -0.9,-0.167 -1.195,-0.517 l -14.082,-16.723 c -0.229,-0.273 -0.347,-0.614 -0.342,-0.958 0.002,-0.176 0.037,-0.353 0.105,-0.522 0.201,-0.501 0.66,-0.848 1.196,-0.906 l 27.191,-2.923 c 0.563,-0.061 1.108,0.208 1.402,0.693 0.293,0.484 0.28,1.092 -0.034,1.563 z m 150.14,9.011 h -0.007 v 0.007 h 0.007 v -0.007 z"
   id="path31"
   inkscape:connector-curvature="0"
   style="fill:#e95846;display:none" />
<path
   display="none"
   d="m -346.97747,-70.37 c 5.749,0 10.41,4.661 10.41,10.41 0,5.749 -4.661,10.411 -10.41,10.411 -5.749,0 -10.411,-4.662 -10.411,-10.411 0,-5.749 4.662,-10.41 10.411,-10.41 z m 18.504,10.41 c 0,5.749 4.662,10.411 10.411,10.411 5.749,0 10.411,-4.662 10.411,-10.411 0,-5.749 -4.662,-10.41 -10.411,-10.41 -5.749,0 -10.411,4.661 -10.411,10.41 z m 151.085,-0.003 h -0.007 v 0.007 h 0.007 v -0.007 z"
   id="path33"
   inkscape:connector-curvature="0"
   style="fill:#5b5221;display:none" />
<path
   display="none"
   d="m -332.13947,-38.831 c 13.945,0 25.249,11.303 25.249,25.249 0,13.945 -11.304,25.25 -25.249,25.25 -13.945,0 -25.25,-11.304 -25.25,-25.25 0.001,-13.945 11.305,-25.249 25.25,-25.249 z m 64.095,0 c 13.946,0 25.25,11.303 25.25,25.249 0,13.945 -11.304,25.25 -25.25,25.25 -13.945,0 -25.25,-11.304 -25.25,-25.25 0,-13.945 11.304,-25.249 25.25,-25.249 z m 90.656,25.246 h -0.007 v 0.007 h 0.007 v -0.007 z"
   id="path35"
   inkscape:connector-curvature="0"
   style="fill:#e1dfbd;display:none" />
<path
   display="none"
   d="m -177.93547,115.061 h -0.009 c -66.668,35.262 -137.726,26.9 -174.803,4.749 h -0.01 c -0.106,-0.709 -0.204,-1.417 -0.31,-2.127 -3.238,-22.264 -4.452,-43.263 -4.309,-60.183 0.2,-23.671 3.056,-39.358 6.737,-39.358 6.313,0 25.978,25.492 28.648,28.163 2.67,2.67 27.677,0.282 55.354,0 9.741,-0.106 38.845,-2.914 46.614,-5.827 7.769,-2.914 8.254,-33.504 20.394,-33.504 9.21,0 15.066,35.775 18.628,70.887 1.133,11.168 2.034,22.269 2.737,32.13 0.116,1.622 0.222,3.312 0.329,5.07 z m 0.547,-82.675 h -0.007 v 0.007 h 0.007 v -0.007 z"
   id="path37"
   inkscape:connector-curvature="0"
   style="fill:#e5aea9;display:none" />
<g
   id="g39"
   transform="translate(-129.06547,-268.5)">
	<path
   d="m 299.5,368.5 c -4.09,-2.56 -8.35,-4.74 -12.87,-6.58 -10.18,-32.96 -30.42,-45.51 -48.06,-50.21 3.11,-4.45 4.93,-9.86 4.93,-15.71 0,-15.19 -12.31,-27.5 -27.5,-27.5 -15.19,0 -27.5,12.31 -27.5,27.5 0,5.85 1.82,11.26 4.93,15.71 -17.64,4.69 -37.87,17.25 -48.06,50.21 -4.52,1.84 -8.78,4.02 -12.87,6.58 -3.75,3.75 -6.5,56.5 3.29,56.5 0.18,-0.9 0.39,-1.77 0.64,-2.61 -0.32,5.54 -0.53,11.091 -0.64,16.61 -0.91,45.85 5.03,89.08 14.21,102 13.5,19 40,18.5 66,18.5 26,0 52.5,0.5 66,-18.5 9.18,-12.92 15.12,-56.15 14.21,-102 -0.11,-5.52 -0.32,-11.07 -0.64,-16.61 0.25,0.841 0.46,1.71 0.64,2.61 9.79,0 7.04,-52.75 3.29,-56.5 z"
   id="path41"
   inkscape:connector-curvature="0"
   style="fill:#d6a64f" />
	<g
   id="g43">
		<path
   d="m 215.64,550.05 c -52.08,0 -66.19,-16.39 -74.46,-35.189 2.34,12.04 5.35,21.26 8.82,26.14 13.5,19 40,18.5 66,18.5 26,0 52.5,0.5 66,-18.5 3.47,-4.89 6.48,-14.1 8.83,-26.15 h -0.01 c -7.62,17.139 -23.08,35.199 -75.18,35.199 z"
   id="path45"
   inkscape:connector-curvature="0"
   style="fill:#d0a24d" />
		<path
   d="m 299.5,368.5 c -4.09,-2.56 -8.35,-4.74 -12.87,-6.58 -10.18,-32.96 -30.42,-45.51 -48.06,-50.21 3.11,-4.45 4.93,-9.86 4.93,-15.71 0,-15.19 -12.31,-27.5 -27.5,-27.5 -15.19,0 -27.5,12.31 -27.5,27.5 0,5.85 1.82,11.26 4.93,15.71 -17.64,4.69 -37.87,17.25 -48.06,50.21 -4.52,1.84 -8.78,4.02 -12.87,6.58 -3.75,3.75 -6.5,56.5 3.29,56.5 0.18,-0.9 0.39,-1.77 0.64,-2.61 -0.32,5.54 -0.53,11.091 -0.64,16.61 -0.03,1.78 -0.06,3.55 -0.07,5.32 23.08,23.08 106.81,31.71 159.85,1.39 h 0.72 c -0.01,-2.229 -0.04,-4.47 -0.08,-6.71 -0.11,-5.52 -0.32,-11.07 -0.64,-16.61 0.25,0.841 0.46,1.71 0.64,2.61 9.79,0 7.04,-52.75 3.29,-56.5 z"
   id="path47"
   inkscape:connector-curvature="0"
   style="fill:#d0a24d" />
	</g>
	<path
   d="m 295.57,422.39 c -2.45,-8.43 -8.11,-14.1 -15.53,-17.89 -5.25,-2.7 -11.39,-4.46 -17.91,-5.6 -4.65,-0.81 -9.49,-1.31 -14.33,-1.6 -6.15,-0.38 -12.31,-0.44 -18.08,-0.41 -4.93,0.02 -9.58,0.11 -13.72,0.11 -4.14,0 -8.79,-0.09 -13.72,-0.11 -5.77,-0.03 -11.93,0.03 -18.08,0.41 -4.84,0.29 -9.68,0.79 -14.33,1.6 -6.52,1.14 -12.66,2.9 -17.91,5.6 -7.42,3.79 -13.08,9.46 -15.53,17.89 -0.32,5.54 -0.53,11.091 -0.64,16.61 11.77,7.99 47.71,17.5 80.21,17.5 32.5,0 68.44,-9.51 80.21,-17.5 -0.11,-5.52 -0.32,-11.07 -0.64,-16.61 z"
   id="path49"
   inkscape:connector-curvature="0"
   style="fill:#dbcb89" />
	<path
   d="m 299.5,368.5 c -4.09,-2.56 -8.35,-4.74 -12.87,-6.58 -10.18,-32.96 -30.42,-45.51 -48.06,-50.21 3.11,-4.45 4.93,-9.86 4.93,-15.71 0,-15.19 -12.31,-27.5 -27.5,-27.5 -15.19,0 -27.5,12.31 -27.5,27.5 0,5.85 1.82,11.26 4.93,15.71 -17.64,4.69 -37.87,17.25 -48.06,50.21 -4.52,1.84 -8.78,4.02 -12.87,6.58 -3.75,3.75 -6.5,56.5 3.29,56.5 0.18,-0.9 0.39,-1.77 0.64,-2.61 2.45,-8.43 8.11,-14.1 15.53,-17.89 5.25,-2.7 11.39,-4.46 17.91,-5.6 4.65,-0.81 9.49,-1.31 14.33,-1.6 6.15,-0.38 12.31,-0.44 18.08,-0.41 4.93,0.02 9.58,0.11 13.72,0.11 4.14,0 8.79,-0.09 13.72,-0.11 5.77,-0.03 11.93,0.03 18.08,0.41 4.84,0.29 9.68,0.79 14.33,1.6 6.52,1.14 12.66,2.9 17.91,5.6 7.42,3.79 13.08,9.46 15.53,17.89 0.25,0.841 0.46,1.71 0.64,2.61 9.79,0 7.04,-52.75 3.29,-56.5 z"
   id="path51"
   inkscape:connector-curvature="0"
   style="fill:#9cd6c4" />
	<g
   id="g53">
		<g
   id="XMLID_5_">
			<path
   d="m 299.5,368.5 c 3.75,3.75 6.5,56.5 -3.29,56.5 -0.18,-0.9 -0.39,-1.77 -0.64,-2.61 -2.45,-8.43 -8.11,-14.1 -15.53,-17.89 -5.25,-2.7 -11.39,-4.46 -17.91,-5.6 -4.65,-0.81 -9.49,-1.31 -14.33,-1.6 -6.15,-0.38 -12.31,-0.44 -18.08,-0.41 -4.93,0.02 -9.58,0.11 -13.72,0.11 -4.14,0 -8.79,-0.09 -13.72,-0.11 -5.77,-0.03 -11.93,0.03 -18.08,0.41 -4.84,0.29 -9.68,0.79 -14.33,1.6 -6.52,1.14 -12.66,2.9 -17.91,5.6 -7.42,3.79 -13.08,9.46 -15.53,17.89 -0.25,0.841 -0.46,1.71 -0.64,2.61 -9.79,0 -7.04,-52.75 -3.29,-56.5 4.09,-2.56 8.35,-4.74 12.87,-6.58 0.52,-1.67 1.06,-3.28 1.62,-4.85 H 147 c 35.6,-9.77 84.09,-15 138,0 h 0.01 c 0.56,1.56 1.1,3.18 1.62,4.85 4.52,1.84 8.78,4.02 12.87,6.58 z"
   id="path56"
   inkscape:connector-curvature="0"
   style="fill:#94cbbb" />
			<path
   d="m 243.38,313.18 c 15.47,5.34 32.03,17.31 41.62,43.89 -53.91,-15 -102.4,-9.77 -138,0 9.57,-26.51 26.06,-38.5 41.5,-43.85 12.87,12.86 34.32,25.24 54.86,0 l 0.02,-0.04 z"
   id="path58"
   inkscape:connector-curvature="0"
   style="fill:#9cd6c4" />
			<path
   d="m 243.38,313.18 -0.02,0.04 c -20.54,25.24 -41.99,12.86 -54.86,0 1.66,-0.58 3.31,-1.08 4.93,-1.51 -3.11,-4.45 -4.93,-9.86 -4.93,-15.71 0,-15.19 12.31,-27.5 27.5,-27.5 15.19,0 27.5,12.31 27.5,27.5 0,5.85 -1.82,11.26 -4.93,15.71 1.58,0.42 3.19,0.91 4.81,1.47 z"
   id="path60"
   inkscape:connector-curvature="0"
   style="fill:#94cbbb" />
		</g>
	</g>
	<path
   d="m 238.57,311.71 c -4.96,7.13 -13.22,11.79 -22.57,11.79 -9.35,0 -17.61,-4.66 -22.57,-11.79 -3.11,-4.45 -4.93,-9.86 -4.93,-15.71 0,-15.19 12.31,-27.5 27.5,-27.5 15.19,0 27.5,12.31 27.5,27.5 0,5.85 -1.82,11.26 -4.93,15.71 z"
   id="path62"
   inkscape:connector-curvature="0"
   style="fill:#7fbb7e" />
	<g
   id="g64">
		<g
   id="XMLID_4_">
			<path
   d="m 243.06,300.89 c -0.7,3.97 -2.27,7.64 -4.49,10.82 -4.96,7.13 -13.22,11.79 -22.57,11.79 -9.35,0 -17.61,-4.66 -22.57,-11.79 -1.46,-2.1 -2.65,-4.41 -3.48,-6.88 12.55,12.55 37.56,20.34 53.11,-3.94 z"
   id="path67"
   inkscape:connector-curvature="0"
   style="fill:#79b278" />
			<path
   d="m 216,268.5 c 8.89,0 16.8,4.22 21.82,10.76 h -0.01 c -24.3,-13.23 -44.7,1.54 -47.85,7.89 3.68,-10.85 13.95,-18.65 26.04,-18.65 z"
   id="path69"
   inkscape:connector-curvature="0"
   style="fill:#8cc086" />
		</g>
	</g>
	<path
   d="m 286.63,361.92 c 4.52,1.84 8.78,4.02 12.87,6.58 3.75,3.75 6.5,56.5 -3.29,56.5 -0.18,-0.9 -0.39,-1.77 -0.64,-2.61 -2.45,-8.43 -8.11,-14.1 -15.53,-17.89 -5.25,-2.7 -11.39,-4.46 -17.91,-5.6 -4.65,-0.81 -9.49,-1.31 -14.33,-1.6 -6.15,-0.38 -12.31,-0.44 -18.08,-0.41 -4.93,0.02 -9.58,0.11 -13.72,0.11 -4.14,0 -8.79,-0.09 -13.72,-0.11 -5.77,-0.03 -11.93,0.03 -18.08,0.41 -4.84,0.29 -9.68,0.79 -14.33,1.6 -6.52,1.14 -12.66,2.9 -17.91,5.6 -7.42,3.79 -13.08,9.46 -15.53,17.89 -0.25,0.841 -0.46,1.71 -0.64,2.61 -9.79,0 -7.04,-52.75 -3.29,-56.5 4.09,-2.56 8.35,-4.74 12.87,-6.58 17.59,-7.21 39.21,-9.42 70.63,-9.42 31.42,0 53.04,2.21 70.63,9.42 z"
   id="path71"
   inkscape:connector-curvature="0"
   style="fill:#7fbb7e" />
	<g
   id="g73">
		<g
   id="XMLID_3_">
			<path
   d="m 299.5,368.5 c 0.96,0.96 1.86,5.16 2.49,10.87 -7.49,-7.49 -22.42,-19.85 -85.99,-19.85 -61.61,0 -84.67,13.75 -86.05,20.35 0.64,-5.96 1.56,-10.38 2.55,-11.37 4.09,-2.56 8.35,-4.74 12.87,-6.58 17.59,-7.21 39.21,-9.42 70.63,-9.42 31.42,0 53.04,2.21 70.63,9.42 4.52,1.84 8.78,4.02 12.87,6.58 z"
   id="path76"
   inkscape:connector-curvature="0"
   style="fill:#8cc086" />
			<path
   d="m 293.21,407 c 4.77,4.77 9.7,-2.26 9.72,-9.67 0,13.95 -1.73,27.67 -6.72,27.67 -0.18,-0.9 -0.39,-1.77 -0.64,-2.61 -2.45,-8.43 -8.11,-14.1 -15.53,-17.89 -5.25,-2.7 -11.39,-4.46 -17.91,-5.6 -4.65,-0.81 -9.49,-1.31 -14.33,-1.6 -6.15,-0.38 -12.31,-0.44 -18.08,-0.41 -4.93,0.02 -9.58,0.11 -13.72,0.11 -4.14,0 -8.79,-0.09 -13.72,-0.11 -5.77,-0.03 -11.93,0.03 -18.08,0.41 -4.84,0.29 -9.68,0.79 -14.33,1.6 -6.52,1.14 -12.66,2.9 -17.91,5.6 -7.42,3.79 -13.08,9.46 -15.53,17.89 -0.25,0.841 -0.46,1.71 -0.64,2.61 -4.88,0 -6.64,-13.12 -6.72,-26.75 0.16,5.08 5.21,13.44 9.9,8.75 4.72,-4.72 18.52,-16.34 76.96,-16.34 58.44,0 72.41,11.47 77.28,16.34 z"
   id="path78"
   inkscape:connector-curvature="0"
   style="fill:#79b278" />
		</g>
	</g>
	<path
   d="m 184.2,397.3 c -4.84,0.29 -9.68,0.79 -14.33,1.6 -6.52,1.14 -12.66,2.9 -17.91,5.6 -0.03,0.49 -0.04,0.98 -0.04,1.48 0,14.36 11.64,26 26,26 14.36,0 26,-11.641 26,-26 0,-3.2 -0.58,-6.26 -1.64,-9.09 -5.77,-0.03 -11.93,0.03 -18.08,0.41 z"
   id="path80"
   inkscape:connector-curvature="0"
   style="fill:#faf3e6" />
	<path
   d="m 280.04,404.5 c -5.25,-2.7 -11.39,-4.46 -17.91,-5.6 -4.65,-0.81 -9.49,-1.31 -14.33,-1.6 -6.15,-0.38 -12.31,-0.44 -18.08,-0.41 -1.06,2.83 -1.64,5.89 -1.64,9.09 0,14.36 11.64,26 26,26 14.36,0 26,-11.641 26,-26 0,-0.5 -0.01,-0.99 -0.04,-1.48 z"
   id="path82"
   inkscape:connector-curvature="0"
   style="fill:#faf3e6" />
	<path
   d="m 184.2,397.3 c 2.69,1.94 4.44,5.1 4.44,8.68 0,5.92 -4.8,10.72 -10.72,10.72 -5.92,0 -10.72,-4.8 -10.72,-10.72 0,-2.71 1.01,-5.19 2.67,-7.08 4.65,-0.81 9.49,-1.31 14.33,-1.6 z"
   id="path84"
   inkscape:connector-curvature="0"
   style="fill:#5b5221" />
	<path
   d="m 262.13,398.9 c 1.66,1.89 2.67,4.37 2.67,7.08 0,5.92 -4.8,10.72 -10.72,10.72 -5.92,0 -10.72,-4.8 -10.72,-10.72 0,-3.58 1.75,-6.74 4.44,-8.68 4.84,0.29 9.68,0.79 14.33,1.6 z"
   id="path86"
   inkscape:connector-curvature="0"
   style="fill:#5b5221" />
	<g
   id="g88">
		<g
   id="XMLID_1_">
			<path
   d="m 184.2,397.3 c 2.02,1.46 3.51,3.61 4.12,6.1 -8.44,0.63 -15.35,1.57 -21.12,2.78 0,-0.07 0,-0.13 0,-0.2 0,-2.71 1.01,-5.19 2.67,-7.08 4.65,-0.81 9.49,-1.31 14.33,-1.6 z"
   id="path91"
   inkscape:connector-curvature="0"
   style="fill:#554c1d" />
			<path
   d="m 262.13,398.9 c 1.66,1.89 2.67,4.37 2.67,7.08 0,0.08 0,0.16 0,0.24 -5.67,-1.26 -12.52,-2.23 -21.12,-2.85 0.62,-2.48 2.11,-4.62 4.12,-6.07 4.84,0.29 9.68,0.79 14.33,1.6 z"
   id="path93"
   inkscape:connector-curvature="0"
   style="fill:#554c1d" />
			<path
   d="m 169.87,398.9 c -1.66,1.89 -2.67,4.37 -2.67,7.08 0,0.07 0,0.13 0,0.2 -6.05,1.28 -10.84,2.85 -14.82,4.65 -0.3,-1.57 -0.46,-3.19 -0.46,-4.85 0,-0.5 0.01,-0.99 0.04,-1.48 5.25,-2.7 11.39,-4.46 17.91,-5.6 z"
   id="path95"
   inkscape:connector-curvature="0"
   style="fill:#efedc8" />
			<path
   d="m 202.28,396.89 c 0.69,1.84 1.17,3.77 1.42,5.77 -5.63,0.14 -10.74,0.39 -15.38,0.74 -0.61,-2.49 -2.1,-4.64 -4.12,-6.1 6.15,-0.38 12.31,-0.44 18.08,-0.41 z"
   id="path97"
   inkscape:connector-curvature="0"
   style="fill:#efedc8" />
			<path
   d="m 229.72,396.89 c 5.77,-0.03 11.93,0.03 18.08,0.41 -2.01,1.45 -3.5,3.59 -4.12,6.07 -4.6,-0.34 -9.7,-0.58 -15.38,-0.72 0.25,-2 0.73,-3.93 1.42,-5.76 z"
   id="path99"
   inkscape:connector-curvature="0"
   style="fill:#efedc8" />
			<path
   d="m 280.04,404.5 c 0.03,0.49 0.04,0.98 0.04,1.48 0,1.81 -0.18,3.58 -0.54,5.28 -4.01,-1.99 -8.7,-3.69 -14.74,-5.04 0,-0.08 0,-0.16 0,-0.24 0,-2.71 -1.01,-5.19 -2.67,-7.08 6.52,1.14 12.66,2.9 17.91,5.6 z"
   id="path101"
   inkscape:connector-curvature="0"
   style="fill:#efedc8" />
			<path
   d="m 280.04,404.5 c 7.42,3.79 13.08,9.46 15.53,17.89 -5.36,-4.319 -9.9,-8.08 -16.03,-11.13 0.36,-1.7 0.54,-3.47 0.54,-5.28 0,-0.5 -0.01,-0.99 -0.04,-1.48 z"
   id="path103"
   inkscape:connector-curvature="0"
   style="fill:#d1c283" />
			<path
   d="m 216,397 c 4.14,0 8.79,-0.09 13.72,-0.11 -0.69,1.83 -1.17,3.76 -1.42,5.76 -3.85,-0.09 -7.96,-0.14 -12.37,-0.14 -4.33,0 -8.4,0.05 -12.23,0.15 -0.25,-2 -0.73,-3.93 -1.42,-5.77 4.93,0.02 9.58,0.11 13.72,0.11 z"
   id="path105"
   inkscape:connector-curvature="0"
   style="fill:#d1c283" />
			<path
   d="m 151.92,405.98 c 0,1.66 0.16,3.28 0.46,4.85 -7.06,3.21 -11.55,7.16 -15.95,11.56 2.45,-8.43 8.11,-14.1 15.53,-17.89 -0.03,0.49 -0.04,0.98 -0.04,1.48 z"
   id="path107"
   inkscape:connector-curvature="0"
   style="fill:#d1c283" />
		</g>
	</g>
	<path
   d="M 230.33,423.5 H 216 201.67 c -0.648,0 -1.22,0.413 -1.424,1.028 -0.204,0.614 0.008,1.288 0.528,1.675 l 14.33,10.67 c 0.531,0.395 1.261,0.395 1.792,0 l 14.33,-10.67 c 0.52,-0.387 0.731,-1.061 0.528,-1.675 -0.204,-0.615 -0.776,-1.028 -1.424,-1.028 z"
   id="path109"
   inkscape:connector-curvature="0"
   style="fill:#e95846" />
</g>
</svg>