<?xml version="1.0" encoding="utf-8"?>
<!-- Generator: Adobe Illustrator 14.0.0, SVG Export Plug-In . SVG Version: 6.00 Build 43363)  -->
<!DOCTYPE svg PUBLIC "-//W3C//DTD SVG 1.1//EN" "http://www.w3.org/Graphics/SVG/1.1/DTD/svg11.dtd">
<svg version="1.1" id="Layer_2" xmlns="http://www.w3.org/2000/svg" xmlns:xlink="http://www.w3.org/1999/xlink" x="0px" y="0px"
	 width="828px" height="828px" viewBox="0 0 828 828" enable-background="new 0 0 828 828" xml:space="preserve">
<path display="none" fill="#DBCB89" d="M-249.238,235.528c1.843,0,1.949,12.287,1.545,31.947
	c-0.453,22.05-1.545,53.374-1.545,87.039c0,3.217,0.044,6.581,0.1,10.066c-8.58,8.581-36.489,17.217-65.48,20.445
	c-7.665,0.861-15.408,1.341-22.882,1.341s-15.217-0.48-22.881-1.341c-28.993-3.229-56.901-11.865-65.481-20.445
	c0.056-3.485,0.1-6.849,0.1-10.066c0-34.68-1.16-66.875-1.584-89.007c-0.355-18.509-0.196-29.979,1.584-29.979
	c3.911,0,10.055,3.352,20.669,20.11c10.614,16.759,31.841,14.524,67.593,14.524s56.979,2.235,67.593-14.524
	C-259.293,238.88-253.148,235.528-249.238,235.528z"/>
<path display="none" fill="#BC9345" d="M-247.641,541.497c0.338-18.117,0.162-29.313-1.597-29.313
	c-3.911,0-10.055,3.352-20.669,20.11s-31.841,14.524-67.593,14.524s-56.979,2.234-67.593-14.524s-16.758-20.11-20.669-20.11
	c-1.886,0-1.953,12.87-1.516,33.342c0.469,21.966,1.516,52.683,1.516,85.645c0,3.218-0.044,6.58-0.1,10.065
	c-0.226,12.504-0.739,26.614-0.738,41.265c0.002,24.462,1.437,50.428,8.033,72.929c10.155,34.725,32.612,61.203,81.067,61.203
	s70.911-26.479,81.079-61.203c6.904-23.577,8.146-50.958,8.013-76.428c-0.07-13.395-0.521-26.26-0.729-37.766
	c-0.056-3.485-0.1-6.848-0.1-10.065C-249.238,596.141-248.055,563.646-247.641,541.497z"/>
<path display="none" fill="#DBCB89" d="M-48.324,536c-0.01-6.277-0.235-12.198-0.546-17.546c-0.107-1.757-0.213-3.447-0.33-5.069
	c-2.913-40.865-9.226-103.017-21.365-103.017s-12.625,30.59-20.394,33.504c-7.769,2.913-36.874,5.72-46.614,5.826
	c-27.677,0.282-52.684,2.671-55.354,0c-2.671-2.67-22.336-28.162-28.648-28.162c-3.6,0-6.41,15.001-6.72,37.799
	c-0.233,17.18,0.953,38.788,4.292,61.741c0.106,0.71,0.204,1.418,0.31,2.127h0.01c7.593,51.084,24.449,122.157,92.018,122.54
	c2.95,0.017,5.997-0.102,9.145-0.362C-58.548,640.085-48.256,579.5-48.324,536z"/>
<path display="none" fill="#DBCB89" d="M-466.219,845.594c-0.092-13.709-1.934-27.902-3.872-29.84
	c-4.227-2.645-8.629-4.898-13.3-6.8c-10.52-34.059-31.436-47.028-49.665-51.885c3.214-4.6,5.095-10.189,5.095-16.235
	c0-15.696-12.721-28.418-28.418-28.418c-15.697,0-28.418,12.722-28.418,28.418c0,6.046,1.88,11.636,5.095,16.235
	c-18.229,4.846-39.134,17.826-49.665,51.885c-4.671,1.901-9.073,4.155-13.3,6.8c-1.828,1.828-3.426,14.925-3.542,28.251
	c-0.13,14.924,1.598,30.136,6.942,30.136h0.514c0,0-0.4,8.764-0.514,14.467c-0.94,47.381,5.198,92.055,14.685,105.405
	c13.951,19.635,41.335,19.118,68.203,19.118c26.868,0,54.253,0.517,68.204-19.118c9.486-13.351,15.625-58.024,14.684-105.405
	c-0.113-5.703-0.591-15.91-0.591-15.91s0.905-0.17,1.24-0.17C-467.783,872.527-466.127,859.303-466.219,845.594z"/>
<path display="none" fill="#9CD6C4" d="M-466.217,518.999c-0.065-13.809-1.921-28.212-3.874-30.165
	c-4.227-2.645-8.629-4.898-13.3-6.8c-10.52-34.06-31.436-47.028-49.665-51.886c3.214-4.599,5.095-10.188,5.095-16.234
	c0-15.697-12.721-28.418-28.418-28.418c-15.697,0-28.418,12.721-28.418,28.418c0,6.046,1.88,11.636,5.095,16.234
	c-18.229,4.846-39.134,17.826-49.665,51.886c-4.671,1.901-9.073,4.155-13.3,6.8c-1.916,1.916-3.579,16.205-3.549,30.166
	c0.031,14.282,1.833,28.221,6.949,28.221h0.514l0.147-2.697c2.531-8.712,8.38-14.57,16.048-18.487
	c5.425-2.79,11.77-4.608,18.508-5.787c4.805-0.837,9.807-1.354,14.809-1.653c6.355-0.393,12.721-0.454,18.683-0.424
	c5.095,0.021,9.9,0.114,14.178,0.114s9.083-0.093,14.178-0.114c5.963-0.03,12.328,0.031,18.683,0.424
	c5.002,0.3,10.003,0.816,14.809,1.653c6.738,1.179,13.083,2.997,18.508,5.787c7.667,3.917,13.517,9.775,16.048,18.487l0.071,1.254
	c0,0,0.905-0.169,1.24-0.169C-467.823,545.608-466.153,532.592-466.217,518.999z"/>
<path display="none" fill="#E5E3C0" d="M-466.219,325.73c-0.092-13.709-1.934-27.902-3.872-29.84c-4.227-2.646-8.629-4.898-13.3-6.8
	c-18.177-7.451-40.519-9.734-72.988-9.734s-54.811,2.284-72.988,9.734c-4.671,1.901-9.073,4.154-13.3,6.8
	c-1.97,1.971-3.673,17.032-3.542,31.362c0.127,13.854,1.969,27.024,6.942,27.024h0.514l0.147-2.697
	c2.531-8.711,8.38-14.57,16.048-18.487c-0.031,0.506-0.042,1.013-0.042,1.529c0,14.839,12.029,26.868,26.868,26.868
	c14.839,0,26.868-12.029,26.868-26.868c0-3.307-0.599-6.469-1.695-9.394c5.095,0.021,9.9,0.114,14.178,0.114
	s9.083-0.093,14.178-0.114c-1.095,2.925-1.695,6.086-1.695,9.394c0,14.839,12.029,26.868,26.868,26.868s26.868-12.029,26.868-26.868
	c0-0.517-0.01-1.023-0.041-1.529c7.667,3.917,13.517,9.775,16.048,18.487l0.071,1.254c0,0,0.905-0.169,1.24-0.169
	C-467.783,352.664-466.127,339.439-466.219,325.73z"/>
<path display="none" fill="#5B5221" d="M-466.219,240.005c-0.092-13.709-1.934-27.902-3.872-29.84
	c-4.227-2.646-8.629-4.899-13.3-6.8c-18.177-7.451-40.519-9.734-72.988-9.734s-54.811,2.284-72.988,9.734
	c-4.671,1.901-9.073,4.154-13.3,6.8c-1.935,1.935-3.612,16.493-3.547,30.586c0.065,14.133,1.882,27.799,6.947,27.799h0.514
	l0.147-2.697c2.531-8.711,8.38-14.57,16.048-18.487c5.425-2.791,11.77-4.609,18.508-5.787c-1.715,1.953-2.759,4.516-2.759,7.316
	c0,6.118,4.96,11.078,11.078,11.078c6.117,0,11.078-4.96,11.078-11.078c0-3.7-1.809-6.965-4.588-8.97
	c6.355-0.392,12.721-0.454,18.683-0.423c5.095,0.021,9.9,0.113,14.178,0.113s9.083-0.093,14.178-0.113
	c5.963-0.031,12.328,0.031,18.683,0.423c-2.78,2.005-4.588,5.271-4.588,8.97c0,6.118,4.96,11.078,11.078,11.078
	s11.078-4.96,11.078-11.078c0-2.8-1.043-5.363-2.759-7.316c6.738,1.178,13.083,2.997,18.508,5.787
	c7.667,3.917,13.517,9.776,16.048,18.487l0.071,1.254c0,0,0.905-0.169,1.24-0.169C-467.783,266.938-466.127,253.714-466.219,240.005
	z"/>
<path display="none" fill="#7FBB7E" d="M-540.685,158.977c-5.125,7.368-13.661,12.184-23.323,12.184
	c-9.662,0-18.198-4.816-23.323-12.184c-3.214-4.599-5.095-10.189-5.095-16.234c0-15.697,12.721-28.418,28.418-28.418
	c15.697,0,28.418,12.721,28.418,28.418C-535.589,148.788-537.47,154.378-540.685,158.977z M-466.218,106.251
	c-0.078-13.764-1.927-28.072-3.873-30.019c-4.227-2.646-8.629-4.898-13.3-6.799c-18.177-7.451-40.519-9.735-72.988-9.735
	s-54.811,2.284-72.988,9.735c-4.671,1.901-9.073,4.154-13.3,6.799c-1.938,1.938-3.617,16.535-3.547,30.646s1.889,27.74,6.947,27.74
	h0.514l0.147-2.697c2.531-8.711,8.38-14.57,16.048-18.487c5.425-2.791,11.77-4.609,18.508-5.787
	c4.805-0.837,9.807-1.354,14.809-1.654c6.355-0.393,12.721-0.455,18.683-0.423c5.095,0.021,9.9,0.114,14.178,0.114
	s9.083-0.093,14.178-0.114c5.963-0.031,12.328,0.031,18.683,0.423c5.002,0.3,10.003,0.816,14.809,1.654
	c6.738,1.178,13.083,2.997,18.508,5.787c7.667,3.917,13.517,9.776,16.048,18.487l0.071,1.254c0,0,0.905-0.169,1.24-0.169
	C-467.805,133.007-466.141,119.896-466.218,106.251z"/>
<path display="none" fill="#E95846" d="M-613.577,17.63c0.21,0.635-0.008,1.331-0.545,1.731l-14.809,11.026
	c-0.549,0.408-1.304,0.408-1.853,0l-14.808-11.026c-0.39-0.291-0.612-0.737-0.624-1.204c-0.004-0.176,0.021-0.354,0.079-0.527
	c0.209-0.636,0.801-1.063,1.471-1.063h29.617C-614.378,16.568-613.787,16.995-613.577,17.63z M-466.215,16.568h-0.007v0.007h0.007
	V16.568z"/>
<path display="none" fill="#D6A64F" d="M-480.345,569.096c0.108,5.434,0.123,10.831,0.05,16.15
	c-0.562,41.063-6.335,77.435-14.734,89.254c-13.951,19.635-41.335,19.118-68.203,19.118c-26.868,0-54.253,0.517-68.204-19.118
	c-8.364-11.771-14.125-47.887-14.727-88.74c-0.081-5.485-0.069-11.056,0.042-16.664c12.163,8.257,49.303,18.084,82.888,18.084
	S-492.508,577.353-480.345,569.096z M-466.215,645.74h-0.007v0.008h0.007V645.74z"/>
<path display="none" fill="#E95846" d="M-396.379,96.89c0.277,0.584,0.192,1.279-0.217,1.779l-13.966,17.072
	c-0.318,0.39-0.794,0.614-1.297,0.614c-0.503,0-0.979-0.225-1.297-0.614l-13.966-17.072c-0.238-0.291-0.366-0.648-0.377-1.011
	c-0.008-0.26,0.045-0.524,0.161-0.768c0.277-0.584,0.868-0.958,1.514-0.958h13.965h13.966
	C-397.247,95.932-396.656,96.306-396.379,96.89z M-247.5,104.932h-0.007v0.007h0.007V104.932z"/>
<path display="none" fill="#5B5221" d="M-415.522,136.952c6.614,0,11.977,5.362,11.977,11.977c0,6.614-5.363,11.977-11.977,11.977
	s-11.978-5.363-11.978-11.977C-427.5,142.314-422.136,136.952-415.522,136.952z M-394.234,148.928
	c0,6.614,5.364,11.977,11.978,11.977c6.614,0,11.977-5.363,11.977-11.977c0-6.614-5.362-11.977-11.977-11.977
	C-388.871,136.952-394.234,142.314-394.234,148.928z M-247.5,148.925h-0.007v0.007h0.007V148.925z"/>
<path display="none" fill="#E1DFBD" d="M-398.452,168.142c16.044,0,29.048,13.004,29.048,29.048
	c0,16.043-13.004,29.048-29.048,29.048c-16.043,0-29.048-13.005-29.048-29.048C-427.5,181.146-414.495,168.142-398.452,168.142z
	 M-324.714,168.142c16.044,0,29.048,13.004,29.048,29.048c0,16.043-13.004,29.048-29.048,29.048
	c-16.043,0-29.048-13.005-29.048-29.048C-353.762,181.146-340.757,168.142-324.714,168.142z M-247.5,192.072h-0.007v0.007h0.007
	V192.072z"/>
<path display="none" fill="#D6A64F" d="M-267.417,400.866c-5.048,33.005-10.018,77.642-26.483,111.318
	c-22.03-16.564-47.496-67.341-41.511-102.237C-306.292,411.667-277.324,407.873-267.417,400.866z M-427.5,401.11
	c5.632,32.911,11.39,77.453,28.46,110.831c21.722-16.95,46.287-68.168,39.685-102.953
	C-388.441,411.221-417.471,407.941-427.5,401.11z M-247.5,444.982h-0.007v0.007h0.007V444.982z"/>
<path display="none" fill="#E95846" d="M-198.463,171.781l-13.11,19.647c-0.254,0.38-0.674,0.62-1.131,0.646
	c-0.456,0.025-0.9-0.167-1.195-0.517l-14.082-16.723c-0.229-0.273-0.347-0.614-0.342-0.958c0.002-0.176,0.037-0.353,0.105-0.522
	c0.201-0.501,0.66-0.848,1.196-0.906l27.191-2.923c0.563-0.061,1.108,0.208,1.402,0.693
	C-198.136,170.702-198.149,171.31-198.463,171.781z M-48.323,180.792h-0.007v0.007h0.007V180.792z"/>
<path display="none" fill="#5B5221" d="M-217.912,198.13c5.749,0,10.41,4.661,10.41,10.41s-4.661,10.411-10.41,10.411
	s-10.411-4.662-10.411-10.411S-223.661,198.13-217.912,198.13z M-199.408,208.54c0,5.749,4.662,10.411,10.411,10.411
	s10.411-4.662,10.411-10.411s-4.662-10.41-10.411-10.41S-199.408,202.791-199.408,208.54z M-48.323,208.537h-0.007v0.007h0.007
	V208.537z"/>
<path display="none" fill="#E1DFBD" d="M-203.074,229.669c13.945,0,25.249,11.303,25.249,25.249c0,13.945-11.304,25.25-25.249,25.25
	s-25.25-11.304-25.25-25.25C-228.323,240.973-217.019,229.669-203.074,229.669z M-138.979,229.669
	c13.946,0,25.25,11.303,25.25,25.249c0,13.945-11.304,25.25-25.25,25.25c-13.945,0-25.25-11.304-25.25-25.25
	C-164.229,240.973-152.925,229.669-138.979,229.669z M-48.323,254.915h-0.007v0.007h0.007V254.915z"/>
<path display="none" fill="#E5AEA9" d="M-48.87,383.561h-0.009c-66.668,35.262-137.726,26.9-174.803,4.749h-0.01
	c-0.106-0.709-0.204-1.417-0.31-2.127c-3.238-22.264-4.452-43.263-4.309-60.183c0.2-23.671,3.056-39.358,6.737-39.358
	c6.313,0,25.978,25.492,28.648,28.163c2.67,2.67,27.677,0.282,55.354,0c9.741-0.106,38.845-2.914,46.614-5.827
	c7.769-2.914,8.254-33.504,20.394-33.504c9.21,0,15.066,35.775,18.628,70.887c1.133,11.168,2.034,22.269,2.737,32.13
	C-49.083,380.113-48.977,381.803-48.87,383.561z M-48.323,300.886h-0.007v0.007h0.007V300.886z"/>
<g>
	<path fill="#E5AEA9" d="M674.29,428.43c-0.11-1.81-0.22-3.55-0.34-5.22c-3-42.08-9.5-106.08-22-106.08s-13,31.5-21,34.5
		s-37.97,5.89-48,6c-28.5,0.29-54.25,2.75-57,0s-23-29-29.5-29s-10.5,47.5-2.5,102.5c0.109,0.73,0.21,1.46,0.319,2.19h0.011
		c8.16,54.899,26.71,132.22,104.17,125.81C673.83,552.89,676.83,472.1,674.29,428.43z"/>
	<path fill="#E8B7B3" d="M651.95,317.13c-12.5,0-13,31.5-21,34.5s-37.97,5.89-48,6c-28.5,0.29-54.25,2.75-57,0s-23-29-29.5-29
		c-3.46,0-6.21,13.43-6.82,34.28c4.44-14.17,7.771-27.14,15.04-16.91c7.33,10.33,14.13,23,28.23,23c14.1,0,78.659-3.67,91.05-7
		c12.38-3.33,17.72-8.33,21.05-19.67c3.33-11.33,13.62-11.3,20.31,5.35C661.9,329.85,657.52,317.13,651.95,317.13z"/>
	<path fill="#FAF3E6" d="M558.9,405.38c0,14.36-11.641,26-26,26c-14.36,0-26-11.64-26-26c0-14.36,11.64-26,26-26
		C547.26,379.38,558.9,391.02,558.9,405.38z M630.95,374.35c-14.36,0-26,11.64-26,26s11.64,26,26,26c14.35,0,26-11.64,26-26
		S645.3,374.35,630.95,374.35z"/>
	<path fill="#DBCB89" d="M674.29,428.43c2.54,43.67-0.46,124.46-75.84,130.7c-77.46,6.41-96.01-70.91-104.17-125.81
		c38.18,22.81,111.35,31.42,180-4.891H674.29z"/>
	<g>
		<g id="XMLID_7_">
			<path fill="#D1C283" d="M667,503.77c-9.33,28.24-28.96,52.08-68.55,55.36c-41.141,3.4-65.67-16.81-80.84-44.75
				c32.069,25.29,56.29,37.95,80.34,36.29C621.99,549,646.36,541.81,667,503.77z"/>
			<path fill="#D1C283" d="M674.29,428.43c0.16,2.73,0.3,5.61,0.39,8.61C620.03,471.38,529,465.67,495.99,444.12
				c-0.62-3.68-1.19-7.28-1.71-10.8c38.18,22.81,111.35,31.42,180-4.891H674.29z"/>
		</g>
	</g>
	<path fill="#5B5221" d="M525.9,390.66c5.92,0,10.72,4.8,10.72,10.72s-4.8,10.72-10.72,10.72s-10.721-4.8-10.721-10.72
		S519.98,390.66,525.9,390.66z M613.22,396.35c0,5.92,4.811,10.72,10.73,10.72s10.72-4.8,10.72-10.72s-4.8-10.72-10.72-10.72
		S613.22,390.43,613.22,396.35z"/>
	<path fill="#E95846" d="M597.733,412.313c-0.303-0.499-0.863-0.776-1.443-0.714l-28,3.01c-0.552,0.059-1.024,0.417-1.231,0.933
		c-0.207,0.515-0.113,1.1,0.244,1.524l14.5,17.221c0.304,0.36,0.761,0.558,1.23,0.532c0.471-0.026,0.903-0.273,1.165-0.665
		l13.5-20.231C598.021,413.437,598.035,412.812,597.733,412.313z"/>
</g>
</svg>
