<?xml version="1.0" encoding="UTF-8" standalone="no"?>
<!-- Generator: Adobe Illustrator 14.0.0, SVG Export Plug-In . SVG Version: 6.00 Build 43363)  -->

<svg
   xmlns:dc="http://purl.org/dc/elements/1.1/"
   xmlns:cc="http://creativecommons.org/ns#"
   xmlns:rdf="http://www.w3.org/1999/02/22-rdf-syntax-ns#"
   xmlns:svg="http://www.w3.org/2000/svg"
   xmlns="http://www.w3.org/2000/svg"
   xmlns:sodipodi="http://sodipodi.sourceforge.net/DTD/sodipodi-0.dtd"
   xmlns:inkscape="http://www.inkscape.org/namespaces/inkscape"
   version="1.1"
   id="Layer_2"
   x="0px"
   y="0px"
   viewBox="0 0 185.35151 242.37422"
   enable-background="new 0 0 828 828"
   xml:space="preserve"
   inkscape:version="0.48.2 r9819"
   width="100%"
   height="100%"
   sodipodi:docname="short_owl.svg"><metadata
   id="metadata64"><rdf:RDF><cc:Work
       rdf:about=""><dc:format>image/svg+xml</dc:format><dc:type
         rdf:resource="http://purl.org/dc/dcmitype/StillImage" /></cc:Work></rdf:RDF></metadata><defs
   id="defs62" /><sodipodi:namedview
   pagecolor="#ffffff"
   bordercolor="#666666"
   borderopacity="1"
   objecttolerance="10"
   gridtolerance="10"
   guidetolerance="10"
   inkscape:pageopacity="0"
   inkscape:pageshadow="2"
   inkscape:window-width="640"
   inkscape:window-height="480"
   id="namedview60"
   showgrid="false"
   fit-margin-top="0"
   fit-margin-left="0"
   fit-margin-right="0"
   fit-margin-bottom="0"
   inkscape:zoom="0.28502415"
   inkscape:cx="-75.501416"
   inkscape:cy="145.50422"
   inkscape:window-x="0"
   inkscape:window-y="0"
   inkscape:window-maximized="0"
   inkscape:current-layer="Layer_2" />
<path
   display="none"
   d="m -738.73942,-81.602 c 1.843,0 1.949,12.287 1.545,31.947 -0.453,22.05 -1.545,53.374 -1.545,87.039 0,3.217 0.044,6.581 0.1,10.066 -8.58,8.581 -36.489,17.217 -65.48,20.445 -7.665,0.861 -15.408,1.341 -22.882,1.341 -7.474,0 -15.217,-0.48 -22.881,-1.341 -28.993,-3.229 -56.901,-11.865 -65.481,-20.445 0.056,-3.485 0.1,-6.849 0.1,-10.066 0,-34.68 -1.16,-66.875 -1.584,-89.007 -0.355,-18.509 -0.196,-29.979 1.584,-29.979 3.911,0 10.055,3.352 20.669,20.11 10.614,16.759 31.841,14.524 67.593,14.524 35.752,0 56.979,2.235 67.593,-14.524 10.614,-16.758 16.759,-20.11 20.669,-20.11 z"
   id="path3"
   inkscape:connector-curvature="0"
   style="fill:#dbcb89;display:none" />
<path
   display="none"
   d="m -737.14242,224.367 c 0.338,-18.117 0.162,-29.313 -1.597,-29.313 -3.911,0 -10.055,3.352 -20.669,20.11 -10.614,16.758 -31.841,14.524 -67.593,14.524 -35.752,0 -56.979,2.234 -67.593,-14.524 -10.614,-16.758 -16.758,-20.11 -20.669,-20.11 -1.886,0 -1.953,12.87 -1.516,33.342 0.469,21.966 1.516,52.683 1.516,85.645 0,3.218 -0.044,6.58 -0.1,10.065 -0.226,12.504 -0.739,26.614 -0.738,41.265 0.002,24.462 1.437,50.428 8.033,72.929 10.155,34.725 32.612,61.203 81.067,61.203 48.455,0 70.911,-26.479 81.079,-61.203 6.904,-23.577 8.146,-50.958 8.013,-76.428 -0.07,-13.395 -0.521,-26.26 -0.729,-37.766 -0.056,-3.485 -0.1,-6.848 -0.1,-10.065 -10e-4,-35.03 1.182,-67.525 1.596,-89.674 z"
   id="path5"
   inkscape:connector-curvature="0"
   style="fill:#bc9345;display:none" />
<path
   display="none"
   d="m -537.82542,218.87 c -0.01,-6.277 -0.235,-12.198 -0.546,-17.546 -0.107,-1.757 -0.213,-3.447 -0.33,-5.069 -2.913,-40.865 -9.226,-103.017 -21.365,-103.017 -12.139,0 -12.625,30.59 -20.394,33.504 -7.769,2.913 -36.874,5.72 -46.614,5.826 -27.677,0.282 -52.684,2.671 -55.354,0 -2.671,-2.67 -22.336,-28.162 -28.648,-28.162 -3.6,0 -6.41,15.001 -6.72,37.799 -0.233,17.18 0.953,38.788 4.292,61.741 0.106,0.71 0.204,1.418 0.31,2.127 h 0.01 c 7.593,51.084 24.449,122.157 92.018,122.54 2.95,0.017 5.997,-0.102 9.145,-0.362 63.972,-5.296 74.264,-65.881 74.196,-109.381 z"
   id="path7"
   inkscape:connector-curvature="0"
   style="fill:#dbcb89;display:none" />
<path
   display="none"
   d="m -955.72042,528.464 c -0.092,-13.709 -1.934,-27.902 -3.872,-29.84 -4.227,-2.645 -8.629,-4.898 -13.3,-6.8 -10.52,-34.059 -31.43598,-47.028 -49.66498,-51.885 3.214,-4.6 5.095,-10.189 5.095,-16.235 0,-15.696 -12.721,-28.418 -28.418,-28.418 -15.697,0 -28.418,12.722 -28.418,28.418 0,6.046 1.88,11.636 5.095,16.235 -18.229,4.846 -39.134,17.826 -49.665,51.885 -4.671,1.901 -9.073,4.155 -13.3,6.8 -1.828,1.828 -3.426,14.925 -3.542,28.251 -0.13,14.924 1.598,30.136 6.942,30.136 h 0.514 c 0,0 -0.4,8.764 -0.514,14.467 -0.94,47.381 5.198,92.055 14.685,105.405 13.951,19.635 41.335,19.118 68.203,19.118 26.868,0 54.25298,0.517 68.20398,-19.118 9.486,-13.351 15.625,-58.024 14.684,-105.405 -0.113,-5.703 -0.591,-15.91 -0.591,-15.91 0,0 0.905,-0.17 1.24,-0.17 5.059,-10e-4 6.715,-13.225 6.623,-26.934 z"
   id="path9"
   inkscape:connector-curvature="0"
   style="fill:#dbcb89;display:none" />
<path
   display="none"
   d="m -955.71842,201.869 c -0.065,-13.809 -1.921,-28.212 -3.874,-30.165 -4.227,-2.645 -8.629,-4.898 -13.3,-6.8 -10.52,-34.06 -31.43598,-47.028 -49.66498,-51.886 3.214,-4.599 5.095,-10.188 5.095,-16.234 0,-15.697 -12.721,-28.418 -28.418,-28.418 -15.697,0 -28.418,12.721 -28.418,28.418 0,6.046 1.88,11.636 5.095,16.234 -18.229,4.846 -39.134,17.826 -49.665,51.886 -4.671,1.901 -9.073,4.155 -13.3,6.8 -1.916,1.916 -3.579,16.205 -3.549,30.166 0.031,14.282 1.833,28.221 6.949,28.221 h 0.514 l 0.147,-2.697 c 2.531,-8.712 8.38,-14.57 16.048,-18.487 5.425,-2.79 11.77,-4.608 18.508,-5.787 4.805,-0.837 9.807,-1.354 14.809,-1.653 6.355,-0.393 12.721,-0.454 18.683,-0.424 5.095,0.021 9.9,0.114 14.178,0.114 4.278,0 9.083,-0.093 14.178,-0.114 5.963,-0.03 12.328,0.031 18.683,0.424 5.002,0.3 10.003,0.816 14.80898,1.653 6.738,1.179 13.083,2.997 18.508,5.787 7.667,3.917 13.517,9.775 16.048,18.487 l 0.071,1.254 c 0,0 0.905,-0.169 1.24,-0.169 5.02,-0.001 6.69,-13.017 6.626,-26.61 z"
   id="path11"
   inkscape:connector-curvature="0"
   style="fill:#9cd6c4;display:none" />
<path
   display="none"
   d="m -955.72042,8.6 c -0.092,-13.709 -1.934,-27.902 -3.872,-29.84 -4.227,-2.646 -8.629,-4.898 -13.3,-6.8 -18.177,-7.451 -40.51898,-9.734 -72.98798,-9.734 -32.469,0 -54.811,2.284 -72.988,9.734 -4.671,1.901 -9.073,4.154 -13.3,6.8 -1.97,1.971 -3.673,17.032 -3.542,31.362 0.127,13.854 1.969,27.024 6.942,27.024 h 0.514 l 0.147,-2.697 c 2.531,-8.711 8.38,-14.57 16.048,-18.487 -0.031,0.506 -0.042,1.013 -0.042,1.529 0,14.839 12.029,26.868 26.868,26.868 14.839,0 26.868,-12.029 26.868,-26.868 0,-3.307 -0.599,-6.469 -1.695,-9.394 5.095,0.021 9.9,0.114 14.178,0.114 4.278,0 9.083,-0.093 14.178,-0.114 -1.095,2.925 -1.695,6.086 -1.695,9.394 0,14.839 12.029,26.868 26.868,26.868 14.83898,0 26.86798,-12.029 26.86798,-26.868 0,-0.517 -0.01,-1.023 -0.041,-1.529 7.667,3.917 13.517,9.775 16.048,18.487 l 0.071,1.254 c 0,0 0.905,-0.169 1.24,-0.169 5.061,0 6.717,-13.225 6.625,-26.934 z"
   id="path13"
   inkscape:connector-curvature="0"
   style="fill:#e5e3c0;display:none" />
<path
   display="none"
   d="m -955.72042,-77.125 c -0.092,-13.709 -1.934,-27.902 -3.872,-29.84 -4.227,-2.646 -8.629,-4.899 -13.3,-6.8 -18.177,-7.451 -40.51898,-9.734 -72.98798,-9.734 -32.469,0 -54.811,2.284 -72.988,9.734 -4.671,1.901 -9.073,4.154 -13.3,6.8 -1.935,1.935 -3.612,16.493 -3.547,30.586 0.065,14.133 1.882,27.799 6.947,27.799 h 0.514 l 0.147,-2.697 c 2.531,-8.711 8.38,-14.57 16.048,-18.487 5.425,-2.791 11.77,-4.609 18.508,-5.787 -1.715,1.953 -2.759,4.516 -2.759,7.316 0,6.118 4.96,11.078 11.078,11.078 6.117,0 11.078,-4.96 11.078,-11.078 0,-3.7 -1.809,-6.965 -4.588,-8.97 6.355,-0.392 12.721,-0.454 18.683,-0.423 5.095,0.021 9.9,0.113 14.178,0.113 4.278,0 9.083,-0.093 14.178,-0.113 5.963,-0.031 12.328,0.031 18.683,0.423 -2.78,2.005 -4.588,5.271 -4.588,8.97 0,6.118 4.96,11.078 11.078,11.078 6.118,0 11.07798,-4.96 11.07798,-11.078 0,-2.8 -1.043,-5.363 -2.759,-7.316 6.738,1.178 13.083,2.997 18.508,5.787 7.667,3.917 13.517,9.776 16.048,18.487 l 0.071,1.254 c 0,0 0.905,-0.169 1.24,-0.169 5.06,0 6.716,-13.224 6.624,-26.933 z"
   id="path15"
   inkscape:connector-curvature="0"
   style="fill:#5b5221;display:none" />
<path
   display="none"
   d="m -1030.1864,-158.153 c -5.125,7.368 -13.661,12.184 -23.323,12.184 -9.662,0 -18.198,-4.816 -23.323,-12.184 -3.214,-4.599 -5.095,-10.189 -5.095,-16.234 0,-15.697 12.721,-28.418 28.418,-28.418 15.697,0 28.418,12.721 28.418,28.418 10e-4,6.045 -1.88,11.635 -5.095,16.234 z m 74.46698,-52.726 c -0.078,-13.764 -1.927,-28.072 -3.873,-30.019 -4.227,-2.646 -8.629,-4.898 -13.3,-6.799 -18.177,-7.451 -40.51898,-9.735 -72.98798,-9.735 -32.469,0 -54.811,2.284 -72.988,9.735 -4.671,1.901 -9.073,4.154 -13.3,6.799 -1.938,1.938 -3.617,16.535 -3.547,30.646 0.07,14.111 1.889,27.74 6.947,27.74 h 0.514 l 0.147,-2.697 c 2.531,-8.711 8.38,-14.57 16.048,-18.487 5.425,-2.791 11.77,-4.609 18.508,-5.787 4.805,-0.837 9.807,-1.354 14.809,-1.654 6.355,-0.393 12.721,-0.455 18.683,-0.423 5.095,0.021 9.9,0.114 14.178,0.114 4.278,0 9.083,-0.093 14.178,-0.114 5.963,-0.031 12.328,0.031 18.683,0.423 5.002,0.3 10.003,0.816 14.80898,1.654 6.738,1.178 13.083,2.997 18.508,5.787 7.667,3.917 13.517,9.776 16.048,18.487 l 0.071,1.254 c 0,0 0.905,-0.169 1.24,-0.169 5.038,0.001 6.702,-13.11 6.625,-26.755 z"
   id="path17"
   inkscape:connector-curvature="0"
   style="fill:#7fbb7e;display:none" />
<path
   display="none"
   d="m -1103.0784,-299.5 c 0.21,0.635 -0.01,1.331 -0.545,1.731 l -14.809,11.026 c -0.549,0.408 -1.304,0.408 -1.853,0 l -14.808,-11.026 c -0.39,-0.291 -0.612,-0.737 -0.624,-1.204 -0,-0.176 0.021,-0.354 0.079,-0.527 0.209,-0.636 0.801,-1.063 1.471,-1.063 h 29.617 c 0.671,10e-4 1.262,0.428 1.472,1.063 z m 147.36198,-1.062 h -0.007 v 0.007 h 0.007 v -0.007 z"
   id="path19"
   inkscape:connector-curvature="0"
   style="fill:#e95846;display:none" />
<path
   display="none"
   d="m -969.84642,251.966 c 0.108,5.434 0.123,10.831 0.05,16.15 -0.562,41.063 -6.335,77.435 -14.734,89.254 -13.951,19.635 -41.33498,19.118 -68.20298,19.118 -26.868,0 -54.253,0.517 -68.204,-19.118 -8.364,-11.771 -14.125,-47.887 -14.727,-88.74 -0.081,-5.485 -0.069,-11.056 0.042,-16.664 12.163,8.257 49.303,18.084 82.888,18.084 33.585,0 70.72498,-9.827 82.88798,-18.084 z m 14.13,76.644 h -0.007 v 0.008 h 0.007 v -0.008 z"
   id="path21"
   inkscape:connector-curvature="0"
   style="fill:#d6a64f;display:none" />
<path
   display="none"
   d="m -885.88042,-220.24 c 0.277,0.584 0.192,1.279 -0.217,1.779 l -13.966,17.072 c -0.318,0.39 -0.794,0.614 -1.297,0.614 -0.503,0 -0.979,-0.225 -1.297,-0.614 l -13.966,-17.072 c -0.238,-0.291 -0.366,-0.648 -0.377,-1.011 -0.008,-0.26 0.045,-0.524 0.161,-0.768 0.277,-0.584 0.868,-0.958 1.514,-0.958 h 13.965 13.966 c 0.646,0 1.237,0.374 1.514,0.958 z m 148.879,8.042 h -0.007 v 0.007 h 0.007 v -0.007 z"
   id="path23"
   inkscape:connector-curvature="0"
   style="fill:#e95846;display:none" />
<path
   display="none"
   d="m -905.02342,-180.178 c 6.614,0 11.977,5.362 11.977,11.977 0,6.614 -5.363,11.977 -11.977,11.977 -6.614,0 -11.978,-5.363 -11.978,-11.977 0,-6.615 5.364,-11.977 11.978,-11.977 z m 21.288,11.976 c 0,6.614 5.364,11.977 11.978,11.977 6.614,0 11.977,-5.363 11.977,-11.977 0,-6.614 -5.362,-11.977 -11.977,-11.977 -6.615,0.001 -11.978,5.363 -11.978,11.977 z m 146.734,-0.003 h -0.007 v 0.007 h 0.007 v -0.007 z"
   id="path25"
   inkscape:connector-curvature="0"
   style="fill:#5b5221;display:none" />
<path
   display="none"
   d="m -887.95342,-148.988 c 16.044,0 29.048,13.004 29.048,29.048 0,16.043 -13.004,29.048 -29.048,29.048 -16.043,0 -29.048,-13.005 -29.048,-29.048 0,-16.044 13.005,-29.048 29.048,-29.048 z m 73.738,0 c 16.044,0 29.048,13.004 29.048,29.048 0,16.043 -13.004,29.048 -29.048,29.048 -16.043,0 -29.048,-13.005 -29.048,-29.048 0,-16.044 13.005,-29.048 29.048,-29.048 z m 77.214,23.93 h -0.007 v 0.007 h 0.007 v -0.007 z"
   id="path27"
   inkscape:connector-curvature="0"
   style="fill:#e1dfbd;display:none" />
<path
   display="none"
   d="m -756.91842,83.736 c -5.048,33.005 -10.018,77.642 -26.483,111.318 -22.03,-16.564 -47.496,-67.341 -41.511,-102.237 29.119,1.72 58.087,-2.074 67.994,-9.081 z m -160.083,0.244 c 5.632,32.911 11.39,77.453 28.46,110.831 21.722,-16.95 46.287,-68.168 39.685,-102.953 -29.086,2.233 -58.116,-1.047 -68.145,-7.878 z m 180,43.872 h -0.007 v 0.007 h 0.007 v -0.007 z"
   id="path29"
   inkscape:connector-curvature="0"
   style="fill:#d6a64f;display:none" />
<path
   display="none"
   d="m -687.96442,-145.349 -13.11,19.647 c -0.254,0.38 -0.674,0.62 -1.131,0.646 -0.456,0.025 -0.9,-0.167 -1.195,-0.517 l -14.082,-16.723 c -0.229,-0.273 -0.347,-0.614 -0.342,-0.958 0.002,-0.176 0.037,-0.353 0.105,-0.522 0.201,-0.501 0.66,-0.848 1.196,-0.906 l 27.191,-2.923 c 0.563,-0.061 1.108,0.208 1.402,0.693 0.293,0.484 0.28,1.092 -0.034,1.563 z m 150.14,9.011 h -0.007 v 0.007 h 0.007 v -0.007 z"
   id="path31"
   inkscape:connector-curvature="0"
   style="fill:#e95846;display:none" />
<path
   display="none"
   d="m -707.41342,-119 c 5.749,0 10.41,4.661 10.41,10.41 0,5.749 -4.661,10.411 -10.41,10.411 -5.749,0 -10.411,-4.662 -10.411,-10.411 0,-5.749 4.662,-10.41 10.411,-10.41 z m 18.504,10.41 c 0,5.749 4.662,10.411 10.411,10.411 5.749,0 10.411,-4.662 10.411,-10.411 0,-5.749 -4.662,-10.41 -10.411,-10.41 -5.749,0 -10.411,4.661 -10.411,10.41 z m 151.085,-0.003 h -0.007 v 0.007 h 0.007 v -0.007 z"
   id="path33"
   inkscape:connector-curvature="0"
   style="fill:#5b5221;display:none" />
<path
   display="none"
   d="m -692.57542,-87.461 c 13.945,0 25.249,11.303 25.249,25.249 0,13.945 -11.304,25.25 -25.249,25.25 -13.945,0 -25.25,-11.304 -25.25,-25.25 10e-4,-13.945 11.305,-25.249 25.25,-25.249 z m 64.095,0 c 13.946,0 25.25,11.303 25.25,25.249 0,13.945 -11.304,25.25 -25.25,25.25 -13.945,0 -25.25,-11.304 -25.25,-25.25 0,-13.945 11.304,-25.249 25.25,-25.249 z m 90.656,25.246 h -0.007 v 0.007 h 0.007 v -0.007 z"
   id="path35"
   inkscape:connector-curvature="0"
   style="fill:#e1dfbd;display:none" />
<path
   display="none"
   d="m -538.37142,66.431 h -0.009 c -66.668,35.262 -137.726,26.9 -174.803,4.749 h -0.01 c -0.106,-0.709 -0.204,-1.417 -0.31,-2.127 -3.238,-22.264 -4.452,-43.263 -4.309,-60.183 0.2,-23.671 3.056,-39.358 6.737,-39.358 6.313,0 25.978,25.492 28.648,28.163 2.67,2.67 27.677,0.282 55.354,0 9.741,-0.106 38.845,-2.914 46.614,-5.827 7.769,-2.914 8.254,-33.504 20.394,-33.504 9.21,0 15.066,35.775 18.628,70.887 1.133,11.168 2.034,22.269 2.737,32.13 0.116,1.622 0.222,3.312 0.329,5.07 z m 0.547,-82.675 h -0.007 v 0.007 h 0.007 v -0.007 z"
   id="path37"
   inkscape:connector-curvature="0"
   style="fill:#e5aea9;display:none" />
<g
   id="g39"
   transform="translate(-489.50142,-317.13)">
	<path
   d="m 674.29,428.43 c -0.11,-1.81 -0.22,-3.55 -0.34,-5.22 -3,-42.08 -9.5,-106.08 -22,-106.08 -12.5,0 -13,31.5 -21,34.5 -8,3 -37.97,5.89 -48,6 -28.5,0.29 -54.25,2.75 -57,0 -2.75,-2.75 -23,-29 -29.5,-29 -6.5,0 -10.5,47.5 -2.5,102.5 0.109,0.73 0.21,1.46 0.319,2.19 h 0.011 c 8.16,54.899 26.71,132.22 104.17,125.81 75.38,-6.24 78.38,-87.03 75.84,-130.7 z"
   id="path41"
   inkscape:connector-curvature="0"
   style="fill:#e5aea9" />
	<path
   d="m 651.95,317.13 c -12.5,0 -13,31.5 -21,34.5 -8,3 -37.97,5.89 -48,6 -28.5,0.29 -54.25,2.75 -57,0 -2.75,-2.75 -23,-29 -29.5,-29 -3.46,0 -6.21,13.43 -6.82,34.28 4.44,-14.17 7.771,-27.14 15.04,-16.91 7.33,10.33 14.13,23 28.23,23 14.1,0 78.659,-3.67 91.05,-7 12.38,-3.33 17.72,-8.33 21.05,-19.67 3.33,-11.33 13.62,-11.3 20.31,5.35 -3.41,-17.83 -7.79,-30.55 -13.36,-30.55 z"
   id="path43"
   inkscape:connector-curvature="0"
   style="fill:#e8b7b3" />
	<path
   d="m 558.9,405.38 c 0,14.36 -11.641,26 -26,26 -14.36,0 -26,-11.64 -26,-26 0,-14.36 11.64,-26 26,-26 14.36,0 26,11.64 26,26 z m 72.05,-31.03 c -14.36,0 -26,11.64 -26,26 0,14.36 11.64,26 26,26 14.35,0 26,-11.64 26,-26 0,-14.36 -11.65,-26 -26,-26 z"
   id="path45"
   inkscape:connector-curvature="0"
   style="fill:#faf3e6" />
	<path
   d="m 674.29,428.43 c 2.54,43.67 -0.46,124.46 -75.84,130.7 -77.46,6.41 -96.01,-70.91 -104.17,-125.81 38.18,22.81 111.35,31.42 180,-4.891 h 0.01 z"
   id="path47"
   inkscape:connector-curvature="0"
   style="fill:#dbcb89" />
	<g
   id="g49">
		<g
   id="XMLID_7_">
			<path
   d="m 667,503.77 c -9.33,28.24 -28.96,52.08 -68.55,55.36 -41.141,3.4 -65.67,-16.81 -80.84,-44.75 32.069,25.29 56.29,37.95 80.34,36.29 24.04,-1.67 48.41,-8.86 69.05,-46.9 z"
   id="path52"
   inkscape:connector-curvature="0"
   style="fill:#d1c283" />
			<path
   d="m 674.29,428.43 c 0.16,2.73 0.3,5.61 0.39,8.61 -54.65,34.34 -145.68,28.63 -178.69,7.08 -0.62,-3.68 -1.19,-7.28 -1.71,-10.8 38.18,22.81 111.35,31.42 180,-4.891 h 0.01 z"
   id="path54"
   inkscape:connector-curvature="0"
   style="fill:#d1c283" />
		</g>
	</g>
	<path
   d="m 525.9,390.66 c 5.92,0 10.72,4.8 10.72,10.72 0,5.92 -4.8,10.72 -10.72,10.72 -5.92,0 -10.721,-4.8 -10.721,-10.72 0,-5.92 4.801,-10.72 10.721,-10.72 z m 87.32,5.69 c 0,5.92 4.811,10.72 10.73,10.72 5.919,0 10.72,-4.8 10.72,-10.72 0,-5.92 -4.8,-10.72 -10.72,-10.72 -5.92,0 -10.73,4.8 -10.73,10.72 z"
   id="path56"
   inkscape:connector-curvature="0"
   style="fill:#5b5221" />
	<path
   d="m 597.733,412.313 c -0.303,-0.499 -0.863,-0.776 -1.443,-0.714 l -28,3.01 c -0.552,0.059 -1.024,0.417 -1.231,0.933 -0.207,0.515 -0.113,1.1 0.244,1.524 l 14.5,17.221 c 0.304,0.36 0.761,0.558 1.23,0.532 0.471,-0.026 0.903,-0.273 1.165,-0.665 l 13.5,-20.231 c 0.323,-0.486 0.337,-1.111 0.035,-1.61 z"
   id="path58"
   inkscape:connector-curvature="0"
   style="fill:#e95846" />
</g>
</svg>