<?xml version="1.0" encoding="UTF-8" standalone="no"?>
<!-- Generator: Adobe Illustrator 14.0.0, SVG Export Plug-In . SVG Version: 6.00 Build 43363)  -->

<svg
   xmlns:dc="http://purl.org/dc/elements/1.1/"
   xmlns:cc="http://creativecommons.org/ns#"
   xmlns:rdf="http://www.w3.org/1999/02/22-rdf-syntax-ns#"
   xmlns:svg="http://www.w3.org/2000/svg"
   xmlns="http://www.w3.org/2000/svg"
   xmlns:sodipodi="http://sodipodi.sourceforge.net/DTD/sodipodi-0.dtd"
   xmlns:inkscape="http://www.inkscape.org/namespaces/inkscape"
   version="1.1"
   id="Layer_1"
   x="0px"
   y="0px"
   width="157.93544"
   height="215.9995"
   viewBox="0 0 157.93544 215.9995"
   enable-background="new 0 0 720 314.779"
   xml:space="preserve"
   inkscape:version="0.48.2 r9819"
   sodipodi:docname="teddy_bear.svg"><metadata
   id="metadata41"><rdf:RDF><cc:Work
       rdf:about=""><dc:format>image/svg+xml</dc:format><dc:type
         rdf:resource="http://purl.org/dc/dcmitype/StillImage" /></cc:Work></rdf:RDF></metadata><defs
   id="defs39" /><sodipodi:namedview
   pagecolor="#ffffff"
   bordercolor="#666666"
   borderopacity="1"
   objecttolerance="10"
   gridtolerance="10"
   guidetolerance="10"
   inkscape:pageopacity="0"
   inkscape:pageshadow="2"
   inkscape:window-width="640"
   inkscape:window-height="480"
   id="namedview37"
   showgrid="false"
   fit-margin-top="0"
   fit-margin-left="0"
   fit-margin-right="0"
   fit-margin-bottom="0"
   inkscape:zoom="0.48888889"
   inkscape:cx="318.72419"
   inkscape:cy="107.60999"
   inkscape:window-x="0"
   inkscape:window-y="0"
   inkscape:window-maximized="0"
   inkscape:current-layer="Layer_1" />
<g
   id="g3"
   transform="translate(-41.275812,-49)">
	<path
   d="m 171.035,169.258 c 27.898,11.403 31.391,24.604 26.097,34.467 -8.917,16.569 -27.282,2.296 -27.282,2.296 -2.125,11.987 -2.784,36.89 0,39.366 2.784,2.476 7.461,5.134 7.461,10.691 0,5.569 -26.911,11.553 -45.681,7.695 -4.537,-4.018 -5.28,-13.104 -11.381,-13.242 -6.111,0.138 -6.855,9.225 -11.394,13.242 -18.77,3.857 -45.68,-2.126 -45.68,-7.695 0,-5.558 4.676,-8.215 7.462,-10.691 2.784,-2.477 2.125,-27.379 0,-39.366 0,0 -18.367,14.273 -27.283,-2.296 -5.293,-9.863 -1.797,-23.063 26.102,-34.467 -13.093,-11.479 -19.593,-26.906 -19.593,-49.98 0,-17.038 8.179,-31.496 13.822,-39.956 C 55.587,76.505 49.04,64.347 58.17,55.217 67.289,46.088 79.83,53.665 82.126,60.701 92.987,53.314 106.102,49 120.238,49 h 0.011 c 14.135,0 27.25,4.314 38.112,11.701 2.296,-7.036 14.838,-14.614 23.967,-5.484 9.119,9.13 2.584,21.278 -5.515,24.105 5.643,8.46 13.821,22.917 13.821,39.956 0,23.074 -6.506,38.5 -19.599,49.98 z"
   id="path5"
   inkscape:connector-curvature="0"
   style="fill:#b97d6d" />
	<path
   d="m 120.249,143.325 c 4.698,0 11.223,1.594 10.479,6.377 -0.733,4.772 -8.779,8.492 -10.479,8.502 h -0.011 c -1.701,-0.011 -9.735,-3.73 -10.479,-8.502 -0.744,-4.783 5.782,-6.377 10.479,-6.377 h 0.011 z"
   id="path7"
   inkscape:connector-curvature="0"
   style="fill:#433739" />
	<path
   d="m 154.694,178.663 c -5.697,2.073 -12.244,3.529 -19.694,4.337 -4.56,0.499 -9.481,0.754 -14.751,0.754 h -0.011 c -5.272,0 -10.192,-0.255 -14.752,-0.754 -7.45,-0.808 -13.997,-2.264 -19.693,-4.337 -0.988,11.648 -2.115,22.84 -1.679,32.586 0.882,19.769 8.172,33.659 36.136,33.659 27.952,0 35.253,-13.891 36.125,-33.659 0.435,-9.756 -0.692,-20.937 -1.681,-32.586 z"
   id="path9"
   inkscape:connector-curvature="0"
   style="fill:#d7a697" />
	<g
   id="g11">
		<g
   id="g13">
			<g
   id="g15">
				<path
   d="m 90.93,114.99 c 10.393,0 18.828,8.431 18.828,18.831 0,10.395 -8.435,18.829 -18.828,18.829 -10.4,0 -18.834,-8.434 -18.834,-18.829 0,-10.4 8.434,-18.831 18.834,-18.831 z"
   id="path17"
   inkscape:connector-curvature="0"
   style="fill:#ffffff" />
				<path
   d="m 85.794,141.519 c 2.836,0 5.136,-2.297 5.136,-5.13 0,-2.841 -2.3,-5.136 -5.136,-5.136 -2.838,0 -5.133,2.295 -5.133,5.136 0,2.833 2.295,5.13 5.133,5.13 z"
   id="path19"
   inkscape:connector-curvature="0"
   style="fill:#433739" />
			</g>
			<g
   id="g21">
				<path
   d="m 153.821,114.99 c 10.396,0 18.833,8.429 18.833,18.831 0,10.397 -8.437,18.831 -18.833,18.831 -10.398,0 -18.83,-8.434 -18.83,-18.831 0,-10.403 8.432,-18.831 18.83,-18.831 z"
   id="path23"
   inkscape:connector-curvature="0"
   style="fill:#ffffff" />
				<path
   d="m 148.685,131.252 c -2.835,0 -5.133,2.295 -5.133,5.136 0,2.833 2.298,5.13 5.133,5.13 2.837,0 5.137,-2.297 5.137,-5.13 -0.001,-2.841 -2.301,-5.136 -5.137,-5.136 z"
   id="path25"
   inkscape:connector-curvature="0"
   style="fill:#433739" />
			</g>
		</g>
		<path
   d="m 145.175,154.905 c -2.443,11.039 -23.823,14.969 -36.92,9.584"
   id="path27"
   inkscape:connector-curvature="0"
   style="fill:none;stroke:#98675a;stroke-width:3;stroke-linecap:round;stroke-linejoin:round" />
	</g>
	<path
   d="m 67.926,70.171 c -3.444,0 -5.304,-4.166 -3.264,-7.354 1.86,-2.923 7.259,-3.369 8.949,1.329 m 98.949,6.025 c 3.443,0 5.303,-4.166 3.263,-7.354 -1.86,-2.923 -7.26,-3.369 -8.949,1.329"
   id="path29"
   inkscape:connector-curvature="0"
   style="fill:none;stroke:#000000;stroke-width:0.5;stroke-linecap:round;stroke-linejoin:round" />
	<g
   id="g31">
		<path
   d="m 165.64,175.655 c -0.477,-0.479 -1.041,-0.925 -1.668,-1.328 C 158.297,170.702 147.01,170.99 135,183 c -4.56,0.499 -9.481,0.754 -14.751,0.754 h -0.011 c -5.272,0 -10.192,-0.255 -14.752,-0.754 -12.01,-12.01 -23.297,-12.298 -28.972,-8.673 -0.627,0.403 -1.19,0.85 -1.669,1.328 -4.633,4.634 -1.465,30.949 9.269,35.594 0.542,0.244 1.104,0.425 1.679,0.542 9.375,1.924 18.63,-9.374 22.309,-14.539 2.263,3.592 6.1,6.036 12.148,6.036 6.046,0 9.873,-2.444 12.137,-6.036 3.677,5.165 12.935,16.463 22.309,14.539 0.583,-0.117 1.137,-0.298 1.68,-0.542 10.742,-4.645 13.899,-30.96 9.264,-35.594 z"
   id="path33"
   inkscape:connector-curvature="0"
   style="fill:#7fc9b8" />
		<path
   d="m 132.386,197.252 c -2.265,3.592 -6.091,6.036 -12.137,6.036 -6.048,0 -9.885,-2.444 -12.148,-6.036 -2.488,-3.943 -3.072,-9.279 -2.605,-14.242 l -0.01,-0.01 c 4.561,0.499 9.48,0.754 14.752,0.754 h 0.011 c 5.27,0 10.192,-0.255 14.751,-0.754 l -0.012,0.01 c 0.469,4.963 -0.116,10.299 -2.602,14.242 z"
   id="path35"
   inkscape:connector-curvature="0"
   style="fill:#97d1c4" />
	</g>
</g>
</svg>