<?xml version="1.0" encoding="utf-8"?>
<!-- Generator: Adobe Illustrator 14.0.0, SVG Export Plug-In . SVG Version: 6.00 Build 43363)  -->
<!DOCTYPE svg PUBLIC "-//W3C//DTD SVG 1.1//EN" "http://www.w3.org/Graphics/SVG/1.1/DTD/svg11.dtd">
<svg version="1.1" id="Layer_1" xmlns="http://www.w3.org/2000/svg" xmlns:xlink="http://www.w3.org/1999/xlink" x="0px" y="0px"
	 width="720px" height="314.779px" viewBox="0 0 720 314.779" enable-background="new 0 0 720 314.779" xml:space="preserve">
<g>
	<path fill="#B97D6D" d="M171.035,169.258c27.898,11.403,31.391,24.604,26.097,34.467c-8.917,16.569-27.282,2.296-27.282,2.296
		c-2.125,11.987-2.784,36.89,0,39.366s7.461,5.134,7.461,10.691c0,5.569-26.911,11.553-45.681,7.695
		c-4.537-4.018-5.28-13.104-11.381-13.242c-6.111,0.138-6.855,9.225-11.394,13.242c-18.77,3.857-45.68-2.126-45.68-7.695
		c0-5.558,4.676-8.215,7.462-10.691c2.784-2.477,2.125-27.379,0-39.366c0,0-18.367,14.273-27.283-2.296
		c-5.293-9.863-1.797-23.063,26.102-34.467c-13.093-11.479-19.593-26.906-19.593-49.98c0-17.038,8.179-31.496,13.822-39.956
		c-8.098-2.817-14.645-14.975-5.515-24.105c9.119-9.129,21.66-1.552,23.956,5.484C92.987,53.314,106.102,49,120.238,49h0.011
		c14.135,0,27.25,4.314,38.112,11.701c2.296-7.036,14.838-14.614,23.967-5.484c9.119,9.13,2.584,21.278-5.515,24.105
		c5.643,8.46,13.821,22.917,13.821,39.956C190.634,142.352,184.128,157.778,171.035,169.258z"/>
	<path fill="#433739" d="M120.249,143.325c4.698,0,11.223,1.594,10.479,6.377c-0.733,4.772-8.779,8.492-10.479,8.502h-0.011
		c-1.701-0.011-9.735-3.73-10.479-8.502c-0.744-4.783,5.782-6.377,10.479-6.377H120.249z"/>
	<path fill="#D7A697" d="M154.694,178.663c-5.697,2.073-12.244,3.529-19.694,4.337c-4.56,0.499-9.481,0.754-14.751,0.754h-0.011
		c-5.272,0-10.192-0.255-14.752-0.754c-7.45-0.808-13.997-2.264-19.693-4.337c-0.988,11.648-2.115,22.84-1.679,32.586
		c0.882,19.769,8.172,33.659,36.136,33.659c27.952,0,35.253-13.891,36.125-33.659C156.81,201.493,155.683,190.312,154.694,178.663z"
		/>
	<g>
		<g>
			<g>
				<path fill="#FFFFFF" d="M90.93,114.99c10.393,0,18.828,8.431,18.828,18.831c0,10.395-8.435,18.829-18.828,18.829
					c-10.4,0-18.834-8.434-18.834-18.829C72.096,123.421,80.53,114.99,90.93,114.99z"/>
				<path fill="#433739" d="M85.794,141.519c2.836,0,5.136-2.297,5.136-5.13c0-2.841-2.3-5.136-5.136-5.136
					c-2.838,0-5.133,2.295-5.133,5.136C80.661,139.222,82.956,141.519,85.794,141.519z"/>
			</g>
			<g>
				<path fill="#FFFFFF" d="M153.821,114.99c10.396,0,18.833,8.429,18.833,18.831c0,10.397-8.437,18.831-18.833,18.831
					c-10.398,0-18.83-8.434-18.83-18.831C134.991,123.418,143.423,114.99,153.821,114.99z"/>
				<path fill="#433739" d="M148.685,131.252c-2.835,0-5.133,2.295-5.133,5.136c0,2.833,2.298,5.13,5.133,5.13
					c2.837,0,5.137-2.297,5.137-5.13C153.821,133.547,151.521,131.252,148.685,131.252z"/>
			</g>
		</g>
		<path fill="none" stroke="#98675A" stroke-width="3" stroke-linecap="round" stroke-linejoin="round" d="M145.175,154.905
			c-2.443,11.039-23.823,14.969-36.92,9.584"/>
	</g>
	<path fill="none" stroke="#000000" stroke-width="0.5" stroke-linecap="round" stroke-linejoin="round" d="M67.926,70.171
		c-3.444,0-5.304-4.166-3.264-7.354c1.86-2.923,7.259-3.369,8.949,1.329 M172.56,70.171c3.443,0,5.303-4.166,3.263-7.354
		c-1.86-2.923-7.26-3.369-8.949,1.329"/>
	<g>
		<path fill="#7FC9B8" d="M165.64,175.655c-0.477-0.479-1.041-0.925-1.668-1.328C158.297,170.702,147.01,170.99,135,183
			c-4.56,0.499-9.481,0.754-14.751,0.754h-0.011c-5.272,0-10.192-0.255-14.752-0.754c-12.01-12.01-23.297-12.298-28.972-8.673
			c-0.627,0.403-1.19,0.85-1.669,1.328c-4.633,4.634-1.465,30.949,9.269,35.594c0.542,0.244,1.104,0.425,1.679,0.542
			c9.375,1.924,18.63-9.374,22.309-14.539c2.263,3.592,6.1,6.036,12.148,6.036c6.046,0,9.873-2.444,12.137-6.036
			c3.677,5.165,12.935,16.463,22.309,14.539c0.583-0.117,1.137-0.298,1.68-0.542C167.118,206.604,170.275,180.289,165.64,175.655z"
			/>
		<path fill="#97D1C4" d="M132.386,197.252c-2.265,3.592-6.091,6.036-12.137,6.036c-6.048,0-9.885-2.444-12.148-6.036
			c-2.488-3.943-3.072-9.279-2.605-14.242l-0.01-0.01c4.561,0.499,9.48,0.754,14.752,0.754h0.011c5.27,0,10.192-0.255,14.751-0.754
			l-0.012,0.01C135.457,187.973,134.872,193.309,132.386,197.252z"/>
	</g>
</g>
</svg>
