<?xml version="1.0" encoding="UTF-8" standalone="no"?>
<!-- Generator: Adobe Illustrator 14.0.0, SVG Export Plug-In . SVG Version: 6.00 Build 43363)  -->

<svg
   xmlns:dc="http://purl.org/dc/elements/1.1/"
   xmlns:cc="http://creativecommons.org/ns#"
   xmlns:rdf="http://www.w3.org/1999/02/22-rdf-syntax-ns#"
   xmlns:svg="http://www.w3.org/2000/svg"
   xmlns="http://www.w3.org/2000/svg"
   xmlns:sodipodi="http://sodipodi.sourceforge.net/DTD/sodipodi-0.dtd"
   xmlns:inkscape="http://www.inkscape.org/namespaces/inkscape"
   version="1.1"
   id="Layer_2"
   x="0px"
   y="0px"
   width="339.99957"
   height="273.38312"
   viewBox="0 0 339.99957 273.38312"
   enable-background="new 0 0 828 828"
   xml:space="preserve"
   inkscape:version="0.48.2 r9819"
   sodipodi:docname="turtle.svg"><metadata
   id="metadata64"><rdf:RDF><cc:Work
       rdf:about=""><dc:format>image/svg+xml</dc:format><dc:type
         rdf:resource="http://purl.org/dc/dcmitype/StillImage" /></cc:Work></rdf:RDF></metadata><defs
   id="defs62" /><sodipodi:namedview
   pagecolor="#ffffff"
   bordercolor="#666666"
   borderopacity="1"
   objecttolerance="10"
   gridtolerance="10"
   guidetolerance="10"
   inkscape:pageopacity="0"
   inkscape:pageshadow="2"
   inkscape:window-width="640"
   inkscape:window-height="480"
   id="namedview60"
   showgrid="false"
   fit-margin-top="0"
   fit-margin-left="0"
   fit-margin-right="0"
   fit-margin-bottom="0"
   inkscape:zoom="0.28502415"
   inkscape:cx="-0.00043489363"
   inkscape:cy="164.23184"
   inkscape:window-x="0"
   inkscape:window-y="0"
   inkscape:window-maximized="0"
   inkscape:current-layer="Layer_2" />
<g
   id="g3"
   transform="translate(-414.00043,-304.84871)">
	<path
   d="m 754,487.325 c -2.186,-2.186 -16.821,-4.876 -25.966,-20.476 2.173,-1.157 4.215,-2.4 6.133,-3.718 4.338,-2.993 8.027,-6.37 10.989,-10.225 5.053,-6.588 3.805,-16.024 -2.783,-21.077 -6.594,-5.053 -16.028,-3.805 -21.083,2.783 -0.341,0.451 -0.855,1.025 -1.548,1.668 -0.275,0.251 -0.57,0.516 -0.897,0.784 -1.695,-5.39 -3.783,-10.821 -6.394,-16.134 -8.551,-17.414 -22.702,-33.598 -46.852,-43.144 -3.704,-1.471 -7.645,-2.779 -11.838,-3.914 -4.273,-0.998 -8.405,-1.718 -12.397,-2.178 -25.829,-2.998 -45.973,4.621 -61.747,15.957 -5.043,3.622 -9.64,7.622 -13.831,11.777 -0.061,-0.122 -0.114,-0.245 -0.169,-0.369 -0.757,-1.686 -1.126,-3.062 -1.271,-3.959 -1.021,-6.297 -5.813,-11.045 -11.696,-12.297 3.554,-30.883 -10.57,-60.471 -37.371,-72.568 -34.218,-15.445 -76.135,3.459 -93.631,42.219 -17.501,38.761 -3.946,82.701 30.267,98.146 15.256,6.881 32.035,6.939 47.506,1.458 2.373,4.971 5.621,9.9 9.739,14.768 4.932,5.8 11.114,11.499 18.677,16.916 l -15.624,39.945 c -0.009,0.023 -0.019,0.042 -0.021,0.064 -2.06,5.354 1.312,7.677 5.896,9.491 0.035,0.019 0.078,0.032 0.118,0.046 5.28,1.981 11.03,3.941 17.155,5.809 l -4.176,10.667 c -0.003,0.022 -0.012,0.04 -0.021,0.063 -1.313,3.863 1.877,8.032 8.394,10.453 0.177,0.067 0.359,0.132 0.541,0.195 19.793,7.158 45.508,13.852 72.828,17.014 5.73,0.582 9.463,-0.201 10.621,-9.5 h 0.004 l 4.998,-43.667 c 3.107,0.669 6.232,1.274 9.372,1.808 l 2.758,32.629 c 0,0.008 0,0.019 0,0.026 l 0.432,5.107 c 0.726,3.432 2.542,5.642 6.648,5.222 0.008,0 0.019,0 0.026,0 3.463,-0.311 6.908,-0.705 10.325,-1.189 l 0.063,0.756 c 0.024,0.265 0.046,0.524 0.069,0.779 0.541,5.531 1.855,9.21 10.461,8.726 24.587,-2.615 48.143,-9.683 67.598,-23.359 0.014,-0.011 0.022,-0.014 0.036,-0.024 1.563,-1.102 3.103,-2.246 4.61,-3.434 4.702,-4.353 4.639,-8.579 1.039,-15.323 -0.019,-0.041 -0.04,-0.083 -0.063,-0.123 l -13.387,-24.91 c 9.006,-6.023 17.559,-13.805 25.463,-23.688 z"
   id="path5"
   inkscape:connector-curvature="0"
   style="fill:#84a25b" />
	<path
   d="m 754,487.325 c -2.186,-2.186 -16.821,-4.876 -25.966,-20.476 2.173,-1.157 4.215,-2.4 6.133,-3.718 4.338,-2.993 8.027,-6.37 10.989,-10.225 5.053,-6.588 3.805,-16.024 -2.783,-21.077 -6.594,-5.053 -16.028,-3.805 -21.083,2.783 -0.341,0.451 -0.855,1.025 -1.548,1.668 -0.275,0.251 -0.57,0.516 -0.897,0.784 -1.695,-5.39 -3.783,-10.821 -6.394,-16.134 -8.551,-17.414 -22.702,-33.598 -46.852,-43.144 -3.704,-1.471 -7.645,-2.779 -11.838,-3.914 -4.273,-0.998 -8.405,-1.718 -12.397,-2.178 -25.829,-2.998 -45.973,4.621 -61.747,15.957 -5.043,3.622 -9.64,7.622 -13.831,11.777 -0.061,-0.122 -0.114,-0.245 -0.169,-0.369 -0.757,-1.686 -1.126,-3.062 -1.271,-3.959 -1.021,-6.297 -5.813,-11.045 -11.696,-12.297 3.554,-30.883 -10.57,-60.471 -37.371,-72.568 -34.218,-15.445 -76.135,3.459 -93.631,42.219 -17.501,38.761 -3.946,82.701 30.267,98.146 15.256,6.881 32.035,6.939 47.506,1.458 2.373,4.971 5.621,9.9 9.739,14.768 4.932,5.8 11.114,11.499 18.677,16.916 3.612,2.599 7.545,5.127 11.801,7.569 3.737,2.142 7.723,4.223 11.974,6.22 l -16.251,41.566 -4.176,10.667 c -0.003,0.022 -0.012,0.04 -0.021,0.063 -1.313,3.863 1.877,8.032 8.394,10.453 0.177,0.067 0.359,0.132 0.541,0.195 19.793,7.158 45.508,13.852 72.828,17.014 5.73,0.582 9.463,-0.201 10.621,-9.5 h 0.004 l 4.998,-43.667 c 3.107,0.669 6.232,1.274 9.372,1.808 5.583,0.947 11.204,1.664 16.832,2.086 l 3.357,39.709 0.063,0.756 c 0.024,0.265 0.046,0.524 0.069,0.779 0.541,5.531 1.855,9.21 10.461,8.726 24.587,-2.615 48.143,-9.683 67.598,-23.359 0.014,-0.011 0.022,-0.014 0.036,-0.024 1.563,-1.102 3.103,-2.246 4.61,-3.434 4.702,-4.353 4.639,-8.579 1.039,-15.323 -0.019,-0.041 -0.04,-0.083 -0.063,-0.123 l -13.387,-24.91 c 9.006,-6.023 17.559,-13.805 25.463,-23.688 z"
   id="path7"
   inkscape:connector-curvature="0"
   style="fill:#92b265" />
	<g
   id="g9">
		<g
   id="XMLID_3_">
			<path
   d="m 625.87,547.69 -2.32,20.3 c -1.16,9.3 -4.89,10.08 -10.63,9.5 -27.32,-3.16 -53.03,-9.86 -72.82,-17.01 -0.18,-0.07 -0.369,-0.131 -0.54,-0.2 -6.52,-2.42 -9.71,-6.59 -8.399,-10.45 0.01,-0.021 0.02,-0.04 0.02,-0.061 l 4.181,-10.67 1.84,-4.71 C 537.22,549.01 570,561 589.5,561 c 19.5,0 32.75,-2.12 36.37,-13.31 z"
   id="path12"
   inkscape:connector-curvature="0"
   style="fill:#8ead62" />
			<path
   d="m 741.99,536.05 c 3.59,6.74 3.66,10.97 -1.04,15.32 -1.51,1.189 -3.05,2.33 -4.61,3.43 -0.02,0.01 -0.03,0.021 -0.04,0.03 -19.46,13.67 -43.01,20.74 -67.6,23.36 -8.601,0.479 -9.92,-3.2 -10.46,-8.73 -0.021,-0.25 -0.04,-0.51 -0.07,-0.78 l -0.06,-0.75 -1.551,-18.35 c 7.44,18.92 63.78,18.77 85.36,-13.66 0.031,0.04 0.051,0.08 0.071,0.13 z"
   id="path14"
   inkscape:connector-curvature="0"
   style="fill:#8ead62" />
			<path
   d="m 728.03,466.85 c 1.649,2.811 3.47,5.2 5.37,7.24 -77.59,29.58 -152.4,0.91 -181.24,-42.64 6.87,7.17 15.74,14.109 26.85,20.49 13.16,7.55 29.46,14.3 49.36,19.55 l 0.33,0.08 c 18.14,4.35 34.25,6.22 48.41,6.22 16.72,-0.01 30.72,-2.6 42.05,-6.91 3.17,-1.21 6.12,-2.56 8.87,-4.03 z"
   id="path16"
   inkscape:connector-curvature="0"
   style="fill:#8ead62" />
			<path
   d="m 547.44,344.03 h -0.011 c -35.55,-41.31 -76.92,-29.53 -111.04,-14.11 20.82,-22.88 52.2,-31.73 78.891,-19.68 14.96,6.75 25.97,18.95 32.16,33.79 z"
   id="path18"
   inkscape:connector-curvature="0"
   style="fill:#97b46c" />
			<path
   d="m 418.03,412.25 c 11.439,20.95 35.81,41.87 81.39,39.81 -15.47,5.48 -32.25,5.421 -47.51,-1.46 -16.47,-7.43 -28.15,-21.47 -33.88,-38.35 z"
   id="path20"
   inkscape:connector-curvature="0"
   style="fill:#8ead62" />
		</g>
	</g>
	<path
   d="m 742.373,431.83 c -6.594,-5.053 -16.028,-3.805 -21.083,2.783 -0.341,0.451 -0.855,1.025 -1.548,1.668 -0.275,0.251 -0.57,0.516 -0.897,0.784 -1.695,-5.39 -3.783,-10.821 -6.394,-16.134 -28.963,8.725 -54.762,-13.583 -46.852,-43.144 -3.704,-1.471 -7.645,-2.779 -11.838,-3.914 -4.273,-0.998 -8.405,-1.718 -12.397,-2.178 v 0.004 c -6.934,29.871 -40.295,37.403 -61.747,15.952 -5.043,3.622 -9.64,7.622 -13.831,11.777 -0.061,-0.122 -0.114,-0.245 -0.169,-0.369 -0.757,-1.686 -1.126,-3.062 -1.271,-3.959 -1.021,-6.297 -5.813,-11.045 -11.696,-12.297 -1.777,-0.388 -3.649,-0.447 -5.55,-0.142 -8.202,1.331 -13.764,9.054 -12.438,17.25 0.557,3.413 1.559,6.784 2.948,10.138 2.441,5.864 6.078,11.678 10.927,17.401 7.279,8.574 17.313,16.926 30.476,24.485 13.163,7.554 29.46,14.301 49.357,19.555 l 0.334,0.081 c 18.139,4.348 34.25,6.217 48.405,6.217 16.727,-0.006 30.719,-2.598 42.052,-6.913 3.165,-1.208 6.122,-2.556 8.874,-4.027 2.173,-1.157 4.215,-2.4 6.133,-3.718 4.338,-2.993 8.027,-6.37 10.989,-10.225 5.052,-6.586 3.804,-16.022 -2.784,-21.075 z m -65.265,15.888 c -11.464,0 -25.2,-1.517 -41.23,-5.349 -13.386,-3.54 -24.571,-7.756 -33.788,-12.233 -1.863,-0.907 -3.649,-1.823 -5.354,-2.744 10.598,-14.392 34.014,-21.291 47.855,-17.085 14.14,2.793 31.479,19.784 34.153,37.403 -0.538,0.004 -1.085,0.008 -1.636,0.008 z"
   id="path22"
   inkscape:connector-curvature="0"
   style="fill:#008964" />
	<path
   d="m 728.034,466.85 c -2.752,1.472 -5.709,2.819 -8.874,4.027 -11.333,4.315 -25.325,6.907 -42.052,6.913 -14.155,0 -30.267,-1.869 -48.405,-6.217 l -0.334,-0.081 c -19.897,-5.254 -36.194,-12.001 -49.357,-19.555 -13.163,-7.56 -23.196,-15.911 -30.476,-24.485 -4.849,-5.723 -8.485,-11.537 -10.927,-17.401 -1.39,-3.354 -2.392,-6.726 -2.948,-10.138 -1.325,-8.196 4.236,-15.919 12.438,-17.25 1.9,-0.305 3.772,-0.246 5.55,0.142 5.883,1.252 10.676,6 11.696,12.297 0.146,0.897 0.515,2.273 1.271,3.959 0.055,0.124 0.108,0.247 0.169,0.369 0.747,1.613 1.826,3.486 3.294,5.527 3.167,4.402 8.154,9.569 15.404,14.8 3.53,2.552 7.6,5.116 12.251,7.635 1.705,0.921 3.491,1.837 5.354,2.744 9.217,4.478 20.402,8.693 33.788,12.233 16.03,3.832 29.767,5.349 41.23,5.349 0.551,0 1.098,-0.004 1.636,-0.009 9.469,-0.123 17.332,-1.285 23.625,-2.976 6.656,-1.782 11.554,-4.165 14.743,-6.37 0.647,-0.441 1.227,-0.88 1.732,-1.298 0.327,-0.269 0.622,-0.533 0.897,-0.784 0.692,-0.643 1.207,-1.217 1.548,-1.668 5.055,-6.588 14.489,-7.836 21.083,-2.783 6.588,5.053 7.836,14.489 2.783,21.077 -2.962,3.854 -6.651,7.231 -10.989,10.225 -1.915,1.317 -3.957,2.56 -6.13,3.718 z"
   id="path24"
   inkscape:connector-curvature="0"
   style="fill:#00926b" />
	<path
   d="m 432.617,379.958 c 0.153,1.806 -1.187,3.393 -2.992,3.546 -1.805,0.154 -3.393,-1.185 -3.546,-2.991 -0.153,-1.805 1.187,-3.393 2.991,-3.546 1.805,-0.154 3.393,1.185 3.547,2.991 z m 57.089,23.408 c -1.806,0.154 -3.144,1.742 -2.989,3.546 0.152,1.805 1.74,3.145 3.545,2.991 1.805,-0.153 3.145,-1.741 2.99,-3.548 -0.153,-1.804 -1.74,-3.143 -3.546,-2.989 z"
   id="path26"
   inkscape:connector-curvature="0"
   style="fill:#00543a" />
	<g
   id="g28">
		<g
   id="g30">
			<g
   id="XMLID_2_">
				<path
   d="m 644.59,410.31 c 12.62,2.49 27.8,16.3 32.8,31.77 -1.56,0.04 -3.14,0.05 -4.739,0.04 -17.49,-38.97 -50.62,-30.33 -67.9,-16.95 -1.37,-0.72 -2.72,-1.47 -4.06,-2.26 11.699,-11.3 31.589,-16.34 43.899,-12.6 z"
   id="path33"
   inkscape:connector-curvature="0"
   style="fill:#97b46c" />
				<path
   d="m 672.65,442.12 c 0.8,1.76 1.56,3.62 2.279,5.58 -11.02,-0.181 -24.02,-1.74 -39.05,-5.33 -13.39,-3.54 -24.57,-7.76 -33.79,-12.23 -0.649,-0.319 -1.29,-0.64 -1.92,-0.96 1.36,-1.359 2.89,-2.71 4.58,-4.01 21.371,11.37 45.601,16.81 67.901,16.95 z"
   id="path35"
   inkscape:connector-curvature="0"
   style="fill:#8aa85f" />
				<path
   d="m 633.89,379.55 c 1.551,0.1 3.101,0.22 4.66,0.37 -6.06,13.03 -18.08,20 -30.88,20 -9.65,0 -19.74,-3.96 -28.05,-12.27 1.1,-0.79 2.22,-1.56 3.36,-2.31 8.88,8.87 36.82,19.53 50.91,-5.79 z"
   id="path37"
   inkscape:connector-curvature="0"
   style="fill:#8aa85f" />
				<path
   d="m 710.96,418.02 c 0.521,0.971 1.01,1.94 1.49,2.91 -26.771,8.07 -50.851,-10.39 -48.08,-36.58 1.729,0.45 3.439,0.93 5.12,1.45 -0.52,19.05 12.98,38.11 41.47,32.22 z"
   id="path39"
   inkscape:connector-curvature="0"
   style="fill:#8aa85f" />
				<path
   d="m 670.13,379.72 c 14.44,6.53 25.01,15.58 32.811,25.78 -7.53,-9.03 -19.631,-15.46 -33.45,-19.7 0.049,-2.04 0.259,-4.08 0.639,-6.08 z"
   id="path41"
   inkscape:connector-curvature="0"
   style="fill:#97b46c" />
				<path
   d="m 637.51,371.33 c -1.06,3.09 -2.27,5.82 -3.62,8.22 -20.87,-1.37 -40.529,0.96 -50.909,5.79 14.419,-9.49 32.299,-15.73 54.529,-14.01 z"
   id="path43"
   inkscape:connector-curvature="0"
   style="fill:#97b46c" />
			</g>
		</g>
		<g
   id="g45">
			<path
   d="m 713.59,423.34 c -0.37,-0.81 -0.75,-1.609 -1.14,-2.41 -26.771,8.07 -50.851,-10.39 -48.08,-36.58 0.229,-2.14 0.64,-4.33 1.229,-6.56 -3.699,-1.47 -7.64,-2.78 -11.84,-3.92 -3.149,-0.73 -6.229,-1.32 -9.24,-1.76 -0.46,3.05 -1.079,5.78 -1.84,8.24 6.25,0.72 12.5,1.78 18.551,3.21 -0.89,27.66 14.89,48.68 52.36,39.78 z"
   id="path47"
   inkscape:connector-curvature="0"
   style="fill:#008460" />
			<path
   d="m 622.5,402 c 9.14,-4.16 16.42,-9.54 20.18,-21.65 -1.38,-0.17 -2.76,-0.31 -4.13,-0.43 -6.06,13.03 -18.08,20 -30.88,20 -9.65,0 -19.74,-3.96 -28.05,-12.27 -0.89,0.64 -1.76,1.28 -2.62,1.95 11.75,14.15 34.5,17.4 45.5,12.4 z"
   id="path49"
   inkscape:connector-curvature="0"
   style="fill:#008460" />
			<path
   d="m 721.29,434.61 c -0.34,0.449 -0.86,1.029 -1.55,1.67 -0.271,0.25 -0.57,0.52 -0.9,0.79 -0.35,-1.11 -0.71,-2.221 -1.09,-3.33 -10.62,4.74 -23.49,7.54 -37.37,8.22 -14.52,-44.8 -56.12,-43.72 -83.59,-21.39 -10.37,-6.49 -19.86,-14.51 -27.86,-24.15 -1.069,0.99 -2.12,2 -3.14,3.01 -0.06,-0.12 -0.12,-0.25 -0.17,-0.37 -0.76,-1.68 -1.13,-3.06 -1.271,-3.96 -0.96,-5.91 -5.229,-10.44 -10.609,-12.02 5.779,3.21 9.26,11.04 9.26,18.1 0,7.07 24.1,32.72 74.55,46.52 50.45,13.8 80.83,-4.82 85.7,-9.7 4.73,-4.74 13.11,-9 15.64,-8.16 -6.12,-2.5 -13.39,-0.72 -17.6,4.77 z m -44.18,13.11 c -0.721,0 -1.44,-0.01 -2.181,-0.02 -11.02,-0.181 -24.02,-1.74 -39.05,-5.33 -13.39,-3.54 -24.57,-7.76 -33.79,-12.23 -0.649,-0.319 -1.29,-0.64 -1.92,-0.96 -1.18,-0.59 -2.32,-1.189 -3.43,-1.79 1.17,-1.59 2.5,-3.09 3.95,-4.479 11.699,-11.3 31.59,-16.34 43.899,-12.6 12.62,2.49 27.8,16.3 32.8,31.77 0.61,1.86 1.061,3.74 1.351,5.63 -0.529,-0.001 -1.079,0.009 -1.629,0.009 z"
   id="path51"
   inkscape:connector-curvature="0"
   style="fill:#008460" />
		</g>
		<g
   id="g53">
			<g
   id="XMLID_1_">
				<path
   d="m 565.62,399.06 c 0.05,0.12 0.11,0.25 0.17,0.37 0.74,1.61 1.82,3.49 3.29,5.53 3.17,4.4 8.15,9.57 15.4,14.8 2.3,1.66 4.829,3.33 7.609,4.98 1.48,0.89 3.03,1.77 4.65,2.649 1.109,0.601 2.25,1.2 3.43,1.79 0.63,0.32 1.271,0.641 1.92,0.96 9.22,4.471 20.4,8.69 33.79,12.23 15.03,3.59 28.03,5.149 39.05,5.33 0.74,0.01 1.46,0.02 2.181,0.02 0.55,0 1.1,-0.01 1.63,-0.01 1.109,-0.01 2.2,-0.04 3.27,-0.08 8.03,-0.32 14.811,-1.41 20.36,-2.899 6.66,-1.78 11.55,-4.16 14.74,-6.37 0.649,-0.44 1.229,-0.88 1.729,-1.29 0.33,-0.271 0.63,-0.54 0.9,-0.79 0.689,-0.641 1.21,-1.221 1.55,-1.67 4.21,-5.49 11.479,-7.271 17.6,-4.771 -2.529,-0.84 -10.909,3.42 -15.64,8.16 -4.87,4.88 -35.25,23.5 -85.7,9.7 C 587.099,433.899 563,408.25 563,401.18 c 0,-7.06 -3.48,-14.89 -9.26,-18.1 5.38,1.58 9.649,6.11 10.609,12.02 0.141,0.9 0.511,2.28 1.271,3.96 z"
   id="path56"
   inkscape:connector-curvature="0"
   style="fill:#19936e" />
				<path
   d="m 748.09,441.54 c 0.59,3.89 -0.35,8 -2.93,11.37 -2.97,3.85 -6.66,7.229 -10.99,10.22 -1.92,1.32 -3.96,2.561 -6.14,3.72 -2.75,1.471 -5.7,2.82 -8.87,4.03 -11.33,4.311 -25.33,6.9 -42.05,6.91 -14.16,0 -30.271,-1.87 -48.41,-6.22 l -0.33,-0.08 c -19.9,-5.25 -36.2,-12 -49.36,-19.55 -13.16,-7.561 -23.189,-15.91 -30.47,-24.49 -4.24,-5.01 -7.56,-10.08 -9.96,-15.2 34.26,35.94 87,60.24 139.42,56.75 52.42,-3.49 62.68,-14.92 70.09,-27.46 z"
   id="path58"
   inkscape:connector-curvature="0"
   style="fill:#008c67" />
			</g>
		</g>
	</g>
</g>
</svg>